<svg width="32" height="40" viewBox="0 0 32 40" fill="none" xmlns="http://www.w3.org/2000/svg">
<path d="M16 40C23.952 40 32 37.252 32 32V24V16V8C32 2.748 23.952 0 16 0C8.048 0 0 2.748 0 8V16V24V32C0 37.252 8.048 40 16 40ZM16 36C8.556 36 4 33.41 4 32V29.464C7.082 31.14 11.554 32 16 32C20.446 32 24.918 31.14 28 29.464V32C28 33.41 23.444 36 16 36ZM16 4C23.444 4 28 6.59 28 8C28 9.41 23.444 12 16 12C8.556 12 4 9.41 4 8C4 6.59 8.556 4 16 4ZM4 13.464C7.082 15.14 11.554 16 16 16C20.446 16 24.918 15.14 28 13.464V16C28 17.41 23.444 20 16 20C8.556 20 4 17.41 4 16V13.464ZM4 21.464C7.082 23.14 11.554 24 16 24C20.446 24 24.918 23.14 28 21.464V24C28 25.41 23.444 28 16 28C8.556 28 4 25.41 4 24V21.464Z" fill="#089641"/>
</svg>
