<svg width="500" height="500" viewBox="0 0 500 500" fill="none" xmlns="http://www.w3.org/2000/svg">
<circle opacity="0.1" cx="250" cy="250" r="205" fill="#473788"/>
<path d="M238.4 341.53H45.31C43.7964 341.527 42.3456 340.925 41.2753 339.855C40.2051 338.784 39.6026 337.334 39.6 335.82V64.39C39.6158 62.8851 40.224 61.4471 41.2929 60.3876C42.3617 59.3281 43.805 58.7325 45.31 58.73H238.4C239.913 58.7326 241.362 59.3354 242.431 60.4059C243.5 61.4765 244.1 62.9273 244.1 64.44V335.82C244.1 337.333 243.5 338.783 242.431 339.854C241.362 340.925 239.913 341.527 238.4 341.53ZM45.31 58.93C43.8627 58.9326 42.4755 59.5087 41.4521 60.5321C40.4287 61.5555 39.8526 62.9427 39.85 64.39V335.82C39.8526 337.267 40.4287 338.654 41.4521 339.678C42.4755 340.701 43.8627 341.277 45.31 341.28H238.4C239.846 341.277 241.233 340.701 242.254 339.677C243.276 338.654 243.85 337.266 243.85 335.82V64.39C243.85 62.9436 243.276 61.5564 242.254 60.5327C241.233 59.509 239.846 58.9326 238.4 58.93H45.31Z" fill="#E6E6E6"/>
<path d="M454.7 341.53H261.6C260.087 341.527 258.638 340.925 257.569 339.854C256.5 338.783 255.9 337.333 255.9 335.82V64.39C255.913 62.886 256.519 61.448 257.586 60.3882C258.654 59.3284 260.096 58.7326 261.6 58.73H454.7C456.204 58.7326 457.646 59.3284 458.714 60.3882C459.781 61.448 460.387 62.886 460.4 64.39V335.82C460.4 337.333 459.8 338.783 458.731 339.854C457.662 340.925 456.213 341.527 454.7 341.53ZM261.6 58.93C260.154 58.9326 258.767 59.509 257.746 60.5327C256.724 61.5564 256.15 62.9436 256.15 64.39V335.82C256.15 337.266 256.724 338.654 257.746 339.677C258.767 340.701 260.154 341.277 261.6 341.28H454.7C456.148 341.277 457.536 340.702 458.561 339.678C459.586 338.655 460.165 337.268 460.17 335.82V64.39C460.165 62.9418 459.586 61.5546 458.561 60.5315C457.536 59.5084 456.148 58.9326 454.7 58.93H261.6Z" fill="#E6E6E6"/>
<path d="M207.75 197.46L206.38 315C201.54 354.11 132.21 385.16 132.21 385.16C132.21 385.16 62.87 354.14 58 315L56.59 197.46L130.69 173.07L207.75 197.46Z" fill="#F5F5F5"/>
<path d="M198.08 204.9L196.89 310.44C192.67 344.55 132.2 371.63 132.2 371.63C132.2 371.63 71.73 344.55 67.52 310.44L66.25 204.9L130.88 183.63L198.08 204.9Z" fill="#E0E0E0"/>
<path d="M193.84 211.56L192.72 308.45C188.72 340.45 132.07 365.81 132.07 365.81C132.07 365.81 75.38 340.42 71.43 308.45L70.24 211.56L130.83 191.62L193.84 211.56Z" stroke="white" stroke-width="3" stroke-linecap="round" stroke-linejoin="round"/>
<path d="M440.32 157.79H306.94V391.83H440.32V157.79Z" fill="#F5F5F5"/>
<path d="M430.65 166.99H316.8V391.83H430.65V166.99Z" fill="#E0E0E0"/>
<path d="M320 392.83C319.8 392.831 319.603 392.79 319.42 392.71C319.239 392.638 319.076 392.529 318.94 392.39C318.795 392.254 318.682 392.086 318.61 391.9C318.538 391.719 318.501 391.525 318.5 391.33C318.5 391.109 318.55 390.89 318.644 390.69C318.739 390.49 318.877 390.313 319.048 390.173C319.219 390.032 319.419 389.931 319.634 389.877C319.849 389.823 320.073 389.817 320.29 389.86L320.57 389.94L320.83 390.08C320.911 390.138 320.988 390.201 321.06 390.27C321.131 390.338 321.192 390.415 321.24 390.5C321.298 390.58 321.345 390.667 321.38 390.76C321.42 390.85 321.451 390.944 321.47 391.04C321.48 391.136 321.48 391.234 321.47 391.33C321.471 391.526 321.43 391.721 321.35 391.9C321.278 392.084 321.169 392.251 321.03 392.39C320.755 392.663 320.387 392.82 320 392.83Z" fill="white"/>
<path d="M318.48 354.49C318.481 354.292 318.522 354.096 318.599 353.914C318.676 353.732 318.789 353.567 318.93 353.429C319.071 353.29 319.239 353.181 319.422 353.107C319.606 353.034 319.802 352.997 320 353C320.398 353 320.779 353.158 321.061 353.439C321.342 353.721 321.5 354.102 321.5 354.5C321.5 354.898 321.342 355.279 321.061 355.561C320.779 355.842 320.398 356 320 356C319.8 356.003 319.602 355.965 319.418 355.891C319.233 355.816 319.064 355.705 318.923 355.564C318.781 355.424 318.669 355.256 318.593 355.072C318.517 354.887 318.479 354.689 318.48 354.49ZM318.48 317.66C318.48 317.262 318.638 316.881 318.919 316.599C319.201 316.318 319.582 316.16 319.98 316.16C320.378 316.16 320.759 316.318 321.041 316.599C321.322 316.881 321.48 317.262 321.48 317.66C321.48 318.058 321.322 318.439 321.041 318.721C320.759 319.002 320.378 319.16 319.98 319.16C319.582 319.16 319.201 319.002 318.919 318.721C318.638 318.439 318.48 318.058 318.48 317.66ZM318.48 280.82C318.48 280.422 318.638 280.041 318.919 279.759C319.201 279.478 319.582 279.32 319.98 279.32C320.378 279.32 320.759 279.478 321.041 279.759C321.322 280.041 321.48 280.422 321.48 280.82C321.48 281.218 321.322 281.599 321.041 281.881C320.759 282.162 320.378 282.32 319.98 282.32C319.783 282.32 319.588 282.281 319.406 282.206C319.224 282.13 319.059 282.02 318.919 281.881C318.78 281.741 318.67 281.576 318.594 281.394C318.519 281.212 318.48 281.017 318.48 280.82ZM318.48 243.98C318.48 243.582 318.638 243.201 318.919 242.919C319.201 242.638 319.582 242.48 319.98 242.48C320.378 242.48 320.759 242.638 321.041 242.919C321.322 243.201 321.48 243.582 321.48 243.98C321.48 244.378 321.322 244.759 321.041 245.041C320.759 245.322 320.378 245.48 319.98 245.48C319.586 245.48 319.207 245.325 318.926 245.048C318.646 244.771 318.485 244.394 318.48 244V243.98ZM318.48 207.15C318.48 206.752 318.638 206.371 318.919 206.089C319.201 205.808 319.582 205.65 319.98 205.65C320.378 205.65 320.759 205.808 321.041 206.089C321.322 206.371 321.48 206.752 321.48 207.15C321.48 207.548 321.322 207.929 321.041 208.211C320.759 208.492 320.378 208.65 319.98 208.65C319.783 208.65 319.588 208.611 319.406 208.536C319.224 208.46 319.059 208.35 318.919 208.211C318.78 208.071 318.67 207.906 318.594 207.724C318.519 207.542 318.48 207.347 318.48 207.15Z" fill="white"/>
<path d="M320 171.81C319.803 171.811 319.608 171.772 319.426 171.697C319.244 171.621 319.078 171.51 318.94 171.37C318.866 171.303 318.802 171.225 318.75 171.14C318.697 171.06 318.651 170.977 318.61 170.89C318.569 170.798 318.542 170.7 318.53 170.6C318.52 170.504 318.52 170.406 318.53 170.31C318.532 169.913 318.69 169.532 318.97 169.25C319.036 169.179 319.11 169.115 319.19 169.06C319.271 169.007 319.359 168.963 319.45 168.93C319.54 168.891 319.634 168.861 319.73 168.84C319.925 168.8 320.125 168.8 320.32 168.84C320.416 168.861 320.51 168.891 320.6 168.93C320.691 168.963 320.779 169.007 320.86 169.06C320.941 169.118 321.018 169.181 321.09 169.25C321.37 169.532 321.527 169.913 321.53 170.31C321.54 170.406 321.54 170.504 321.53 170.6C321.509 170.699 321.479 170.796 321.44 170.89C321.403 170.978 321.356 171.062 321.3 171.14C321.252 171.225 321.191 171.303 321.12 171.37C320.973 171.516 320.798 171.63 320.605 171.706C320.413 171.781 320.207 171.817 320 171.81Z" fill="white"/>
<path d="M389.88 170.31C389.88 169.912 390.038 169.531 390.319 169.249C390.601 168.968 390.982 168.81 391.38 168.81C391.778 168.81 392.159 168.968 392.441 169.249C392.722 169.531 392.88 169.912 392.88 170.31C392.88 170.708 392.722 171.089 392.441 171.371C392.159 171.652 391.778 171.81 391.38 171.81C390.982 171.81 390.601 171.652 390.319 171.371C390.038 171.089 389.88 170.708 389.88 170.31ZM354.18 170.31C354.18 169.912 354.338 169.531 354.619 169.249C354.901 168.968 355.282 168.81 355.68 168.81C356.078 168.81 356.459 168.968 356.741 169.249C357.022 169.531 357.18 169.912 357.18 170.31C357.18 170.708 357.022 171.089 356.741 171.371C356.459 171.652 356.078 171.81 355.68 171.81C355.282 171.81 354.901 171.652 354.619 171.371C354.338 171.089 354.18 170.708 354.18 170.31Z" fill="white"/>
<path d="M427.08 171.81C426.984 171.82 426.886 171.82 426.79 171.81L426.51 171.73L426.25 171.59C426.169 171.532 426.092 171.469 426.02 171.4C425.739 171.119 425.58 170.738 425.58 170.34C425.582 169.943 425.74 169.562 426.02 169.28C426.09 169.212 426.167 169.151 426.25 169.1C426.329 169.04 426.416 168.993 426.51 168.96C426.6 168.92 426.694 168.889 426.79 168.87C426.985 168.83 427.185 168.83 427.38 168.87L427.66 168.96C427.75 168.993 427.835 169.04 427.91 169.1C427.995 169.148 428.073 169.209 428.14 169.28C428.42 169.562 428.577 169.943 428.58 170.34C428.58 170.738 428.421 171.119 428.14 171.4C428.07 171.471 427.993 171.535 427.91 171.59C427.83 171.643 427.747 171.689 427.66 171.73L427.38 171.81C427.28 171.82 427.18 171.82 427.08 171.81Z" fill="white"/>
<path d="M425.58 354.49C425.58 354.092 425.738 353.711 426.019 353.429C426.301 353.148 426.682 352.99 427.08 352.99C427.478 352.99 427.859 353.148 428.141 353.429C428.422 353.711 428.58 354.092 428.58 354.49C428.58 354.888 428.422 355.269 428.141 355.551C427.859 355.832 427.478 355.99 427.08 355.99C426.682 355.99 426.301 355.832 426.019 355.551C425.738 355.269 425.58 354.888 425.58 354.49ZM425.58 317.66C425.58 317.262 425.738 316.881 426.019 316.599C426.301 316.318 426.682 316.16 427.08 316.16C427.478 316.16 427.859 316.318 428.141 316.599C428.422 316.881 428.58 317.262 428.58 317.66C428.58 318.058 428.422 318.439 428.141 318.721C427.859 319.002 427.478 319.16 427.08 319.16C426.682 319.16 426.301 319.002 426.019 318.721C425.738 318.439 425.58 318.058 425.58 317.66ZM425.58 280.82C425.58 280.422 425.738 280.041 426.019 279.759C426.301 279.478 426.682 279.32 427.08 279.32C427.478 279.32 427.859 279.478 428.141 279.759C428.422 280.041 428.58 280.422 428.58 280.82C428.58 281.218 428.422 281.599 428.141 281.881C427.859 282.162 427.478 282.32 427.08 282.32C426.883 282.32 426.688 282.281 426.506 282.206C426.324 282.13 426.159 282.02 426.019 281.881C425.88 281.741 425.77 281.576 425.694 281.394C425.619 281.212 425.58 281.017 425.58 280.82ZM425.58 243.98C425.58 243.582 425.738 243.201 426.019 242.919C426.301 242.638 426.682 242.48 427.08 242.48C427.478 242.48 427.859 242.638 428.141 242.919C428.422 243.201 428.58 243.582 428.58 243.98C428.58 244.378 428.422 244.759 428.141 245.041C427.859 245.322 427.478 245.48 427.08 245.48C426.686 245.48 426.307 245.325 426.026 245.048C425.746 244.771 425.585 244.394 425.58 244V243.98ZM425.58 207.15C425.58 206.752 425.738 206.371 426.019 206.089C426.301 205.808 426.682 205.65 427.08 205.65C427.478 205.65 427.859 205.808 428.141 206.089C428.422 206.371 428.58 206.752 428.58 207.15C428.58 207.548 428.422 207.929 428.141 208.211C427.859 208.492 427.478 208.65 427.08 208.65C426.883 208.65 426.688 208.611 426.506 208.536C426.324 208.46 426.159 208.35 426.019 208.211C425.88 208.071 425.77 207.906 425.694 207.724C425.619 207.542 425.58 207.347 425.58 207.15Z" fill="white"/>
<path d="M427.08 392.83C426.783 392.83 426.494 392.742 426.247 392.577C426.001 392.412 425.809 392.178 425.695 391.904C425.582 391.63 425.552 391.329 425.61 391.038C425.668 390.747 425.81 390.48 426.02 390.27C426.092 390.201 426.169 390.138 426.25 390.08L426.51 389.94L426.79 389.86C426.985 389.82 427.185 389.82 427.38 389.86L427.66 389.94C427.747 389.981 427.83 390.027 427.91 390.08C427.993 390.135 428.07 390.199 428.14 390.27C428.421 390.551 428.58 390.932 428.58 391.33C428.582 391.527 428.544 391.723 428.469 391.905C428.393 392.087 428.281 392.252 428.14 392.39C427.859 392.671 427.478 392.83 427.08 392.83Z" fill="white"/>
<path d="M95 392.21H53.79V392.46H95V392.21Z" fill="#E0E0E0"/>
<path d="M179 390.21H137.67V390.46H179V390.21Z" fill="#E0E0E0"/>
<path d="M232.78 390.21H222.78V390.46H232.78V390.21Z" fill="#E0E0E0"/>
<path d="M132.83 398.75H86.58V399H132.83V398.75Z" fill="#E0E0E0"/>
<path d="M292.8 392.08H271.2V392.33H292.8V392.08Z" fill="#E0E0E0"/>
<path d="M329.63 392.08H301.7V392.33H329.63V392.08Z" fill="#E0E0E0"/>
<path d="M464.33 396.31H401.89V396.56H464.33V396.31Z" fill="#E0E0E0"/>
<path d="M233.41 87.6499H187.34L189.86 58.9399H235.92L233.41 87.6499Z" fill="#EBEBEB"/>
<path d="M234.34 55.04L233.08 70.03L231.82 88.05H187.52L190.04 55.04H234.34Z" fill="#FAFAFA"/>
<path d="M230.11 58.94L232.62 87.65H186.56L184.04 58.94H187.96L189.32 56.78H201.73L203.51 58.94H230.11Z" fill="#E0E0E0"/>
<path d="M304.81 94.0601H255.79V143.08H304.81V94.0601Z" fill="#EBEBEB"/>
<path d="M306.06 94.0601H304.81V143.08H306.06V94.0601Z" fill="#E0E0E0"/>
<path d="M300.27 98.6001H260.31V138.56H300.27V98.6001Z" fill="#F5F5F5"/>
<path d="M260.69 98.6001H260.32V138.56H260.69V98.6001Z" fill="#E0E0E0"/>
<path d="M280.67 124.35C284.972 124.35 288.46 119.909 288.46 114.43C288.46 108.951 284.972 104.51 280.67 104.51C276.368 104.51 272.88 108.951 272.88 114.43C272.88 119.909 276.368 124.35 280.67 124.35Z" fill="#E0E0E0"/>
<path d="M276.6 129.37H284.81V121.16H276.6V129.37Z" fill="#E0E0E0"/>
<path d="M295.47 138.56H265.39V135.76C265.39 133.203 266.406 130.751 268.214 128.944C270.021 127.136 272.473 126.12 275.03 126.12H285.87C288.427 126.12 290.879 127.136 292.686 128.944C294.494 130.751 295.51 133.203 295.51 135.76V138.56H295.47Z" fill="#E0E0E0"/>
<path d="M264.64 121.88C264.64 123.51 267.64 124.88 267.64 124.88C267.64 124.88 270.64 123.55 270.64 121.88C270.64 121.1 269.56 120.66 268.85 120.88C268.578 120.975 268.327 121.123 268.113 121.315C267.898 121.507 267.724 121.74 267.6 122C267.217 121.484 266.712 121.072 266.13 120.8C265.959 120.74 265.777 120.723 265.598 120.749C265.419 120.775 265.249 120.844 265.102 120.95C264.956 121.056 264.837 121.196 264.757 121.358C264.676 121.52 264.636 121.699 264.64 121.88Z" fill="#E0E0E0"/>
<path d="M291.26 114.59C291.26 116.74 295.15 118.48 295.15 118.48C295.15 118.48 299.04 116.74 299.04 114.59C299.04 113.59 297.6 113 296.69 113.26C296.004 113.534 295.451 114.065 295.15 114.74C294.643 114.066 293.981 113.524 293.22 113.16C292.995 113.08 292.753 113.057 292.517 113.091C292.28 113.126 292.056 113.217 291.863 113.358C291.67 113.499 291.514 113.685 291.409 113.899C291.304 114.114 291.253 114.351 291.26 114.59Z" fill="#E0E0E0"/>
<path d="M205.71 359.32C206.17 362.21 208.26 364.7 208.42 367.62C208.55 369.91 207.48 372.06 206.95 374.29C206.42 376.52 206.68 379.29 208.63 380.47C209.339 380.831 210.132 380.996 210.927 380.948C211.721 380.901 212.488 380.643 213.15 380.2C214.456 379.296 215.534 378.102 216.3 376.71C219.367 371.752 221.043 366.059 221.15 360.23C221.15 357.78 220.9 355.18 219.46 353.23C215 347 204.57 352.12 205.71 359.32Z" fill="#F5F5F5"/>
<path d="M202 351.67C202.43 352.14 202.991 352.471 203.61 352.62C203.985 352.742 204.384 352.766 204.771 352.691C205.157 352.616 205.518 352.443 205.82 352.19C206.05 351.895 206.213 351.553 206.299 351.189C206.386 350.825 206.393 350.447 206.32 350.08C206.259 349.159 205.944 348.273 205.41 347.52C205.142 347.149 204.786 346.849 204.374 346.649C203.963 346.448 203.508 346.352 203.05 346.37C202.593 346.408 202.163 346.601 201.832 346.918C201.5 347.234 201.288 347.655 201.23 348.11C201.119 349.347 201.387 350.589 202 351.67Z" fill="#F5F5F5"/>
<path d="M210.31 345.66C210.106 345.344 209.813 345.095 209.468 344.943C209.123 344.792 208.741 344.746 208.37 344.81C208.003 344.892 207.669 345.083 207.412 345.358C207.155 345.633 206.987 345.978 206.93 346.35C206.914 346.593 206.914 346.837 206.93 347.08C206.934 347.473 206.977 347.865 207.06 348.25C207.144 348.621 207.319 348.965 207.57 349.25C207.913 349.584 208.349 349.807 208.82 349.89C209.112 349.96 209.416 349.958 209.707 349.885C209.997 349.812 210.266 349.67 210.49 349.47C210.689 349.228 210.838 348.948 210.927 348.648C211.016 348.347 211.044 348.032 211.01 347.72C210.987 346.979 210.743 346.262 210.31 345.66Z" fill="#F5F5F5"/>
<path d="M214.94 345.41C214.776 345.108 214.509 344.876 214.188 344.754C213.867 344.633 213.512 344.632 213.19 344.75C212.875 344.881 212.598 345.087 212.382 345.35C212.165 345.614 212.017 345.926 211.95 346.26C211.95 346.48 211.89 346.7 211.88 346.92C211.874 347.284 211.914 347.647 212 348C212.072 348.348 212.254 348.664 212.52 348.9C212.804 349.137 213.152 349.284 213.52 349.32C213.76 349.349 214.003 349.326 214.232 349.252C214.462 349.178 214.673 349.054 214.85 348.89C215.239 348.448 215.452 347.879 215.45 347.29C215.494 346.624 215.314 345.963 214.94 345.41Z" fill="#F5F5F5"/>
<path d="M219.07 346.37C218.58 345.64 218.07 345.59 217.51 345.9C217.012 346.264 216.658 346.791 216.51 347.39C216.454 347.583 216.414 347.78 216.39 347.98C216.336 348.311 216.336 348.649 216.39 348.98C216.455 349.3 216.641 349.583 216.91 349.77C217.158 349.925 217.449 349.995 217.74 349.97C218.118 349.936 218.473 349.77 218.74 349.5C219.108 349.105 219.342 348.605 219.41 348.07C219.511 347.481 219.39 346.875 219.07 346.37Z" fill="#F5F5F5"/>
<path d="M219.88 350.42C219.825 350.657 219.825 350.903 219.88 351.14C219.9 351.261 219.95 351.376 220.025 351.474C220.1 351.571 220.198 351.649 220.31 351.7C220.514 351.747 220.728 351.732 220.924 351.657C221.119 351.582 221.289 351.451 221.41 351.28C221.706 350.977 221.922 350.606 222.04 350.2C222.098 349.997 222.115 349.784 222.089 349.575C222.064 349.365 221.996 349.163 221.89 348.98C221 347.53 220 349.7 219.88 350.42Z" fill="#F5F5F5"/>
<path d="M220.69 426.11C221.36 423.75 221.75 421.16 220.86 418.87C218.11 411.74 206.75 414.01 206 421.27L220.69 426.11Z" fill="#F5F5F5"/>
<path d="M204.42 412.93C204.717 413.496 205.177 413.959 205.74 414.26C206.07 414.474 206.449 414.599 206.841 414.626C207.232 414.652 207.625 414.578 207.98 414.41C208.272 414.18 208.512 413.891 208.685 413.562C208.857 413.233 208.958 412.871 208.98 412.5C209.157 411.597 209.08 410.663 208.76 409.8C208.594 409.37 208.325 408.987 207.976 408.685C207.627 408.383 207.21 408.172 206.76 408.07C206.31 407.99 205.847 408.067 205.446 408.287C205.046 408.507 204.733 408.858 204.56 409.28C204.146 410.455 204.097 411.727 204.42 412.93Z" fill="#F5F5F5"/>
<path d="M214 409.24C213.881 408.883 213.661 408.567 213.366 408.333C213.072 408.099 212.715 407.955 212.34 407.92C211.964 407.907 211.593 408.007 211.274 408.207C210.955 408.406 210.703 408.696 210.55 409.04C210.462 409.268 210.388 409.502 210.33 409.74C210.229 410.119 210.169 410.508 210.15 410.9C210.125 411.29 210.204 411.68 210.38 412.03C210.617 412.43 210.964 412.752 211.38 412.96C211.643 413.1 211.937 413.173 212.235 413.173C212.533 413.173 212.827 413.1 213.09 412.96C213.352 412.782 213.576 412.553 213.748 412.287C213.92 412.02 214.036 411.722 214.09 411.41C214.269 410.693 214.238 409.94 214 409.24Z" fill="#F5F5F5"/>
<path d="M218.5 410.19C218.418 409.861 218.223 409.571 217.949 409.372C217.674 409.172 217.338 409.076 217 409.1C216.662 409.149 216.34 409.279 216.063 409.479C215.786 409.679 215.562 409.944 215.41 410.25C215.32 410.449 215.24 410.653 215.17 410.86C215.057 411.2 214.99 411.553 214.97 411.91C214.95 412.262 215.041 412.612 215.23 412.91C215.451 413.223 215.767 413.458 216.13 413.58C216.355 413.671 216.597 413.711 216.839 413.697C217.081 413.683 217.317 413.616 217.53 413.5C218.021 413.178 218.377 412.687 218.53 412.12C218.733 411.491 218.722 410.813 218.5 410.19Z" fill="#F5F5F5"/>
<path d="M222.24 412.18C221.96 411.34 221.43 411.18 220.86 411.32C220.277 411.537 219.789 411.951 219.48 412.49C219.38 412.665 219.29 412.845 219.21 413.03C219.088 413.33 219.013 413.647 218.99 413.97C218.971 414.293 219.074 414.61 219.28 414.86C219.478 415.075 219.742 415.219 220.03 415.27C220.404 415.343 220.792 415.275 221.12 415.08C221.571 414.79 221.92 414.367 222.12 413.87C222.364 413.34 222.407 412.739 222.24 412.18Z" fill="#F5F5F5"/>
<path d="M222 416.3C221.878 416.511 221.806 416.747 221.79 416.99C221.78 417.112 221.799 417.235 221.846 417.348C221.893 417.461 221.967 417.561 222.06 417.64C222.245 417.738 222.455 417.779 222.663 417.757C222.871 417.736 223.069 417.653 223.23 417.52C223.592 417.301 223.897 416.999 224.12 416.64C224.228 416.458 224.299 416.257 224.328 416.047C224.357 415.838 224.344 415.624 224.29 415.42C223.77 413.79 222.32 415.65 222 416.3Z" fill="#F5F5F5"/>
<path d="M181.27 383.66C181.64 386.57 180.27 389.54 180.97 392.39C181.48 394.62 183.11 396.39 184.23 398.39C185.35 400.39 185.88 403.11 184.32 404.79C183.741 405.335 183.027 405.714 182.251 405.89C181.476 406.066 180.668 406.031 179.91 405.79C178.405 405.274 177.037 404.423 175.91 403.3C171.591 399.386 168.406 394.38 166.69 388.81C165.97 386.46 165.53 383.89 166.37 381.58C169 374.39 180.38 376.43 181.27 383.66Z" fill="#F5F5F5"/>
<path d="M182.68 375.3C182.399 375.869 181.953 376.339 181.4 376.65C181.075 376.873 180.699 377.009 180.306 377.044C179.914 377.079 179.519 377.012 179.16 376.85C178.855 376.631 178.602 376.349 178.417 376.023C178.233 375.696 178.121 375.334 178.09 374.96C177.897 374.059 177.952 373.122 178.25 372.25C178.412 371.814 178.679 371.425 179.028 371.118C179.377 370.811 179.797 370.595 180.25 370.49C180.698 370.399 181.164 370.465 181.57 370.676C181.976 370.887 182.297 371.231 182.48 371.65C182.76 372.58 183.11 374.39 182.68 375.3Z" fill="#F5F5F5"/>
<path d="M173.07 371.81C173.18 371.449 173.393 371.129 173.682 370.887C173.972 370.646 174.326 370.494 174.7 370.45C175.076 370.431 175.449 370.524 175.772 370.718C176.094 370.913 176.351 371.199 176.51 371.54C176.607 371.764 176.687 371.994 176.75 372.23C176.858 372.605 176.925 372.991 176.95 373.38C176.986 373.772 176.914 374.167 176.74 374.52C176.518 374.948 176.168 375.298 175.74 375.52C175.483 375.671 175.192 375.756 174.894 375.768C174.596 375.781 174.299 375.719 174.03 375.59C173.769 375.413 173.546 375.186 173.374 374.921C173.202 374.657 173.085 374.36 173.03 374.05C172.813 373.317 172.827 372.535 173.07 371.81Z" fill="#F5F5F5"/>
<path d="M168.55 372.85C168.624 372.514 168.816 372.216 169.091 372.01C169.367 371.805 169.707 371.705 170.05 371.73C170.388 371.771 170.711 371.894 170.991 372.087C171.272 372.281 171.501 372.539 171.66 372.84C171.756 373.038 171.84 373.242 171.91 373.45C172.032 373.788 172.11 374.141 172.14 374.5C172.16 374.851 172.073 375.2 171.89 375.5C171.677 375.817 171.369 376.059 171.01 376.19C170.788 376.286 170.547 376.332 170.304 376.323C170.062 376.314 169.825 376.252 169.61 376.14C169.121 375.825 168.765 375.341 168.61 374.78C168.378 374.161 168.357 373.482 168.55 372.85Z" fill="#F5F5F5"/>
<path d="M164.85 374.92C165.12 374.08 165.64 373.92 166.22 374.03C166.807 374.238 167.302 374.645 167.62 375.18C167.725 375.35 167.818 375.527 167.9 375.71C168.035 376.003 168.116 376.318 168.14 376.64C168.172 376.964 168.075 377.287 167.87 377.54C167.676 377.758 167.416 377.906 167.13 377.96C166.756 378.043 166.365 377.986 166.03 377.8C165.566 377.521 165.199 377.105 164.98 376.61C164.733 376.081 164.687 375.481 164.85 374.92Z" fill="#F5F5F5"/>
<path d="M165.19 379C165.314 379.212 165.392 379.447 165.42 379.69C165.431 379.813 165.413 379.936 165.368 380.051C165.323 380.166 165.252 380.268 165.16 380.35C164.975 380.449 164.765 380.492 164.555 380.474C164.346 380.457 164.146 380.379 163.98 380.25C163.614 380.042 163.305 379.746 163.08 379.39C162.966 379.211 162.891 379.01 162.858 378.8C162.826 378.59 162.836 378.376 162.89 378.17C163.36 376.56 164.85 378.39 165.19 379Z" fill="#F5F5F5"/>
<path d="M156.73 143.59C154.429 143.913 152.083 143.547 149.99 142.538C147.897 141.528 146.15 139.92 144.97 137.918C143.791 135.916 143.231 133.608 143.363 131.288C143.495 128.968 144.312 126.739 145.71 124.883C147.109 123.027 149.027 121.627 151.221 120.861C153.415 120.095 155.787 119.997 158.037 120.579C160.287 121.161 162.313 122.397 163.861 124.131C165.408 125.865 166.407 128.019 166.73 130.32C167.158 133.405 166.346 136.534 164.471 139.021C162.597 141.508 159.813 143.151 156.73 143.59ZM154.35 126.49C153.27 126.639 152.259 127.105 151.444 127.828C150.629 128.552 150.047 129.501 149.771 130.556C149.496 131.611 149.539 132.723 149.896 133.753C150.254 134.783 150.908 135.684 151.777 136.342C152.646 137 153.691 137.385 154.779 137.449C155.867 137.513 156.95 137.252 157.89 136.701C158.831 136.149 159.586 135.331 160.061 134.35C160.536 133.369 160.71 132.27 160.56 131.19C160.357 129.745 159.589 128.439 158.425 127.558C157.261 126.677 155.796 126.293 154.35 126.49Z" fill="#E0E0E0"/>
<path d="M152.325 96.9032L147.908 97.52L151.876 125.934L156.293 125.317L152.325 96.9032Z" fill="#E0E0E0"/>
<path d="M156.062 92.9483L147.775 94.1201L148.4 98.5355L156.686 97.3637L156.062 92.9483Z" fill="#E0E0E0"/>
<path d="M156.743 98.9553L148.948 100.042L149.564 104.46L157.359 103.373L156.743 98.9553Z" fill="#E0E0E0"/>
<path d="M157.879 106.963L151.075 107.912L151.691 112.329L158.495 111.38L157.879 106.963Z" fill="#E0E0E0"/>
<path d="M250 442.59C357.082 442.59 443.89 437.522 443.89 431.27C443.89 425.018 357.082 419.95 250 419.95C142.917 419.95 56.11 425.018 56.11 431.27C56.11 437.522 142.917 442.59 250 442.59Z" fill="#F5F5F5"/>
<path d="M147.47 243.276C156.69 233.645 155.645 217.683 145.136 207.624C134.628 197.564 118.635 197.216 109.416 206.847C100.197 216.478 101.242 232.44 111.75 242.499C122.258 252.559 138.251 252.907 147.47 243.276Z" fill="#E50E0E"/>
<g opacity="0.8">
<path opacity="0.8" d="M147.47 243.276C156.69 233.645 155.645 217.683 145.136 207.624C134.628 197.564 118.635 197.216 109.416 206.847C100.197 216.478 101.242 232.44 111.75 242.499C122.258 252.559 138.251 252.907 147.47 243.276Z" fill="white"/>
</g>
<path d="M116.69 209.24C116.48 209.24 116.276 209.174 116.105 209.051C115.935 208.928 115.808 208.755 115.741 208.556C115.675 208.357 115.673 208.142 115.735 207.942C115.798 207.741 115.922 207.566 116.09 207.44C119.457 205.023 123.516 203.76 127.66 203.84C127.925 203.84 128.18 203.945 128.367 204.133C128.555 204.32 128.66 204.575 128.66 204.84C128.66 205.105 128.555 205.36 128.367 205.547C128.18 205.735 127.925 205.84 127.66 205.84C123.948 205.758 120.31 206.881 117.29 209.04C117.117 209.17 116.906 209.24 116.69 209.24Z" fill="#E50E0E"/>
<path d="M121.42 243.64C121.256 243.639 121.094 243.598 120.95 243.52C117.885 241.881 115.226 239.578 113.167 236.778C111.108 233.978 109.701 230.754 109.05 227.34C108.415 224.387 108.444 221.33 109.136 218.39C109.828 215.449 111.165 212.7 113.05 210.34C113.22 210.136 113.464 210.007 113.728 209.983C113.993 209.959 114.256 210.04 114.46 210.21C114.664 210.38 114.793 210.624 114.817 210.888C114.841 211.153 114.76 211.416 114.59 211.62C112.887 213.756 111.681 216.245 111.06 218.905C110.439 221.565 110.418 224.331 111 227C111.599 230.121 112.887 233.068 114.769 235.629C116.651 238.189 119.08 240.297 121.88 241.8C122.076 241.906 122.23 242.073 122.32 242.276C122.41 242.48 122.429 242.707 122.375 242.923C122.321 243.138 122.197 243.33 122.022 243.467C121.848 243.604 121.632 243.679 121.41 243.68L121.42 243.64Z" fill="#E50E0E"/>
<path d="M131.43 246.25C129.192 246.24 126.968 245.883 124.84 245.19C124.715 245.149 124.598 245.084 124.498 244.999C124.398 244.913 124.315 244.809 124.255 244.691C124.196 244.574 124.159 244.446 124.149 244.314C124.139 244.183 124.154 244.05 124.195 243.925C124.236 243.8 124.301 243.683 124.386 243.583C124.472 243.483 124.576 243.4 124.694 243.341C124.811 243.281 124.939 243.244 125.071 243.234C125.202 243.224 125.335 243.239 125.46 243.28C131.61 245.28 137.75 244.16 142.3 240.28C144.608 238.243 146.353 235.645 147.365 232.737C148.378 229.83 148.624 226.71 148.08 223.68C148.038 223.415 148.102 223.144 148.26 222.926C148.417 222.709 148.655 222.562 148.92 222.52C149.185 222.478 149.456 222.542 149.674 222.7C149.891 222.857 150.038 223.095 150.08 223.36C150.686 226.727 150.411 230.194 149.281 233.424C148.15 236.653 146.204 239.536 143.63 241.79C140.239 244.707 135.903 246.292 131.43 246.25Z" fill="#E50E0E"/>
<path d="M148.25 221.12C148.038 221.119 147.832 221.051 147.661 220.925C147.49 220.799 147.364 220.622 147.3 220.42C146.38 217.58 144.874 214.966 142.879 212.745C140.884 210.524 138.445 208.748 135.72 207.53C135.476 207.424 135.284 207.225 135.187 206.978C135.089 206.73 135.094 206.454 135.2 206.21C135.306 205.966 135.505 205.774 135.752 205.677C136 205.579 136.276 205.584 136.52 205.69C139.505 207.024 142.176 208.971 144.36 211.403C146.544 213.836 148.193 216.7 149.2 219.81C149.282 220.062 149.261 220.336 149.141 220.573C149.021 220.809 148.812 220.988 148.56 221.07C148.459 221.101 148.355 221.117 148.25 221.12Z" fill="#E50E0E"/>
<path d="M132.49 206.4C132.414 206.411 132.336 206.411 132.26 206.4C130.755 206.05 129.215 205.872 127.67 205.87C127.405 205.87 127.15 205.765 126.963 205.577C126.775 205.39 126.67 205.135 126.67 204.87C126.67 204.605 126.775 204.351 126.963 204.163C127.15 203.975 127.405 203.87 127.67 203.87C129.354 203.875 131.031 204.073 132.67 204.46C132.935 204.491 133.177 204.625 133.343 204.834C133.509 205.043 133.586 205.31 133.555 205.575C133.525 205.84 133.39 206.083 133.181 206.249C132.972 206.415 132.705 206.491 132.44 206.46L132.49 206.4Z" fill="#E50E0E"/>
<path d="M114.85 230.29C114.646 230.291 114.446 230.229 114.278 230.113C114.11 229.996 113.982 229.832 113.91 229.64C112.973 227.22 112.643 224.608 112.95 222.031C113.257 219.454 114.191 216.992 115.67 214.86C117.068 212.84 118.941 211.195 121.124 210.069C123.307 208.942 125.734 208.369 128.19 208.4C128.455 208.4 128.71 208.505 128.897 208.693C129.085 208.881 129.19 209.135 129.19 209.4C129.19 209.665 129.085 209.92 128.897 210.107C128.71 210.295 128.455 210.4 128.19 210.4C126.056 210.375 123.948 210.872 122.05 211.848C120.152 212.824 118.521 214.25 117.3 216C116.003 217.878 115.187 220.045 114.923 222.312C114.66 224.579 114.958 226.875 115.79 229C115.881 229.248 115.869 229.522 115.759 229.762C115.648 230.002 115.447 230.188 115.2 230.28C115.085 230.303 114.966 230.306 114.85 230.29Z" fill="#E50E0E"/>
<path d="M130.71 241.71C127.713 241.61 124.784 240.787 122.172 239.313C119.561 237.838 117.344 235.755 115.71 233.24C115.589 233.019 115.555 232.76 115.616 232.516C115.678 232.271 115.829 232.059 116.04 231.921C116.251 231.783 116.506 231.73 116.755 231.773C117.003 231.815 117.227 231.95 117.38 232.15C118.832 234.387 120.802 236.242 123.122 237.558C125.442 238.874 128.045 239.612 130.71 239.71C130.975 239.71 131.23 239.815 131.417 240.003C131.605 240.19 131.71 240.445 131.71 240.71C131.71 240.975 131.605 241.23 131.417 241.417C131.23 241.605 130.975 241.71 130.71 241.71Z" fill="#E50E0E"/>
<path d="M134.45 241.28C134.222 241.287 133.998 241.215 133.816 241.076C133.634 240.938 133.505 240.742 133.45 240.52C133.387 240.263 133.428 239.991 133.565 239.764C133.702 239.537 133.923 239.374 134.18 239.31C142.29 237.31 144.39 230.2 143.72 224.74C142.85 217.62 137.23 210.41 128.16 210.4C127.895 210.4 127.64 210.295 127.453 210.107C127.265 209.919 127.16 209.665 127.16 209.4C127.16 209.135 127.265 208.88 127.453 208.693C127.64 208.505 127.895 208.4 128.16 208.4C138.39 208.4 144.73 216.5 145.71 224.5C146.71 232.75 142.38 239.33 134.66 241.25C134.591 241.267 134.521 241.277 134.45 241.28Z" fill="#E50E0E"/>
<path d="M124.1 215.92C123.91 215.919 123.725 215.863 123.566 215.761C123.406 215.658 123.28 215.512 123.2 215.34C123.087 215.1 123.075 214.825 123.165 214.576C123.255 214.326 123.44 214.123 123.68 214.01C125.213 213.332 126.874 212.991 128.55 213.01C128.815 213.01 129.07 213.115 129.257 213.303C129.445 213.49 129.55 213.745 129.55 214.01C129.55 214.275 129.445 214.53 129.257 214.717C129.07 214.905 128.815 215.01 128.55 215.01C127.17 215.011 125.806 215.308 124.55 215.88C124.405 215.928 124.251 215.941 124.1 215.92Z" fill="#E50E0E"/>
<path d="M130.53 237.05C127.997 237.009 125.529 236.244 123.419 234.844C121.308 233.443 119.642 231.468 118.62 229.15C116.55 224.64 117.16 219.93 120.25 216.53C120.429 216.336 120.678 216.22 120.943 216.209C121.207 216.198 121.465 216.292 121.66 216.47C121.854 216.649 121.97 216.898 121.981 217.163C121.992 217.427 121.899 217.685 121.72 217.88C120.477 219.285 119.69 221.034 119.462 222.896C119.233 224.758 119.574 226.646 120.44 228.31C121.324 230.33 122.782 232.046 124.632 233.244C126.483 234.442 128.645 235.07 130.85 235.05C132.518 235.038 134.147 234.543 135.54 233.626C136.933 232.709 138.03 231.408 138.7 229.88C139.453 228.078 139.68 226.1 139.354 224.174C139.029 222.248 138.164 220.454 136.86 219C136.775 218.9 136.71 218.785 136.669 218.66C136.628 218.535 136.613 218.403 136.623 218.272C136.633 218.141 136.669 218.014 136.729 217.897C136.788 217.78 136.87 217.675 136.97 217.59C137.07 217.505 137.185 217.44 137.31 217.399C137.435 217.359 137.567 217.343 137.698 217.353C137.829 217.363 137.956 217.399 138.073 217.459C138.19 217.518 138.295 217.6 138.38 217.7C139.932 219.441 140.958 221.587 141.339 223.888C141.72 226.19 141.439 228.552 140.53 230.7C139.709 232.574 138.365 234.171 136.659 235.3C134.952 236.428 132.956 237.039 130.91 237.06L130.53 237.05Z" fill="#E50E0E"/>
<path d="M134.74 216.8C134.551 216.801 134.367 216.745 134.21 216.64C132.521 215.553 130.558 214.97 128.55 214.96C128.285 214.96 128.03 214.855 127.843 214.667C127.655 214.48 127.55 214.225 127.55 213.96C127.55 213.695 127.655 213.44 127.843 213.253C128.03 213.065 128.285 212.96 128.55 212.96C130.938 212.969 133.274 213.663 135.28 214.96C135.461 215.077 135.6 215.249 135.675 215.452C135.75 215.654 135.758 215.875 135.697 216.082C135.636 216.288 135.51 216.47 135.338 216.6C135.165 216.729 134.956 216.799 134.74 216.8Z" fill="#E50E0E"/>
<path d="M130 232.54C128.832 232.532 127.679 232.269 126.623 231.767C125.568 231.266 124.635 230.54 123.89 229.64C122.929 228.54 122.305 227.187 122.092 225.741C121.879 224.296 122.087 222.82 122.69 221.49C123.228 220.283 124.11 219.26 125.224 218.549C126.339 217.838 127.638 217.469 128.96 217.49C129.225 217.49 129.48 217.595 129.667 217.783C129.855 217.971 129.96 218.225 129.96 218.49C129.96 218.755 129.855 219.01 129.667 219.197C129.48 219.385 129.225 219.49 128.96 219.49C128.025 219.473 127.105 219.73 126.314 220.229C125.524 220.728 124.896 221.448 124.51 222.3C124.07 223.282 123.922 224.37 124.084 225.434C124.245 226.498 124.709 227.493 125.42 228.3C126.128 229.168 127.068 229.816 128.13 230.17C129.192 230.524 130.333 230.569 131.42 230.3C132.304 230.101 133.113 229.652 133.749 229.007C134.386 228.362 134.823 227.547 135.01 226.66C135.067 226.402 135.225 226.177 135.448 226.034C135.671 225.892 135.941 225.843 136.2 225.9C136.329 225.927 136.451 225.98 136.56 226.055C136.668 226.129 136.761 226.225 136.832 226.335C136.904 226.446 136.953 226.569 136.976 226.699C137 226.828 136.998 226.961 136.97 227.09C136.705 228.342 136.088 229.491 135.192 230.404C134.295 231.316 133.157 231.953 131.91 232.24C131.288 232.416 130.646 232.516 130 232.54Z" fill="#E50E0E"/>
<path d="M135.82 224.62C135.599 224.63 135.382 224.567 135.201 224.44C135.02 224.314 134.886 224.131 134.82 223.92C134.421 222.667 133.641 221.57 132.589 220.781C131.537 219.992 130.265 219.552 128.95 219.52C128.685 219.52 128.43 219.415 128.243 219.227C128.055 219.04 127.95 218.785 127.95 218.52C127.95 218.255 128.055 218 128.243 217.813C128.43 217.625 128.685 217.52 128.95 217.52C130.689 217.559 132.372 218.138 133.766 219.177C135.161 220.217 136.196 221.665 136.73 223.32C136.77 223.445 136.786 223.578 136.775 223.709C136.764 223.84 136.727 223.968 136.667 224.085C136.606 224.202 136.524 224.306 136.423 224.391C136.322 224.476 136.206 224.54 136.08 224.58C135.995 224.605 135.908 224.618 135.82 224.62Z" fill="#E50E0E"/>
<path d="M130.27 228.38C130.005 228.38 129.75 228.275 129.563 228.087C129.375 227.9 129.27 227.645 129.27 227.38C129.27 227.115 129.375 226.86 129.563 226.673C129.75 226.485 130.005 226.38 130.27 226.38C130.407 226.38 130.542 226.353 130.667 226.299C130.792 226.245 130.906 226.166 130.999 226.066C131.093 225.967 131.165 225.85 131.212 225.721C131.258 225.593 131.278 225.456 131.27 225.32C131.275 225.125 131.242 224.932 131.172 224.75C131.101 224.568 130.996 224.402 130.861 224.262C130.726 224.121 130.564 224.009 130.386 223.931C130.207 223.854 130.015 223.813 129.82 223.81C129.673 223.814 129.529 223.847 129.395 223.907C129.261 223.967 129.14 224.053 129.04 224.16C128.938 224.281 128.86 224.421 128.812 224.572C128.764 224.723 128.746 224.882 128.76 225.04C128.768 225.171 128.75 225.303 128.707 225.427C128.664 225.552 128.597 225.666 128.51 225.765C128.422 225.863 128.316 225.943 128.198 226.001C128.08 226.059 127.951 226.092 127.82 226.1C127.689 226.108 127.557 226.09 127.433 226.047C127.308 226.004 127.194 225.937 127.095 225.85C126.997 225.762 126.917 225.656 126.859 225.538C126.802 225.42 126.768 225.291 126.76 225.16C126.724 224.74 126.775 224.318 126.909 223.919C127.042 223.519 127.256 223.151 127.537 222.838C127.818 222.524 128.16 222.271 128.542 222.094C128.925 221.918 129.339 221.821 129.76 221.81C130.218 221.811 130.671 221.903 131.093 222.081C131.515 222.259 131.897 222.518 132.218 222.845C132.539 223.171 132.792 223.558 132.962 223.983C133.132 224.408 133.217 224.862 133.21 225.32C133.218 225.719 133.146 226.116 132.999 226.487C132.852 226.857 132.632 227.195 132.353 227.48C132.073 227.765 131.74 227.992 131.372 228.146C131.004 228.301 130.609 228.38 130.21 228.38H130.27Z" fill="#E50E0E"/>
<path d="M156 225.05C157.22 238.98 146.91 250.27 133 250.27H131.92C145.18 249.59 154.81 238.57 153.63 225.08C152.949 218.477 149.954 212.327 145.176 207.719C140.397 203.111 134.144 200.342 127.52 199.9C127.87 199.9 128.23 199.9 128.59 199.9C142.54 199.84 154.82 211.13 156 225.05Z" fill="#E50E0E"/>
<g opacity="0.4">
<path opacity="0.4" d="M156 225.05C157.22 238.98 146.91 250.27 133 250.27H131.92C145.18 249.59 154.81 238.57 153.63 225.08C152.949 218.477 149.954 212.327 145.176 207.719C140.397 203.111 134.144 200.342 127.52 199.9C127.87 199.9 128.23 199.9 128.59 199.9C142.54 199.84 154.82 211.13 156 225.05Z" fill="white"/>
</g>
<path d="M176.42 102.14C176.445 102.438 176.485 102.736 176.54 103.03C176.917 104.957 177.906 106.71 179.36 108.03C181.007 109.572 183.174 110.44 185.43 110.46H269.92C270.906 110.48 271.887 110.303 272.804 109.941C273.721 109.579 274.558 109.037 275.264 108.349C275.97 107.66 276.533 106.838 276.918 105.93C277.304 105.022 277.505 104.046 277.51 103.06C277.525 102.763 277.525 102.466 277.51 102.17C277.274 99.931 276.23 97.8547 274.574 96.3304C272.917 94.8062 270.761 93.9384 268.51 93.89H184C182.941 93.8685 181.889 94.0728 180.914 94.489C179.94 94.9053 179.065 95.5241 178.348 96.3044C177.631 97.0847 177.089 98.0086 176.756 99.0147C176.424 100.021 176.309 101.086 176.42 102.14Z" fill="#E50E0E"/>
<path opacity="0.8" d="M176.42 102.14C176.445 102.438 176.485 102.736 176.54 103.03C176.917 104.957 177.906 106.71 179.36 108.03C181.007 109.572 183.174 110.44 185.43 110.46H269.92C270.906 110.48 271.887 110.303 272.804 109.941C273.721 109.579 274.558 109.037 275.264 108.349C275.97 107.66 276.533 106.838 276.918 105.93C277.304 105.022 277.505 104.046 277.51 103.06C277.525 102.763 277.525 102.466 277.51 102.17C277.274 99.931 276.23 97.8547 274.574 96.3304C272.917 94.8062 270.761 93.9384 268.51 93.89H184C182.941 93.8685 181.889 94.0728 180.914 94.489C179.94 94.9053 179.065 95.5241 178.348 96.3044C177.631 97.0847 177.089 98.0086 176.756 99.0147C176.424 100.021 176.309 101.086 176.42 102.14Z" fill="white"/>
<path d="M277.51 103C277.51 103.268 277.49 103.535 277.45 103.8C277.152 101.612 276.081 99.6022 274.43 98.1349C272.779 96.6676 270.658 95.8394 268.45 95.7999L178.62 95.9999C179.332 95.3072 180.174 94.7617 181.097 94.3945C182.02 94.0273 183.007 93.8456 184 93.8599H268.49C270.741 93.9084 272.897 94.7761 274.554 96.3004C276.21 97.8247 277.254 99.9009 277.49 102.14C277.511 102.426 277.517 102.713 277.51 103Z" fill="#E50E0E"/>
<path opacity="0.5" d="M277.51 103C277.51 103.268 277.49 103.535 277.45 103.8C277.152 101.612 276.081 99.6022 274.43 98.1349C272.779 96.6676 270.658 95.8394 268.45 95.7999L178.62 95.9999C179.332 95.3072 180.174 94.7617 181.097 94.3945C182.02 94.0273 183.007 93.8456 184 93.8599H268.49C270.741 93.9084 272.897 94.7761 274.554 96.3004C276.21 97.8247 277.254 99.9009 277.49 102.14C277.511 102.426 277.517 102.713 277.51 103Z" fill="white"/>
<path d="M263 97.8601L263.36 101.86L267.12 100.46L268.01 102.46L264.17 103.74L266.93 107.13L265.2 108.4L262.51 104.88L260.51 108.4L258.62 107.13L260.75 103.74L256.75 102.46L257.29 100.46L261.34 101.81L260.98 97.8101L263 97.8601Z" fill="#E50E0E"/>
<path d="M239.85 97.8598L240.21 101.86L243.97 100.46L244.87 102.46L241 103.77L243.76 107.16L242.04 108.43L239.35 104.91L237.35 108.43L235.45 107.16L237.59 103.77L233.59 102.49L234.13 100.49L238.18 101.84L237.83 97.8398L239.85 97.8598Z" fill="#E50E0E"/>
<path d="M216.75 97.8598L217.1 101.86L220.86 100.46L221.76 102.46L217.91 103.74L220.67 107.13L219 108.43L216.31 104.91L214.31 108.43L212.42 107.16L214.55 103.77L210.55 102.49L211.1 100.49L215.1 101.84L214.75 97.8398L216.75 97.8598Z" fill="#E50E0E"/>
<path d="M193.64 97.8601L193.99 101.86L197.76 100.46L198.65 102.46L194.8 103.74L197.57 107.13L195.84 108.4L193.15 104.88L191.15 108.4L189.26 107.13L191.39 103.74L187.39 102.46L187.93 100.46L191.93 101.81L191.58 97.8101L193.64 97.8601Z" fill="#E50E0E"/>
<path d="M249.65 89.9399H245.71V90.9399H249.65V89.9399Z" fill="#E50E0E"/>
<path d="M266.58 89.9399H253.73V90.9399H266.58V89.9399Z" fill="#E50E0E"/>
<path opacity="0.8" d="M397.79 127.24L393.7 174C393.542 175.492 392.846 176.876 391.742 177.892C390.637 178.908 389.2 179.487 387.7 179.52H355.23C354.527 179.524 353.832 179.379 353.188 179.096C352.545 178.813 351.969 178.398 351.497 177.877C351.025 177.356 350.669 176.741 350.45 176.073C350.232 175.405 350.157 174.699 350.23 174L354.32 127.23C354.471 125.735 355.166 124.348 356.272 123.33C357.377 122.313 358.818 121.737 360.32 121.71H392.79C393.494 121.706 394.19 121.851 394.834 122.134C395.478 122.418 396.055 122.835 396.527 123.357C396.999 123.879 397.355 124.494 397.573 125.164C397.791 125.833 397.865 126.54 397.79 127.24Z" fill="#374988"/>
<path opacity="0.8" d="M397.79 127.24L393.7 174C393.542 175.492 392.846 176.876 391.742 177.892C390.637 178.908 389.2 179.487 387.7 179.52H355.23C354.527 179.524 353.832 179.379 353.188 179.096C352.545 178.813 351.969 178.398 351.497 177.877C351.025 177.356 350.669 176.741 350.45 176.073C350.232 175.405 350.157 174.699 350.23 174L354.32 127.23C354.471 125.735 355.166 124.348 356.272 123.33C357.377 122.313 358.818 121.737 360.32 121.71H392.79C393.494 121.706 394.19 121.851 394.834 122.134C395.478 122.418 396.055 122.835 396.527 123.357C396.999 123.879 397.355 124.494 397.573 125.164C397.791 125.833 397.865 126.54 397.79 127.24Z" fill="white"/>
<path d="M357.28 134.78H357.19C356.926 134.757 356.682 134.631 356.512 134.428C356.341 134.226 356.258 133.964 356.28 133.7L356.66 129.42C356.683 129.171 356.798 128.939 356.983 128.77C357.168 128.602 357.41 128.509 357.66 128.51H362.18C362.445 128.51 362.7 128.615 362.887 128.803C363.075 128.99 363.18 129.245 363.18 129.51C363.18 129.775 363.075 130.03 362.887 130.217C362.7 130.405 362.445 130.51 362.18 130.51H358.58L358.28 133.87C358.257 134.119 358.142 134.351 357.957 134.52C357.772 134.688 357.53 134.781 357.28 134.78Z" fill="#E50E0E"/>
<path d="M393.64 134.78H393.55C393.286 134.757 393.042 134.631 392.872 134.428C392.701 134.226 392.618 133.964 392.64 133.7L392.92 130.51H389.5C389.235 130.51 388.98 130.405 388.793 130.217C388.605 130.03 388.5 129.775 388.5 129.51C388.5 129.245 388.605 128.99 388.793 128.803C388.98 128.615 389.235 128.51 389.5 128.51H394C394.139 128.509 394.277 128.538 394.405 128.594C394.532 128.65 394.647 128.731 394.741 128.834C394.835 128.937 394.907 129.058 394.951 129.19C394.996 129.322 395.013 129.461 395 129.6L394.62 133.87C394.598 134.116 394.485 134.345 394.305 134.513C394.124 134.681 393.887 134.776 393.64 134.78Z" fill="#E50E0E"/>
<path d="M359 167.05H354.48C354.343 167.05 354.207 167.021 354.082 166.966C353.956 166.911 353.843 166.831 353.75 166.73C353.656 166.628 353.585 166.508 353.54 166.377C353.496 166.247 353.478 166.108 353.49 165.97L353.86 161.69C353.882 161.425 354.009 161.179 354.213 161.008C354.416 160.836 354.68 160.753 354.945 160.775C355.21 160.798 355.456 160.925 355.627 161.128C355.799 161.332 355.882 161.595 355.86 161.86L355.58 165.05H359C359.265 165.05 359.52 165.155 359.707 165.343C359.895 165.531 360 165.785 360 166.05C360 166.315 359.895 166.57 359.707 166.757C359.52 166.945 359.265 167.05 359 167.05Z" fill="#E50E0E"/>
<path d="M390.81 167.05H386.3C386.035 167.05 385.78 166.945 385.593 166.757C385.405 166.57 385.3 166.315 385.3 166.05C385.3 165.785 385.405 165.531 385.593 165.343C385.78 165.155 386.035 165.05 386.3 165.05H389.9L390.19 161.69C390.213 161.426 390.339 161.182 390.542 161.012C390.744 160.841 391.006 160.758 391.27 160.78C391.534 160.803 391.778 160.93 391.948 161.132C392.119 161.334 392.202 161.596 392.18 161.86L391.81 166.14C391.787 166.389 391.672 166.621 391.487 166.79C391.302 166.958 391.06 167.051 390.81 167.05Z" fill="#E50E0E"/>
<path d="M387.368 150.927C389.626 142.172 385.751 133.604 378.713 131.789C371.675 129.974 364.139 135.6 361.882 144.355C359.624 153.109 363.5 161.677 370.537 163.492C377.575 165.307 385.111 159.681 387.368 150.927Z" fill="white"/>
<path d="M378.55 172.53H365.6L366.73 159.58H379.68L378.55 172.53Z" fill="white"/>
<path d="M393.7 174C393.542 175.492 392.846 176.876 391.742 177.892C390.637 178.908 389.2 179.487 387.7 179.52H355.23C354.527 179.524 353.832 179.379 353.188 179.096C352.545 178.813 351.969 178.398 351.497 177.877C351.025 177.356 350.669 176.741 350.45 176.073C350.232 175.405 350.157 174.699 350.23 174C350.23 174 365.15 169.28 366.99 169.28H378.52L393.7 174Z" fill="white"/>
<path d="M399.676 140.905L398.163 159.273L399.159 159.355L400.673 140.988L399.676 140.905Z" fill="#E50E0E"/>
<path d="M400.728 132.5L400.431 136.108L401.427 136.19L401.724 132.582L400.728 132.5Z" fill="#E50E0E"/>
<path d="M365.88 244.07H361.94V245.07H365.88V244.07Z" fill="#E50E0E"/>
<path d="M382.81 244.07H369.96V245.07H382.81V244.07Z" fill="#E50E0E"/>
<path d="M406.33 227L403.84 255.5C403.711 256.76 403.124 257.928 402.192 258.785C401.26 259.642 400.046 260.127 398.78 260.15C398.184 260.161 397.593 260.044 397.046 259.809C396.498 259.573 396.008 259.224 395.606 258.784C395.204 258.344 394.9 257.824 394.714 257.258C394.529 256.692 394.466 256.092 394.53 255.5L397 227C397.23 224.874 397.005 222.724 396.341 220.692C395.677 218.66 394.588 216.792 393.146 215.213C391.705 213.634 389.945 212.379 387.982 211.532C386.019 210.685 383.898 210.265 381.76 210.3H371.6C367.056 210.386 362.7 212.132 359.355 215.208C356.01 218.285 353.906 222.479 353.44 227L352.44 238.64H343.14L344.14 227C345.39 212.66 358.08 201 372.41 201H382.61C385.938 200.945 389.24 201.599 392.296 202.917C395.352 204.236 398.092 206.19 400.336 208.649C402.579 211.108 404.274 214.016 405.307 217.179C406.341 220.343 406.689 223.691 406.33 227Z" fill="#E50E0E"/>
<g opacity="0.5">
<path opacity="0.5" d="M406.33 227L403.84 255.5C403.711 256.76 403.124 257.928 402.192 258.785C401.26 259.642 400.046 260.127 398.78 260.15C398.184 260.161 397.593 260.044 397.046 259.809C396.498 259.573 396.008 259.224 395.606 258.784C395.204 258.344 394.9 257.824 394.714 257.258C394.529 256.692 394.466 256.092 394.53 255.5L397 227C397.23 224.874 397.005 222.724 396.341 220.692C395.677 218.66 394.588 216.792 393.146 215.213C391.705 213.634 389.945 212.379 387.982 211.532C386.019 210.685 383.898 210.265 381.76 210.3H371.6C367.056 210.386 362.7 212.132 359.355 215.208C356.01 218.285 353.906 222.479 353.44 227L352.44 238.64H343.14L344.14 227C345.39 212.66 358.08 201 372.41 201H382.61C385.938 200.945 389.24 201.599 392.296 202.917C395.352 204.236 398.092 206.19 400.336 208.649C402.579 211.108 404.274 214.016 405.307 217.179C406.341 220.343 406.689 223.691 406.33 227Z" fill="white"/>
</g>
<path d="M407 254.46L402.15 310C401.974 311.722 401.172 313.32 399.897 314.49C398.621 315.66 396.961 316.322 395.23 316.35H339.69C338.877 316.365 338.069 316.206 337.322 315.884C336.574 315.563 335.904 315.086 335.355 314.485C334.807 313.884 334.392 313.174 334.14 312.4C333.887 311.627 333.802 310.809 333.89 310L338.75 254.46C338.862 253.353 339.233 252.287 339.835 251.351C340.436 250.414 341.25 249.633 342.21 249.07C343.252 248.432 344.448 248.086 345.67 248.07H401.2C402.335 248.064 403.448 248.379 404.41 248.98C405.308 249.562 406.027 250.384 406.484 251.352C406.942 252.32 407.12 253.396 407 254.46Z" fill="#E50E0E"/>
<path d="M349.25 278.72L363.68 300.93L411.27 253.34C411.344 253.252 411.383 253.14 411.381 253.025C411.379 252.91 411.337 252.8 411.26 252.714C411.184 252.628 411.08 252.573 410.966 252.557C410.852 252.542 410.736 252.568 410.64 252.63L365.29 288.18L356.72 274.37L349.25 278.72Z" fill="white"/>
<path d="M276 191.65L276.34 192.06L276.8 192.59C277.13 192.94 277.45 193.31 277.8 193.65C278.49 194.37 279.24 195.07 280 195.78C281.519 197.181 283.111 198.499 284.77 199.73C286.46 200.99 288.24 202.14 290.02 203.28C291.02 203.82 291.84 204.39 292.78 204.91L294.95 206.11C295.265 206.249 295.62 206.27 295.95 206.17C296.65 205.96 300.67 201.98 301.95 200.5C304.79 197.25 309.09 192.97 311.41 189.33L314 192.9C312.363 197.36 310.19 201.604 307.53 205.54C306.099 207.668 304.383 209.589 302.43 211.25C301.257 212.238 299.934 213.031 298.51 213.6C296.705 214.32 294.723 214.47 292.83 214.03C292.341 213.911 291.862 213.75 291.4 213.55L290.5 213.16L288.88 212.42C287.79 211.94 286.74 211.36 285.68 210.83C283.561 209.699 281.504 208.454 279.52 207.1C277.52 205.724 275.6 204.235 273.77 202.64C272.82 201.81 271.97 200.97 271.1 200.06C270.67 199.61 270.23 199.14 269.81 198.65L269.19 197.89C268.96 197.61 268.79 197.4 268.48 196.97L276 191.65Z" fill="#FFB573"/>
<path d="M311 189.88L315.64 179.96L320.07 187.9C320.07 187.9 317.16 192.9 314 192.9L311 189.88Z" fill="#FFB573"/>
<path d="M320.9 175.84L325.58 181.86L320.11 187.89L315.68 179.96L320.9 175.84Z" fill="#FFB573"/>
<path d="M319.27 190.63H326.64C326.848 190.629 327.048 190.55 327.201 190.41C327.354 190.269 327.45 190.077 327.47 189.87L329 172.2C329.011 172.085 328.998 171.968 328.961 171.858C328.925 171.748 328.865 171.646 328.787 171.561C328.709 171.475 328.614 171.407 328.507 171.36C328.401 171.313 328.286 171.29 328.17 171.29H320.81C320.601 171.292 320.399 171.372 320.246 171.514C320.092 171.657 319.997 171.851 319.98 172.06L318.43 189.72C318.42 189.836 318.435 189.953 318.473 190.063C318.511 190.173 318.571 190.274 318.65 190.36C318.729 190.445 318.825 190.514 318.932 190.56C319.038 190.607 319.154 190.63 319.27 190.63Z" fill="#374988"/>
<path opacity="0.3" d="M319.35 188.86H326.73L328.11 173.07H320.73L319.35 188.86Z" fill="white"/>
<path d="M318.87 186.62L320.18 185.95C320.847 185.611 321.463 185.18 322.01 184.67L322.25 183.8C322.11 183.568 321.9 183.388 321.649 183.285C321.399 183.182 321.122 183.163 320.86 183.23L319.77 183.53L314.36 183.94L314.23 186.22L315.81 188.66H316.35C316.945 188.681 317.528 188.486 317.992 188.111C318.455 187.736 318.767 187.207 318.87 186.62Z" fill="#FFB573"/>
<path d="M266.56 182C270.31 181.32 296.76 204.25 296.76 204.25L288.92 215.75C288.92 215.75 260 195.61 260.92 190.75C261.81 185.64 261.1 183 266.56 182Z" fill="#353841"/>
<path opacity="0.2" d="M269.9 189.33L269.61 201.33C272.61 203.66 283.45 211.97 283.45 211.97L269.9 189.33Z" fill="#353841"/>
<path d="M248.93 420.31L257.8 421.18L260.62 400.61L251.74 399.74L248.93 420.31Z" fill="#FFB573"/>
<path d="M161.6 299.61L159.33 308.25L178.52 316.52L182.5 307.75L161.6 299.61Z" fill="#FFB573"/>
<path d="M264.15 423C264.913 423.094 265.686 422.925 266.34 422.52C266.481 422.397 266.591 422.242 266.661 422.068C266.73 421.894 266.757 421.707 266.74 421.52C266.74 421.403 266.708 421.289 266.648 421.188C266.588 421.088 266.503 421.006 266.4 420.95C265.33 420.31 261.71 422.03 261.3 422.22C261.261 422.238 261.228 422.268 261.207 422.306C261.185 422.344 261.176 422.387 261.18 422.43C261.186 422.474 261.205 422.515 261.236 422.548C261.266 422.58 261.306 422.602 261.35 422.61C262.27 422.825 263.207 422.956 264.15 423ZM265.76 421.21C265.899 421.199 266.039 421.231 266.16 421.3C266.202 421.322 266.237 421.355 266.262 421.396C266.287 421.436 266.3 421.483 266.3 421.53C266.311 421.655 266.292 421.781 266.245 421.897C266.198 422.014 266.124 422.117 266.03 422.2C265.48 422.67 264.03 422.71 262.03 422.33C263.209 421.741 264.481 421.359 265.79 421.2L265.76 421.21Z" fill="#374988"/>
<path d="M261.39 422.57H261.47C262.55 422.12 264.72 420.26 264.58 419.24C264.541 419.063 264.442 418.904 264.3 418.791C264.158 418.679 263.981 418.618 263.8 418.62C263.592 418.581 263.378 418.588 263.172 418.64C262.967 418.692 262.775 418.787 262.61 418.92C261.46 419.81 261.19 422.22 261.17 422.31C261.161 422.346 261.16 422.385 261.169 422.421C261.178 422.458 261.195 422.492 261.22 422.52C261.243 422.54 261.27 422.554 261.3 422.563C261.329 422.571 261.36 422.574 261.39 422.57ZM263.6 419H263.72C264.11 419.06 264.13 419.21 264.13 419.26C264.22 419.87 262.74 421.35 261.63 421.94C261.736 420.926 262.164 419.973 262.85 419.22C263.072 419.059 263.348 418.991 263.62 419.03L263.6 419Z" fill="#374988"/>
<path d="M257.36 417.6L249.36 417.94C249.188 417.942 249.022 418.007 248.894 418.123C248.767 418.239 248.687 418.399 248.67 418.57L246.75 429.74C246.739 429.93 246.766 430.12 246.829 430.3C246.893 430.479 246.991 430.645 247.118 430.786C247.245 430.927 247.4 431.042 247.572 431.123C247.744 431.205 247.93 431.251 248.12 431.26H248.28C251.77 431.08 253.45 430.82 257.87 430.67C260.58 430.58 268.87 431.56 272.57 430.72C276.27 429.88 275.57 426.21 273.98 426.24C268.84 426.34 262.91 422.99 259.98 419.07C259.47 418.74 257.92 417.57 257.36 417.6Z" fill="#353841"/>
<path d="M163.41 309.38L167.49 302.45C167.582 302.303 167.616 302.127 167.585 301.957C167.553 301.786 167.459 301.634 167.32 301.53L159 293.86C158.691 293.642 158.309 293.553 157.935 293.613C157.561 293.673 157.226 293.876 157 294.18L156.91 294.32C155.17 297.32 154.48 298.9 152.21 302.69C150.81 305.02 145.47 311.49 144.21 315.02C142.95 318.55 146.37 320.02 147.21 318.64C149.92 314.26 155.95 311.1 160.85 310.72C161.32 310.54 163.13 309.87 163.41 309.38Z" fill="#353841"/>
<path opacity="0.2" d="M260.62 400.61L259.17 411.22L250.29 410.35L251.73 399.75L260.62 400.61Z" fill="#353841"/>
<path opacity="0.2" d="M188.4 309.89L184.3 319.14L171.94 313.68L175.09 304.87L188.4 309.89Z" fill="#353841"/>
<path d="M272.23 192.55C277.3 201.17 271.1 208.44 265.92 234.2L232.5 234.29C233.04 220.41 232.98 209.19 227.06 181.88C226.906 181.207 226.907 180.508 227.061 179.835C227.215 179.163 227.52 178.534 227.952 177.995C228.383 177.457 228.931 177.023 229.554 176.726C230.178 176.429 230.86 176.276 231.55 176.28C234.31 176.28 237.78 176.37 241.31 176.73C246.878 177.185 252.408 178.024 257.86 179.24C260.817 179.953 263.723 180.862 266.56 181.96C268.28 182.54 270.35 187.22 272.23 192.55Z" fill="#353841"/>
<path d="M267.16 235.94C267.16 235.94 285.93 290.21 285.48 316.31C285.22 331.26 284.09 359.12 279.58 378.71C275.9 394.71 260.9 404.91 260.9 404.91L248.9 404.2C248.9 404.2 242.4 379.8 243.53 370.09C245.78 350.76 252.45 336.24 251.64 318.49C250.36 289.43 241.76 235.49 241.76 235.49L267.16 235.94Z" fill="#374988"/>
<path d="M246.49 407.33L263.44 408.33L264.98 403.24L246.04 401.49L246.49 407.33Z" fill="#353841"/>
<path opacity="0.2" d="M248.63 345.58C248.63 345.58 248.63 345.48 248.73 345.49C259.38 346.49 266.73 331.16 264.98 310.17L259.33 256.67L248.63 345.58Z" fill="#353841"/>
<path d="M258.74 235.49C258.74 235.49 273.66 330.92 242.64 341.66C226.27 347.86 212.5 341.14 196.19 333.92C186.76 329.75 174.98 318.46 174.98 318.46L179.51 306.13C187.657 303.927 196.182 303.497 204.51 304.87C220.41 307.33 221.08 311.87 226.73 308.44C238.61 279.08 218.17 255.87 232.06 235.44L258.74 235.49Z" fill="#374988"/>
<path d="M180.4 303.79L174.34 319.78L178.8 323.19L186 304.16L180.4 303.79Z" fill="#353841"/>
<path d="M177.9 217.56C176.39 219.79 168.73 218.28 168.73 218.28L167.1 208.79L176.51 212.56L177.9 217.56Z" fill="#FFB573"/>
<path d="M169 208.3L170.46 218.16L164.81 219C164.504 219.028 164.198 218.941 163.952 218.756C163.707 218.571 163.538 218.302 163.48 218L161.31 211C161.273 210.837 161.3 210.666 161.386 210.523C161.472 210.38 161.609 210.275 161.77 210.23L169 208.3Z" fill="#FFB573"/>
<path d="M166.47 212.77L169.69 213.34L172.74 211.05L171.56 210.21C170.76 209.641 170.198 208.797 169.98 207.84C169.753 206.837 169.616 205.817 169.57 204.79V204.45C169.532 204.148 169.395 203.868 169.182 203.651C168.969 203.434 168.691 203.293 168.39 203.25L167.59 203.84C167.09 204.93 167.45 206.2 167.39 207.05L167.26 208.7L165.97 209.26L166.47 212.77Z" fill="#FFB573"/>
<path d="M228.67 180L209.75 206L175 212.86V218.56C175 218.56 207.66 220.98 215 216.71C222.34 212.44 234.65 186.54 234.65 186.54L228.67 180Z" fill="#FFB573"/>
<path d="M228.45 130C220.51 127.34 211.3 132.27 207.67 139.81C204.04 147.35 205.31 156.6 209.4 163.9C210.63 166.11 212.1 168.19 213.11 170.5C214.232 172.79 214.478 175.412 213.8 177.87C212.98 180.26 212.14 181.79 209.18 181.41C209.18 181.41 209.18 179.77 210.31 179.97C210.31 179.97 207.91 181.3 206.97 180.43C208.06 182.11 210.97 181.5 211.9 179.72C213.29 177.07 210.73 173.48 207.73 173.51C204.73 173.54 202.29 176.58 202.39 179.57C202.515 181.066 203.047 182.498 203.929 183.713C204.81 184.927 206.007 185.877 207.39 186.46C206.579 186.594 205.747 186.455 205.024 186.066C204.3 185.677 203.726 185.06 203.39 184.31C204.75 187.87 209.19 189.44 212.94 188.74C216.69 188.04 219.86 185.64 222.8 183.21C226.8 179.93 230.89 175.78 230.8 170.65C230.71 166.82 228.25 163.53 226.18 160.3C224.11 157.07 222.3 153.13 223.62 149.54C224.73 146.49 227.75 144.65 230.41 142.79C232.33 141.46 236.23 138.49 235.77 135.68C235.3 133 230.7 130.75 228.45 130Z" fill="#353841"/>
<path d="M210.56 219L205.32 205.13L206.52 205.23C207.491 205.311 208.465 205.111 209.325 204.654C210.185 204.196 210.895 203.501 211.37 202.65C215.37 195.53 225.7 177.46 228.61 176.56C232.76 175.33 237.03 178.65 238.61 183.56C239.8 187.17 227.61 202.65 221.99 211.45C217 219.24 210.56 219 210.56 219Z" fill="#353841"/>
<path d="M159.45 313.94V314.05C159.524 314.242 159.645 314.413 159.802 314.546C159.96 314.679 160.148 314.77 160.35 314.81C160.471 314.848 160.6 314.854 160.725 314.828C160.849 314.802 160.964 314.744 161.06 314.66C161.9 313.89 161.36 310.66 161.31 310.34C161.304 310.298 161.286 310.26 161.257 310.229C161.229 310.199 161.191 310.178 161.15 310.17C161.111 310.165 161.072 310.17 161.035 310.184C160.998 310.198 160.966 310.221 160.94 310.25C160.26 311.21 159.18 312.92 159.45 313.94ZM160.99 310.94C161.17 312.22 161.25 313.94 160.78 314.36C160.731 314.387 160.676 314.401 160.62 314.401C160.564 314.401 160.509 314.387 160.46 314.36C160.326 314.335 160.2 314.276 160.095 314.188C159.99 314.101 159.909 313.988 159.86 313.86C159.68 313.32 160.06 312.22 160.99 310.92V310.94Z" fill="#374988"/>
<path d="M161 310.76C161.26 311.84 162.28 313.68 163.18 313.9C163.344 313.933 163.514 313.909 163.663 313.833C163.812 313.757 163.931 313.632 164 313.48C164.078 313.337 164.124 313.179 164.135 313.017C164.145 312.854 164.119 312.692 164.06 312.54C163.65 311.3 161.29 310.28 161.19 310.23C161.158 310.213 161.122 310.203 161.085 310.203C161.048 310.203 161.012 310.213 160.98 310.23C160.951 310.254 160.928 310.285 160.914 310.32C160.9 310.355 160.895 310.393 160.9 310.43C160.925 310.542 160.958 310.653 161 310.76ZM163.72 312.76C163.74 312.848 163.743 312.94 163.727 313.029C163.712 313.118 163.679 313.204 163.63 313.28C163.5 313.52 163.37 313.52 163.27 313.5C162.66 313.38 161.73 311.87 161.43 310.82C162.2 311.21 163.43 311.94 163.69 312.7C163.683 312.719 163.683 312.741 163.69 312.76H163.72Z" fill="#374988"/>
<path d="M232.38 232.6L231.45 235.85C231.33 236.1 231.62 236.36 232.04 236.35H266.54C266.87 236.35 267.14 236.18 267.16 235.98L267.48 232.73C267.48 232.51 267.22 232.31 266.86 232.32H232.96C232.847 232.311 232.734 232.333 232.632 232.382C232.53 232.431 232.443 232.506 232.38 232.6Z" fill="#374988"/>
<path opacity="0.5" d="M232.38 232.6L231.45 235.85C231.33 236.1 231.62 236.36 232.04 236.35H266.54C266.87 236.35 267.14 236.18 267.16 235.98L267.48 232.73C267.48 232.51 267.22 232.31 266.86 232.32H232.96C232.847 232.311 232.734 232.333 232.632 232.382C232.53 232.431 232.443 232.506 232.38 232.6Z" fill="white"/>
<path d="M239 236.65H238C237.81 236.65 237.65 236.55 237.67 236.43L238.12 232.2C238.12 232.08 238.31 231.98 238.51 231.98H239.51C239.7 231.98 239.85 232.08 239.84 232.21L239.39 236.43C239.33 236.55 239.15 236.66 239 236.65Z" fill="#374988"/>
<path d="M263.87 236.65H262.87C262.69 236.65 262.53 236.55 262.55 236.43L263 232.21C263 232.08 263.18 231.98 263.37 231.98H264.37C264.56 231.98 264.72 232.08 264.7 232.2L264.25 236.42C264.23 236.55 264.07 236.65 263.87 236.65Z" fill="#374988"/>
<path d="M252.46 236.63H251.46C251.27 236.63 251.11 236.53 251.13 236.41L251.58 232.19C251.58 232.06 251.77 231.96 251.96 231.96H252.96C253.15 231.96 253.3 232.06 253.29 232.18L252.83 236.4C252.83 236.53 252.66 236.63 252.46 236.63Z" fill="#374988"/>
<path d="M242.87 158.53C243.93 163.98 244.97 173.82 241.27 176.78C241.27 176.78 242.75 182.37 252.64 183.86C263.56 185.5 257.83 179.28 257.83 179.28C251.88 176.93 252.03 172.63 253.05 168.67L242.87 158.53Z" fill="#FFB573"/>
<path d="M241.31 176.73C246.587 177.065 251.832 177.793 257 178.91L264.48 181.14C265.81 183.82 263.63 189.33 257.37 190.38C257.37 190.38 241.6 192.55 236.95 176.31L241.31 176.73Z" fill="#FFB573"/>
<path opacity="0.2" d="M247 162.68L253 168.68C252.747 169.609 252.583 170.56 252.51 171.52C250.23 170.85 246.57 168.34 246.32 165.94C246.323 164.819 246.554 163.709 247 162.68Z" fill="#353841"/>
<path d="M236.19 151.65C238.87 160.11 239.81 163.75 245.3 167.08C253.48 172.08 263.3 166.96 263.2 157.88C263.12 149.7 258.77 137.24 249.48 135.88C247.438 135.574 245.352 135.796 243.419 136.524C241.487 137.252 239.773 138.462 238.441 140.04C237.109 141.618 236.203 143.51 235.809 145.537C235.415 147.564 235.546 149.658 236.19 151.62V151.65Z" fill="#FFB573"/>
<path d="M256.38 150.33C257.326 151.815 258.474 153.161 259.79 154.33C259.482 154.663 259.105 154.926 258.685 155.098C258.266 155.271 257.813 155.35 257.36 155.33L256.38 150.33Z" fill="#ED893E"/>
<path d="M255.43 159.85C255.769 159.813 256.103 159.746 256.43 159.65C256.456 159.644 256.48 159.633 256.501 159.618C256.523 159.603 256.541 159.584 256.555 159.561C256.569 159.539 256.578 159.514 256.582 159.488C256.587 159.462 256.586 159.436 256.58 159.41C256.566 159.358 256.532 159.313 256.485 159.285C256.439 159.257 256.383 159.248 256.33 159.26C255.476 159.495 254.58 159.528 253.711 159.354C252.843 159.18 252.027 158.806 251.33 158.26C251.289 158.219 251.233 158.196 251.175 158.196C251.117 158.196 251.061 158.219 251.02 158.26C251 158.28 250.984 158.303 250.973 158.329C250.963 158.355 250.957 158.382 250.957 158.41C250.957 158.438 250.963 158.466 250.973 158.492C250.984 158.517 251 158.541 251.02 158.56C251.634 159.054 252.34 159.423 253.097 159.644C253.853 159.865 254.646 159.935 255.43 159.85Z" fill="#353841"/>
<path d="M233.28 134.76C232.178 135.473 231.263 136.44 230.612 137.58C229.961 138.719 229.594 139.999 229.54 141.31C229.495 141.812 229.574 142.316 229.77 142.78C229.869 143.009 230.026 143.209 230.226 143.358C230.426 143.507 230.662 143.601 230.91 143.63C231.67 143.63 232.23 142.95 232.65 142.31L234.59 139.31C235.389 138.336 236.061 137.264 236.59 136.12C237.24 134.15 234.47 134 233.28 134.76Z" fill="#374988"/>
<path d="M234.23 136.75C228.92 142.89 226.54 159.88 242.1 164.62C244.7 162.56 240.5 158.81 238.72 154.07C237.55 150.97 243.48 145.18 245.79 142.8C248.1 140.42 250.23 136.99 253.49 137.54C254.317 137.817 255.209 137.841 256.05 137.61C258.64 136.44 257.38 134.89 256.05 133.81C254.01 132.3 251.582 131.405 249.05 131.23C246.319 130.908 243.551 131.241 240.974 132.201C238.397 133.161 236.085 134.72 234.23 136.75Z" fill="#353841"/>
<path d="M251.5 134.69C257.75 139.9 249.5 140.03 245.13 143.33C240.94 146.5 243.88 151.69 236.79 154.1C231 155.79 229.66 154.77 228.06 153.65C230.043 153.307 231.857 152.318 233.218 150.836C234.58 149.355 235.414 147.465 235.59 145.46C236.08 141.66 244.36 128.65 251.5 134.69Z" fill="#353841"/>
<path d="M235.25 158.76C236.229 160.171 237.723 161.14 239.41 161.46C241.65 161.85 242.51 159.8 241.74 157.8C241.01 156 238.98 153.63 236.81 154.14C236.064 154.333 235.425 154.814 235.033 155.478C234.641 156.142 234.529 156.934 234.72 157.68C234.822 158.072 235.002 158.44 235.25 158.76Z" fill="#FFB573"/>
<path d="M250.43 135.22C251.64 138.3 255.13 137.89 257.71 141.11C259.3 143.11 262.42 136.94 258.17 134.51C253.92 132.08 248.53 130.4 250.43 135.22Z" fill="#353841"/>
<path d="M246.75 148.22C246.839 148.23 246.929 148.211 247.006 148.166C247.083 148.121 247.144 148.052 247.18 147.97C248 146.15 250.46 145.69 250.48 145.69C250.59 145.666 250.686 145.601 250.75 145.508C250.813 145.415 250.838 145.301 250.82 145.19C250.798 145.082 250.735 144.986 250.643 144.924C250.551 144.863 250.439 144.84 250.33 144.86C250.2 144.86 247.4 145.45 246.4 147.65C246.355 147.752 246.353 147.868 246.392 147.973C246.431 148.077 246.509 148.162 246.61 148.21H246.75V148.22Z" fill="#353841"/>
<path d="M259.75 144.54C259.823 144.545 259.896 144.53 259.962 144.497C260.027 144.463 260.082 144.413 260.12 144.35C260.152 144.305 260.174 144.254 260.186 144.2C260.198 144.146 260.199 144.091 260.188 144.037C260.178 143.983 260.157 143.931 260.126 143.885C260.096 143.839 260.056 143.8 260.01 143.77C259.456 143.386 258.818 143.142 258.15 143.056C257.482 142.971 256.802 143.048 256.17 143.28C256.117 143.301 256.07 143.332 256.03 143.372C255.99 143.412 255.958 143.459 255.938 143.512C255.917 143.565 255.907 143.621 255.91 143.677C255.912 143.734 255.925 143.789 255.95 143.84C255.994 143.942 256.077 144.022 256.18 144.064C256.283 144.105 256.398 144.103 256.5 144.06C256.997 143.886 257.529 143.834 258.051 143.907C258.573 143.98 259.07 144.176 259.5 144.48C259.578 144.518 259.663 144.538 259.75 144.54Z" fill="#353841"/>
<path d="M300.86 199.28L295 202.61L288.91 215.71C288.91 215.71 294.79 219.45 299.43 216.42C304.07 213.39 300.86 199.28 300.86 199.28Z" fill="#374988"/>
<path opacity="0.5" d="M300.86 199.28L295 202.61L288.91 215.71C288.91 215.71 294.79 219.45 299.43 216.42C304.07 213.39 300.86 199.28 300.86 199.28Z" fill="white"/>
<path d="M198.39 203.33L205.32 205.33L211.89 218.92C211.89 218.92 206.61 223.81 200.89 219.14C196.61 215.6 198.39 203.33 198.39 203.33Z" fill="#374988"/>
<g opacity="0.5">
<path opacity="0.5" d="M198.39 203.33L205.32 205.33L211.89 218.92C211.89 218.92 206.61 223.81 200.89 219.14C196.61 215.6 198.39 203.33 198.39 203.33Z" fill="white"/>
</g>
<path d="M259.35 147.93C259.83 147.84 260.35 148.38 260.46 149.12C260.57 149.86 260.3 150.54 259.82 150.62C259.34 150.7 258.82 150.17 258.71 149.43C258.6 148.69 258.87 148 259.35 147.93Z" fill="#353841"/>
<path d="M260.83 147.2L259.14 148.03C260.16 148.75 260.83 147.2 260.83 147.2Z" fill="#353841"/>
<path d="M251 149.65C251.48 149.56 252 150.1 252.11 150.84C252.22 151.58 251.95 152.26 251.47 152.34C250.99 152.42 250.47 151.89 250.36 151.15C250.25 150.41 250.5 149.74 251 149.65Z" fill="#353841"/>
<path d="M252.46 148.92L250.77 149.75C251.79 150.47 252.46 148.92 252.46 148.92Z" fill="#353841"/>
<path d="M208.66 187.91C207.718 187.916 206.785 187.739 205.91 187.39C202.81 186.12 201.37 182.9 201.91 178.54C201.927 178.409 201.996 178.29 202.101 178.209C202.206 178.129 202.339 178.093 202.47 178.11C202.535 178.117 202.599 178.138 202.656 178.17C202.714 178.203 202.764 178.246 202.804 178.299C202.844 178.351 202.873 178.411 202.89 178.475C202.906 178.538 202.91 178.605 202.9 178.67C202.38 182.54 203.6 185.38 206.25 186.46C207.788 186.987 209.453 187.013 211.007 186.535C212.561 186.057 213.924 185.1 214.9 183.8C217.41 180.46 216.59 175.72 212.68 170.8C202.44 157.95 203.12 151.12 204.57 145.72C206.67 137.88 212.82 128.9 230.22 130.63C230.353 130.643 230.475 130.709 230.559 130.812C230.643 130.915 230.683 131.047 230.67 131.18C230.657 131.313 230.591 131.435 230.488 131.519C230.385 131.603 230.253 131.643 230.12 131.63C213.43 129.97 207.53 138.53 205.53 145.99C204.09 151.39 203.53 157.7 213.46 170.19C219.46 177.72 217.03 182.65 215.7 184.41C214.868 185.488 213.802 186.363 212.582 186.969C211.363 187.576 210.022 187.897 208.66 187.91Z" fill="#353841"/>
</svg>
