<svg width="48" height="48" viewBox="0 0 48 48" fill="none" xmlns="http://www.w3.org/2000/svg">
<path d="M43.414 40.586L36.614 33.786C38.724 31.08 40 27.692 40 24H36C36 26.586 35.162 28.974 33.762 30.934L30.864 28.034C31.57 26.848 32 25.48 32 24V12C32 7.56601 28.43 3.95801 24.042 3.95801C23.902 3.95801 23.762 3.97601 23.624 4.00801C19.386 4.20801 16 7.71401 16 12V13.172L7.414 4.58601L4.586 7.41401L40.586 43.414L43.414 40.586ZM12 24H8C8 32.144 14.12 38.872 22 39.862V44H26V39.862C27.578 39.664 29.08 39.226 30.482 38.602L27.384 35.506C26.31 35.822 25.176 36 24 36C17.382 36 12 30.618 12 24Z" fill="#374988"/>
<path d="M16.014 24.1338C16.086 28.4358 19.564 31.9138 23.866 31.9858L16.014 24.1338Z" fill="#374988"/>
</svg>
