<svg width="500" height="500" viewBox="0 0 500 500" fill="none" xmlns="http://www.w3.org/2000/svg">
<circle opacity="0.1" cx="250" cy="250" r="205" fill="#CC2593"/>
<path d="M253 484.7C123.439 484.7 18.41 421.841 18.41 344.3C18.41 266.759 123.439 203.9 253 203.9C382.56 203.9 487.59 266.759 487.59 344.3C487.59 421.841 382.56 484.7 253 484.7Z" fill="#F5F5F5"/>
<path d="M211.46 281.75L215.71 279.3C217.325 278.476 219.112 278.047 220.925 278.047C222.738 278.047 224.525 278.476 226.14 279.3L450.53 408.85C453.4 410.51 453.4 413.22 450.53 414.85L446.29 417.3C444.674 418.119 442.887 418.545 441.075 418.545C439.263 418.545 437.476 418.119 435.86 417.3L367.69 378L337.36 395.51C329.54 400.02 316.75 400.02 308.93 395.51L261.93 368.36C255.25 364.5 255.25 358.19 261.93 354.36L294.3 335.6L211.46 287.77C208.59 286.11 208.59 283.4 211.46 281.75Z" fill="#E0E0E0"/>
<path d="M129.8 440.83C106.38 454.35 68.42 454.35 45.01 440.83C21.6 427.31 21.59 405.4 45.01 391.88C68.43 378.36 106.38 378.36 129.8 391.88C153.22 405.4 153.21 427.31 129.8 440.83Z" fill="#E0E0E0"/>
<path d="M359.18 86.4602L355.41 84.1802C355.443 83.9181 355.459 83.6543 355.46 83.3902V81.5302C355.361 79.7271 354.838 77.9727 353.935 76.4092C353.031 74.8456 351.772 73.5167 350.26 72.5302C349.809 72.2292 349.303 72.0211 348.77 71.9181C348.238 71.8151 347.691 71.8192 347.16 71.9302C346.69 67.2202 343.42 61.9302 339.44 59.5902C335.15 57.1102 331.66 59.1202 331.66 64.0802V66.8702C331.677 68.2291 331.9 69.5777 332.32 70.8702L327 67.7702C325.4 66.8502 324.11 67.5902 324.11 69.4302C324.164 70.4323 324.454 71.4076 324.956 72.2765C325.458 73.1454 326.158 73.8833 327 74.4302L359.2 93.1202C360.79 94.0402 362.08 93.3002 362.08 91.4602C362.023 90.4575 361.731 89.4822 361.228 88.6135C360.724 87.7448 360.022 87.0071 359.18 86.4602Z" fill="#EBEBEB"/>
<path d="M391.46 78.86L395.46 80.38V71.68C395.46 64.78 400.96 63.13 406.94 66.57C412.86 70 417.7 78.41 417.7 85.31V86.57C418.538 86.3131 419.424 86.2498 420.29 86.3849C421.156 86.52 421.98 86.85 422.7 87.35C424.966 88.826 426.852 90.8161 428.204 93.1585C429.556 95.5009 430.336 98.1294 430.48 100.83V101.4L436 104.58C437.493 105.553 438.736 106.863 439.627 108.406C440.519 109.949 441.033 111.681 441.13 113.46C441.13 116.73 438.83 118.05 436 116.46L391.46 90.7C389.969 89.7259 388.729 88.4143 387.839 86.8716C386.95 85.3288 386.436 83.5983 386.34 81.82C386.34 78.55 388.63 77.22 391.46 78.86Z" fill="#EBEBEB"/>
<path d="M308.39 388.5L269.48 366C265.48 363.68 263.48 360.65 263.48 357.62C263.48 354.59 263.48 352.2 263.48 352.2L300.09 331.43C301.217 330.694 302.154 329.703 302.826 328.537C303.499 327.371 303.887 326.063 303.96 324.72V276.72L371.88 316V364C371.806 365.343 371.416 366.65 370.742 367.814C370.068 368.978 369.128 369.967 368 370.7L337.42 388.5C329.41 393.13 316.41 393.13 308.39 388.5Z" fill="#353841"/>
<path opacity="0.15" d="M355.57 372.49V377.88L368 370.7C369.127 369.964 370.065 368.973 370.737 367.808C371.41 366.642 371.798 365.334 371.87 363.99V316L358.92 308.53C358.66 311.82 358.36 315.22 358.1 318.53L367.17 323.78V361.26C367.101 362.602 366.716 363.909 366.045 365.074C365.374 366.238 364.437 367.227 363.31 367.96L355.57 372.49Z" fill="#353841"/>
<path d="M367.2 361.29C367.127 362.635 366.737 363.943 366.063 365.109C365.389 366.275 364.449 367.265 363.32 368L337.44 383.09C329.44 387.73 316.44 387.73 308.39 383.09L269.47 360.6C261.47 355.97 261.47 348.46 269.47 343.83L295.38 328.72C296.508 327.987 297.446 326.998 298.118 325.834C298.791 324.669 299.179 323.363 299.25 322.02V284.55L367.25 323.81L367.2 361.29Z" fill="#455A64"/>
<path opacity="0.3" d="M287.48 333.29L295.37 328.73C296.497 327.997 297.436 327.008 298.108 325.844C298.781 324.679 299.169 323.373 299.24 322.03V284.55L367.24 323.81V361.29C367.167 362.635 366.777 363.943 366.103 365.109C365.429 366.275 364.489 367.265 363.36 368L355.61 372.48L287.48 333.29Z" fill="#353841"/>
<path d="M448.14 390.87C446.673 391.58 445.059 391.935 443.43 391.905C441.8 391.875 440.2 391.463 438.76 390.7L215.19 261.62C213.782 260.702 212.611 259.464 211.772 258.008C210.933 256.552 210.449 254.918 210.36 253.24V49.5599C210.417 47.9305 210.857 46.3376 211.646 44.9109C212.435 43.4842 213.55 42.2641 214.9 41.3499C216.367 40.6398 217.981 40.2852 219.61 40.3147C221.24 40.3442 222.84 40.7571 224.28 41.5199L447.84 170.59C449.251 171.512 450.425 172.755 451.266 174.216C452.107 175.677 452.591 177.316 452.68 179V382.66C452.622 384.289 452.18 385.881 451.391 387.308C450.603 388.734 449.489 389.954 448.14 390.87Z" fill="#455A64"/>
<path d="M438.76 390.69L215.19 261.62C213.781 260.699 212.609 259.46 211.768 258.003C210.928 256.545 210.442 254.91 210.35 253.23V49.5497C210.35 46.4597 212.52 45.2097 215.19 46.7597L438.76 175.83C440.168 176.749 441.34 177.986 442.18 179.442C443.021 180.898 443.508 182.531 443.6 184.21V387.9C443.6 391 441.43 392.23 438.76 390.69Z" fill="#353841"/>
<path d="M437.2 356.11V186.37C437.144 185.335 436.842 184.329 436.321 183.433C435.799 182.538 435.072 181.779 434.2 181.22L219.74 57.3801C218.09 56.3801 216.74 57.2001 216.74 59.1001V228.84C216.797 229.876 217.099 230.884 217.62 231.78C218.142 232.677 218.868 233.438 219.74 234L434.23 357.83C435.87 358.78 437.2 358 437.2 356.11Z" fill="#374988"/>
<path opacity="0.7" d="M437.2 356.11V186.37C437.144 185.335 436.842 184.329 436.321 183.433C435.799 182.538 435.072 181.779 434.2 181.22L219.74 57.3801C218.09 56.3801 216.74 57.2001 216.74 59.1001V228.84C216.797 229.876 217.099 230.884 217.62 231.78C218.142 232.677 218.868 233.438 219.74 234L434.23 357.83C435.87 358.78 437.2 358 437.2 356.11Z" fill="white"/>
<path d="M451.25 174.19L442.18 179.42C443.038 180.877 443.529 182.521 443.61 184.21V387.9C443.61 390.71 441.7 392.29 438.77 390.7C440.208 391.47 441.809 391.887 443.439 391.916C445.07 391.946 446.685 391.587 448.15 390.87C449.484 390.078 450.599 388.965 451.394 387.633C452.188 386.3 452.637 384.79 452.7 383.24V179C452.636 177.299 452.137 175.643 451.25 174.19Z" fill="#353841"/>
<path d="M331.22 315.74L320.27 309.45C319.27 308.89 318.49 309.29 318.49 310.35C318.536 310.946 318.72 311.524 319.03 312.036C319.339 312.549 319.763 312.981 320.27 313.3L331.22 319.58C332.22 320.15 332.99 319.75 332.99 318.68C332.948 318.085 332.765 317.508 332.458 316.997C332.15 316.486 331.726 316.055 331.22 315.74Z" fill="#374988"/>
<path d="M385.09 422.79L377.46 418.38C377.46 418.38 372.91 399.49 374.72 382.49C377.27 358.6 393 349.61 399 351.67C405 353.73 406.71 360.67 396.82 374.92C391 383.31 383.78 400.8 385.09 422.79Z" fill="#CC2593"/>
<g opacity="0.3">
<path opacity="0.3" d="M385.09 422.79L377.46 418.38C377.46 418.38 372.91 399.49 374.72 382.49C377.27 358.6 393 349.61 399 351.67C405 353.73 406.71 360.67 396.82 374.92C391 383.31 383.78 400.8 385.09 422.79Z" fill="white"/>
</g>
<path d="M381.93 413.51H382C382.069 413.498 382.135 413.473 382.193 413.435C382.252 413.397 382.303 413.347 382.342 413.29C382.381 413.232 382.408 413.166 382.422 413.098C382.435 413.029 382.434 412.959 382.42 412.89C378.24 390.89 385.94 366.09 395.42 355.78C395.47 355.733 395.51 355.675 395.538 355.612C395.565 355.548 395.579 355.479 395.579 355.41C395.579 355.341 395.565 355.273 395.538 355.209C395.51 355.145 395.47 355.088 395.42 355.04C395.371 354.991 395.312 354.952 395.248 354.925C395.184 354.898 395.115 354.885 395.045 354.885C394.975 354.885 394.906 354.898 394.842 354.925C394.778 354.952 394.719 354.991 394.67 355.04C384.96 365.53 377.12 390.7 381.36 413.04C381.377 413.176 381.446 413.301 381.552 413.388C381.658 413.475 381.793 413.519 381.93 413.51Z" fill="white"/>
<path d="M404.32 433.89C405.46 434.47 408.49 431.89 409.32 431.24C410.777 430.137 411.924 428.677 412.65 427C413.464 425.11 413.667 423.012 413.23 421C413.002 419.937 412.697 418.891 412.32 417.87L411.32 414.87C410.911 413.899 410.703 412.854 410.71 411.8C410.88 409.68 412.71 408.11 414.3 406.8C416.11 405.3 417.97 403.34 417.83 400.8C417.592 398.845 416.713 397.023 415.33 395.62C414.04 394.15 412.54 392.86 411.33 391.3C410.413 390.216 409.895 388.85 409.86 387.43C409.938 386.557 410.186 385.708 410.59 384.93C411.533 383.3 412.339 381.594 413 379.83C413.53 378.03 413.33 375.83 411.89 374.63C411.249 374.201 410.529 373.904 409.771 373.757C409.014 373.609 408.235 373.614 407.48 373.77C406.042 374.01 404.676 374.567 403.48 375.4C399.57 377.84 397.48 382.71 393.34 384.64C391.677 385.257 389.977 385.768 388.25 386.17C387.384 386.374 386.57 386.759 385.862 387.298C385.154 387.837 384.567 388.519 384.14 389.3C382.73 392.5 385.83 396.21 384.89 399.58C384.07 402.58 381.27 403.83 379.8 406.58C379.209 407.783 379.017 409.141 379.25 410.46C379.495 412.703 380.157 414.88 381.2 416.88C382.362 418.933 383.648 420.913 385.05 422.81C385.05 422.81 404.14 433.8 404.32 433.89Z" fill="#CC2593"/>
<g opacity="0.65">
<path opacity="0.65" d="M404.32 433.89C405.46 434.47 408.49 431.89 409.32 431.24C410.777 430.137 411.924 428.677 412.65 427C413.464 425.11 413.667 423.012 413.23 421C413.002 419.937 412.697 418.891 412.32 417.87L411.32 414.87C410.911 413.899 410.703 412.854 410.71 411.8C410.88 409.68 412.71 408.11 414.3 406.8C416.11 405.3 417.97 403.34 417.83 400.8C417.592 398.845 416.713 397.023 415.33 395.62C414.04 394.15 412.54 392.86 411.33 391.3C410.413 390.216 409.895 388.85 409.86 387.43C409.938 386.557 410.186 385.708 410.59 384.93C411.533 383.3 412.339 381.594 413 379.83C413.53 378.03 413.33 375.83 411.89 374.63C411.249 374.201 410.529 373.904 409.771 373.757C409.014 373.609 408.235 373.614 407.48 373.77C406.042 374.01 404.676 374.567 403.48 375.4C399.57 377.84 397.48 382.71 393.34 384.64C391.677 385.257 389.977 385.768 388.25 386.17C387.384 386.374 386.57 386.759 385.862 387.298C385.154 387.837 384.567 388.519 384.14 389.3C382.73 392.5 385.83 396.21 384.89 399.58C384.07 402.58 381.27 403.83 379.8 406.58C379.209 407.783 379.017 409.141 379.25 410.46C379.495 412.703 380.157 414.88 381.2 416.88C382.362 418.933 383.648 420.913 385.05 422.81C385.05 422.81 404.14 433.8 404.32 433.89Z" fill="white"/>
</g>
<path d="M393.26 428.13C393.327 428.125 393.392 428.107 393.451 428.076C393.51 428.046 393.563 428.003 393.606 427.952C393.649 427.901 393.681 427.842 393.701 427.778C393.72 427.714 393.727 427.646 393.72 427.58C391.9 407.76 400.15 385.36 406.63 378.64C406.677 378.594 406.714 378.538 406.739 378.477C406.765 378.416 406.778 378.351 406.778 378.285C406.778 378.219 406.765 378.154 406.739 378.093C406.714 378.032 406.677 377.976 406.63 377.93C406.535 377.838 406.407 377.786 406.275 377.786C406.142 377.786 406.015 377.838 405.92 377.93C399.31 384.78 390.92 407.56 392.74 427.66C392.748 427.791 392.807 427.913 392.904 428.001C393.001 428.089 393.129 428.135 393.26 428.13Z" fill="white"/>
<path d="M395.23 403.68C395.28 403.69 395.33 403.69 395.38 403.68C400.022 402.169 404.813 401.163 409.67 400.68C409.736 400.675 409.8 400.657 409.859 400.627C409.917 400.598 409.97 400.556 410.012 400.506C410.055 400.456 410.087 400.398 410.108 400.335C410.128 400.272 410.135 400.206 410.13 400.14C410.125 400.074 410.107 400.009 410.076 399.95C410.045 399.891 410.003 399.839 409.952 399.797C409.9 399.755 409.841 399.724 409.777 399.706C409.713 399.687 409.646 399.682 409.58 399.69C404.631 400.186 399.751 401.226 395.03 402.79C394.906 402.84 394.806 402.935 394.75 403.056C394.695 403.176 394.687 403.314 394.73 403.44C394.779 403.526 394.854 403.595 394.943 403.638C395.032 403.681 395.132 403.696 395.23 403.68Z" fill="white"/>
<path d="M124.94 54.4299C124.952 54.2433 124.986 54.0588 125.04 53.8799C125.03 53.8614 125.025 53.8408 125.025 53.8199C125.025 53.799 125.03 53.7784 125.04 53.7599C125.064 53.578 125.111 53.3999 125.18 53.2299C125.257 52.9602 125.375 52.7039 125.53 52.4699C125.577 52.3551 125.645 52.2499 125.73 52.1599C125.775 52.0784 125.832 52.0042 125.9 51.9399C126.015 51.7953 126.145 51.6645 126.29 51.5499C126.45 51.4362 126.621 51.3391 126.8 51.2599C127.458 51.0132 128.166 50.9307 128.863 51.0196C129.56 51.1084 130.225 51.366 130.8 51.7699L334.36 169.22C337.65 171.11 340.36 175.75 340.36 182.39V369.92C340.361 370.64 340.172 371.347 339.812 371.971C339.452 372.595 338.934 373.112 338.31 373.471C337.686 373.83 336.979 374.019 336.259 374.017C335.539 374.015 334.832 373.823 334.21 373.46L130.87 256C129.127 254.869 127.676 253.344 126.633 251.547C125.591 249.751 124.987 247.734 124.87 245.66V55.1699C124.91 54.9199 124.92 54.6599 124.94 54.4299Z" fill="#FAFAFA"/>
<path d="M128.23 51.8901C127.885 51.8803 127.542 51.9523 127.23 52.1001C127.134 52.138 127.043 52.1884 126.96 52.2501H126.9C126.826 52.3091 126.759 52.3762 126.7 52.4501L126.62 52.5601L126.55 52.6601L126.5 52.7201V52.8001L126.43 52.9101C126.331 53.0605 126.256 53.226 126.21 53.4001C126.19 53.4524 126.173 53.5059 126.16 53.5601V53.6401L126.04 54.0201C126.01 54.1246 125.99 54.2318 125.98 54.3401C125.98 54.5501 125.98 54.7801 125.98 55.0001V245.63C126.097 247.531 126.653 249.378 127.606 251.027C128.559 252.675 129.882 254.08 131.47 255.13L334.77 372.63C335.244 372.915 335.787 373.064 336.34 373.06C337.172 373.057 337.969 372.726 338.557 372.138C339.146 371.549 339.477 370.752 339.48 369.92V182.39C339.48 175.63 336.64 171.58 333.99 170.05L130.4 52.5601C129.747 52.1533 128.999 51.9225 128.23 51.8901ZM128.23 50.8901C129.166 50.9235 130.076 51.2029 130.87 51.7001L334.36 169.22C337.65 171.11 340.36 175.75 340.36 182.39V369.92C340.36 370.459 340.254 370.992 340.048 371.489C339.842 371.987 339.54 372.439 339.159 372.819C338.778 373.2 338.326 373.502 337.829 373.708C337.332 373.914 336.798 374.02 336.26 374.02C335.556 374.013 334.866 373.82 334.26 373.46L130.87 256C129.127 254.87 127.676 253.344 126.633 251.548C125.591 249.751 124.987 247.734 124.87 245.66V55.1701C124.87 54.9201 124.87 54.6601 124.87 54.4301C124.882 54.2436 124.916 54.059 124.97 53.8801C124.96 53.8616 124.955 53.841 124.955 53.8201C124.955 53.7992 124.96 53.7787 124.97 53.7601C124.994 53.5783 125.041 53.4002 125.11 53.2301C125.187 52.9604 125.305 52.7041 125.46 52.4701C125.507 52.3553 125.575 52.2502 125.66 52.1601C125.705 52.0786 125.762 52.0044 125.83 51.9401C125.945 51.7956 126.075 51.6647 126.22 51.5501C126.38 51.4365 126.551 51.3393 126.73 51.2601C127.158 51.0565 127.626 50.9538 128.1 50.9601L128.23 50.8901Z" fill="#E0E0E0"/>
<path d="M281.52 165.48L145.76 87.0898V93.3898L281.52 171.77C282.8 172.51 283.84 171.9 283.84 170.43V169.5C283.8 168.694 283.568 167.909 283.165 167.21C282.761 166.511 282.198 165.918 281.52 165.48Z" fill="#E0E0E0"/>
<path d="M134.86 80.7998L143.08 85.5398V91.8398L134.86 87.0898C134.187 86.6513 133.627 86.0608 133.224 85.3661C132.821 84.6713 132.587 83.8916 132.54 83.0898V82.1598C132.54 80.6598 133.58 80.0598 134.86 80.7998Z" fill="#E0E0E0"/>
<path d="M138.86 87.7998C139.023 87.8019 139.183 87.7567 139.32 87.6698C139.522 87.5249 139.682 87.3293 139.783 87.1028C139.885 86.8762 139.926 86.6268 139.9 86.3798C139.892 85.8382 139.756 85.3061 139.505 84.8266C139.253 84.3472 138.891 83.9337 138.45 83.6198C138.286 83.5097 138.096 83.4451 137.9 83.4328C137.703 83.4205 137.506 83.4609 137.33 83.5498C137.13 83.6961 136.971 83.8919 136.869 84.1181C136.768 84.3442 136.727 84.5929 136.75 84.8398C136.756 85.3818 136.89 85.9147 137.142 86.3946C137.394 86.8745 137.757 87.2876 138.2 87.5998C138.399 87.7225 138.626 87.7914 138.86 87.7998ZM137.8 83.9198C137.941 83.9275 138.078 83.9686 138.2 84.0398C138.568 84.311 138.87 84.6629 139.081 85.0684C139.293 85.474 139.409 85.9225 139.42 86.3798C139.438 86.5415 139.417 86.7053 139.358 86.8569C139.299 87.0085 139.203 87.1434 139.08 87.2498C138.978 87.2959 138.866 87.3137 138.755 87.3014C138.645 87.2891 138.539 87.2471 138.45 87.1798C138.082 86.9085 137.78 86.5567 137.569 86.1511C137.357 85.7456 137.242 85.297 137.23 84.8398C137.212 84.678 137.233 84.5143 137.292 84.3626C137.351 84.211 137.447 84.0762 137.57 83.9698C137.641 83.9335 137.72 83.9162 137.8 83.9198Z" fill="#FAFAFA"/>
<path d="M136.31 87.3799C136.359 87.3926 136.411 87.3926 136.46 87.3799L137.53 86.5699C137.573 86.5236 137.597 86.4629 137.597 86.3999C137.597 86.3368 137.573 86.2761 137.53 86.2299C137.512 86.2042 137.489 86.1825 137.463 86.166C137.436 86.1495 137.407 86.1386 137.376 86.1339C137.345 86.1293 137.313 86.1309 137.283 86.1388C137.253 86.1467 137.225 86.1607 137.2 86.1799L136.12 86.9899C136.077 87.0361 136.053 87.0968 136.053 87.1599C136.053 87.2229 136.077 87.2836 136.12 87.3299C136.146 87.3524 136.176 87.3686 136.209 87.3773C136.242 87.3859 136.277 87.3868 136.31 87.3799Z" fill="#FAFAFA"/>
<path d="M334.36 169.22C337.65 171.11 340.36 175.75 340.36 182.39V369.92C340.361 370.64 340.172 371.348 339.812 371.971C339.452 372.595 338.934 373.112 338.31 373.471C337.686 373.831 336.979 374.019 336.259 374.017C335.539 374.015 334.832 373.823 334.21 373.46L289 347.36V161.22L288.93 143L334.36 169.22Z" fill="#F0F0F0"/>
<path d="M289.92 144.67L290 161.22V346.81L334.68 372.63C335.154 372.915 335.697 373.064 336.25 373.06C337.082 373.057 337.879 372.726 338.467 372.137C339.056 371.549 339.387 370.752 339.39 369.92V182.39C339.39 175.63 336.55 171.58 333.9 170.05L289.9 144.67H289.92ZM288.9 143L334.31 169.22C337.6 171.11 340.31 175.75 340.31 182.39V369.92C340.31 370.458 340.204 370.992 339.998 371.489C339.792 371.986 339.49 372.438 339.109 372.819C338.728 373.2 338.276 373.502 337.779 373.708C337.282 373.914 336.748 374.02 336.21 374.02C335.506 374.013 334.816 373.82 334.21 373.46L289 347.36V161.22L288.93 143H288.9Z" fill="#E0E0E0"/>
<path d="M322.37 191.41L298.51 177.64C297.67 177.16 296.99 177.55 296.99 178.52V180.52C297.018 181.047 297.171 181.56 297.435 182.017C297.699 182.474 298.067 182.862 298.51 183.15L322.37 196.9C323.21 197.38 323.89 196.99 323.89 196.02V194.02C323.859 193.496 323.705 192.987 323.441 192.534C323.177 192.08 322.81 191.695 322.37 191.41Z" fill="#E0E0E0"/>
<path d="M328.64 196.79V198.79C328.669 199.317 328.822 199.83 329.086 200.287C329.35 200.743 329.718 201.132 330.16 201.42L330.77 201.79C331.61 202.28 332.29 201.88 332.29 200.91V198.91C332.261 198.382 332.108 197.868 331.844 197.409C331.58 196.95 331.212 196.56 330.77 196.27L330.16 195.9C329.32 195.42 328.64 195.82 328.64 196.79Z" fill="#374988"/>
<path d="M322.37 202.35L298.51 188.58C297.67 188.1 296.99 188.49 296.99 189.46V191.46C297.018 191.987 297.171 192.5 297.435 192.957C297.699 193.414 298.067 193.802 298.51 194.09L322.37 207.86C323.21 208.34 323.89 207.95 323.89 206.98V204.98C323.862 204.453 323.709 203.94 323.445 203.482C323.181 203.025 322.813 202.637 322.37 202.35Z" fill="#E0E0E0"/>
<path d="M328.64 207.73V209.73C328.668 210.257 328.821 210.77 329.085 211.227C329.349 211.684 329.717 212.072 330.16 212.36L330.77 212.73C331.61 213.22 332.29 212.83 332.29 211.86V209.86C332.261 209.331 332.108 208.817 331.844 208.359C331.58 207.9 331.212 207.51 330.77 207.22L330.16 206.85C329.32 206.36 328.64 206.76 328.64 207.73Z" fill="#374988"/>
<path d="M322.37 213.29L298.51 199.52C297.67 199.04 296.99 199.43 296.99 200.4V202.4C297.018 202.927 297.171 203.44 297.435 203.897C297.699 204.354 298.067 204.742 298.51 205.03L322.37 218.8C323.21 219.28 323.89 218.89 323.89 217.92V215.92C323.862 215.393 323.709 214.88 323.445 214.423C323.181 213.966 322.813 213.578 322.37 213.29Z" fill="#E0E0E0"/>
<path d="M328.64 218.67V220.67C328.668 221.197 328.821 221.71 329.085 222.167C329.349 222.624 329.717 223.013 330.16 223.3L330.77 223.67C331.61 224.16 332.29 223.77 332.29 222.8V220.8C332.261 220.272 332.108 219.758 331.844 219.299C331.58 218.841 331.212 218.451 330.77 218.16L330.16 217.79C329.32 217.31 328.64 217.7 328.64 218.67Z" fill="#374988"/>
<path d="M322.37 249.57L298.51 235.8C297.67 235.32 296.99 235.71 296.99 236.68V238.68C297.018 239.207 297.171 239.72 297.435 240.177C297.699 240.634 298.067 241.022 298.51 241.31L322.37 255.08C323.21 255.56 323.89 255.17 323.89 254.2V252.2C323.862 251.673 323.709 251.16 323.445 250.703C323.181 250.246 322.813 249.858 322.37 249.57Z" fill="#E0E0E0"/>
<path d="M328.64 255V257C328.668 257.527 328.821 258.04 329.085 258.497C329.349 258.954 329.717 259.342 330.16 259.63L330.77 260C331.61 260.49 332.29 260.1 332.29 259.13V257.13C332.261 256.602 332.108 256.087 331.844 255.629C331.58 255.17 331.212 254.78 330.77 254.49L330.16 254.12C329.32 253.59 328.64 254 328.64 255Z" fill="#374988"/>
<path d="M322.37 259.26L298.51 245.49C297.67 245.01 296.99 245.4 296.99 246.37V248.37C297.018 248.897 297.171 249.41 297.435 249.867C297.699 250.324 298.067 250.712 298.51 251L322.37 264.77C323.21 265.25 323.89 264.86 323.89 263.89V261.89C323.862 261.363 323.709 260.85 323.445 260.393C323.181 259.936 322.813 259.547 322.37 259.26Z" fill="#E0E0E0"/>
<path d="M328.64 264.64V266.64C328.668 267.167 328.821 267.68 329.085 268.137C329.349 268.594 329.717 268.982 330.16 269.27L330.77 269.64C331.61 270.13 332.29 269.74 332.29 268.77V266.77C332.261 266.242 332.108 265.727 331.844 265.269C331.58 264.81 331.212 264.42 330.77 264.13L330.16 263.76C329.32 263.28 328.64 263.67 328.64 264.64Z" fill="#374988"/>
<path d="M322.37 269L298.51 255.23C297.67 254.75 296.99 255.14 296.99 256.11V258.11C297.018 258.637 297.171 259.15 297.435 259.607C297.699 260.064 298.067 260.452 298.51 260.74L322.37 274.51C323.21 274.99 323.89 274.6 323.89 273.63V271.63C323.862 271.103 323.709 270.59 323.445 270.133C323.181 269.676 322.813 269.288 322.37 269Z" fill="#E0E0E0"/>
<path d="M328.64 274.33V276.33C328.668 276.857 328.821 277.37 329.085 277.827C329.349 278.284 329.717 278.672 330.16 278.96L330.77 279.33C331.61 279.82 332.29 279.43 332.29 278.46V276.46C332.261 275.932 332.108 275.417 331.844 274.959C331.58 274.5 331.212 274.11 330.77 273.82L330.16 273.45C329.32 273 328.64 273.36 328.64 274.33Z" fill="#374988"/>
<path d="M322.78 224.61V228.03L319.82 224.61H322.78Z" fill="#374988"/>
<path d="M318 223.91C318 224.54 317.55 224.8 317 224.47L298 213.53C297.708 213.337 297.465 213.078 297.291 212.774C297.117 212.47 297.018 212.13 297 211.78C297 211.14 297.45 210.88 298 211.2L317 222.2C317.288 222.388 317.529 222.64 317.702 222.937C317.876 223.233 317.978 223.567 318 223.91Z" fill="#E0E0E0"/>
<path d="M322.78 230.1V233.52L319.82 230.1H322.78Z" fill="#374988"/>
<path d="M318 229.4C318 230.03 317.55 230.28 317 229.96L298 219C297.708 218.807 297.465 218.549 297.291 218.245C297.117 217.941 297.018 217.6 297 217.25C297 216.61 297.45 216.35 298 216.67L317 227.67C317.291 227.86 317.533 228.115 317.707 228.416C317.88 228.716 317.981 229.054 318 229.4Z" fill="#E0E0E0"/>
<path d="M322.78 235.59V239L319.82 235.59H322.78Z" fill="#374988"/>
<path d="M318 234.89C318 235.52 317.55 235.77 317 235.45L298 224.51C297.709 224.316 297.467 224.057 297.293 223.753C297.119 223.449 297.019 223.109 297 222.76C297 222.12 297.45 221.86 298 222.18L317 233.18C317.288 233.367 317.529 233.62 317.702 233.917C317.876 234.213 317.978 234.547 318 234.89Z" fill="#E0E0E0"/>
<path d="M322.78 241.08V244.49L319.82 241.08H322.78Z" fill="#374988"/>
<path d="M318 240.38C318 241.01 317.55 241.26 317 240.94L298 230C297.709 229.806 297.467 229.547 297.293 229.243C297.119 228.94 297.019 228.6 297 228.25C297 227.61 297.45 227.35 298 227.67L317 238.67C317.289 238.857 317.531 239.109 317.704 239.406C317.878 239.703 317.979 240.037 318 240.38Z" fill="#E0E0E0"/>
<path d="M126.86 51.2199C127.518 50.9732 128.226 50.8907 128.923 50.9796C129.62 51.0684 130.285 51.326 130.86 51.7299L334.36 169.22C336.102 170.348 337.554 171.872 338.596 173.667C339.639 175.462 340.243 177.477 340.36 179.55V191.12L347.97 186.65V175.22C347.856 173.153 347.256 171.142 346.218 169.351C345.181 167.559 343.736 166.038 342 164.91L138.49 47.4199C136.79 46.4199 135.26 46.4199 134.16 47.0699C133.06 47.7199 128.13 50.5499 126.86 51.2199Z" fill="#374988"/>
<path d="M124.92 55.1298C124.92 51.3698 127.6 49.8398 130.92 51.7398L334.36 169.22C336.103 170.347 337.556 171.87 338.599 173.665C339.641 175.461 340.245 177.477 340.36 179.55V191.13L124.92 66.7798V55.1298Z" fill="#374988"/>
<g opacity="0.2">
<path opacity="0.2" d="M130.88 51.7301L334.36 169.22C336.108 170.319 337.552 171.839 338.56 173.64L346.13 169.26C345.148 167.478 343.726 165.978 342 164.9L138.49 47.4201C137.87 46.97 137.139 46.6985 136.375 46.635C135.612 46.5715 134.846 46.7186 134.16 47.0601C133.09 47.7201 128.16 50.5301 126.88 51.2101C127.539 50.964 128.247 50.8827 128.945 50.9733C129.642 51.0639 130.306 51.3238 130.88 51.7301Z" fill="white"/>
</g>
<path opacity="0.15" d="M347.95 186.68V175.22C347.874 173.096 347.247 171.028 346.13 169.22L338.54 173.59C339.64 175.374 340.254 177.415 340.32 179.51V191.09L347.95 186.68Z" fill="#353841"/>
<path d="M148.42 67.3797C149.67 68.0997 150.69 70.2497 150.69 72.1797C150.69 74.1097 149.69 75.0797 148.42 74.3597C147.15 73.6397 146.16 71.4897 146.16 69.5597C146.16 67.6297 147.17 66.6597 148.42 67.3797Z" fill="#353841"/>
<path d="M140.26 62.66C141.52 63.38 142.53 65.53 142.53 67.46C142.53 69.39 141.53 70.36 140.26 69.64C138.99 68.92 138 66.77 138 64.84C138 62.91 139 61.94 140.26 62.66Z" fill="#353841"/>
<path d="M132.11 57.9398C133.36 58.6698 134.37 60.8098 134.37 62.7398C134.37 64.6698 133.37 65.6398 132.11 64.9198C130.85 64.1998 129.84 62.0498 129.84 60.1198C129.84 58.1898 130.85 57.2198 132.11 57.9398Z" fill="#353841"/>
<path d="M338.5 373.35L344.78 369.72C345.618 369.237 346.334 368.568 346.875 367.766C347.416 366.963 347.766 366.048 347.9 365.09C347.915 364.804 347.915 364.517 347.9 364.23V186.66L340.28 191.12V369.92C340.279 370.134 340.262 370.348 340.23 370.56C340.214 370.676 340.187 370.79 340.15 370.9C340.16 370.95 340.16 371.001 340.15 371.05C340.117 371.177 340.074 371.301 340.02 371.42C340.021 371.437 340.021 371.454 340.02 371.47L339.81 371.91C339.73 372.05 339.63 372.19 339.54 372.32C339.469 372.421 339.392 372.518 339.31 372.61C338.993 372.974 338.614 373.279 338.19 373.51L338.5 373.35Z" fill="#E0E0E0"/>
<path d="M272.58 448.7C273.799 448.729 275.004 448.443 276.08 447.87L319 423.1L316.83 421.84L319.9 419.12C320.01 419.021 320.095 418.896 320.147 418.757C320.2 418.617 320.218 418.468 320.2 418.32C320.176 418.16 320.113 418.008 320.018 417.877C319.922 417.747 319.796 417.641 319.65 417.57L300.47 406.49C299.947 406.223 299.34 406.172 298.78 406.35L293.91 408.18C293.773 408.226 293.628 408.244 293.484 408.234C293.34 408.223 293.199 408.185 293.07 408.12L256.8 387.18L256.55 387.33L214.44 411.64C214.029 411.876 213.688 412.217 213.453 412.629C213.217 413.04 213.096 413.506 213.1 413.98C213.096 414.454 213.22 414.92 213.457 415.329C213.694 415.739 214.037 416.078 214.45 416.31L269.09 447.87C270.164 448.439 271.365 448.724 272.58 448.7ZM317 423.1L275.6 447C274.668 447.463 273.641 447.703 272.6 447.703C271.559 447.703 270.532 447.463 269.6 447L214.95 415.44C214.692 415.292 214.478 415.079 214.33 414.821C214.181 414.564 214.103 414.272 214.103 413.975C214.103 413.678 214.181 413.386 214.33 413.129C214.478 412.872 214.692 412.658 214.95 412.51L256.8 388.35L292.55 409C292.806 409.137 293.087 409.22 293.376 409.244C293.664 409.268 293.955 409.233 294.23 409.14L299.11 407.31C299.248 407.266 299.393 407.25 299.537 407.262C299.681 407.274 299.821 407.314 299.95 407.38L319.14 418.45L316.06 421.17C315.95 421.27 315.866 421.395 315.814 421.534C315.762 421.673 315.743 421.823 315.76 421.97C315.788 422.129 315.852 422.279 315.947 422.409C316.043 422.539 316.167 422.646 316.31 422.72L317 423.1Z" fill="#E0E0E0"/>
<path d="M248 448.72C249.22 448.738 250.424 448.446 251.5 447.87L294.45 423.1L292.27 421.84L295.35 419.12C295.46 419.021 295.545 418.896 295.597 418.757C295.649 418.617 295.668 418.468 295.65 418.32C295.622 418.161 295.558 418.011 295.463 417.881C295.367 417.751 295.243 417.645 295.1 417.57L275.91 406.49C275.39 406.223 274.786 406.173 274.23 406.35L269.36 408.18C269.08 408.272 268.775 408.25 268.51 408.12L232.25 387.18L231.99 387.33L199.73 406L200.23 406.87L232.23 388.39L268 409C268.256 409.137 268.536 409.22 268.825 409.244C269.114 409.268 269.405 409.233 269.68 409.14L274.55 407.31C274.832 407.222 275.137 407.247 275.4 407.38L294.58 418.45L291.51 421.18C291.4 421.278 291.315 421.401 291.263 421.538C291.21 421.676 291.192 421.824 291.21 421.97C291.234 422.13 291.297 422.282 291.392 422.413C291.488 422.544 291.614 422.649 291.76 422.72L292.42 423.11L251 447C250.068 447.463 249.041 447.703 248 447.703C246.959 447.703 245.932 447.463 245 447L199.76 420.87L199.26 421.75L244.5 447.87C245.576 448.446 246.78 448.738 248 448.72Z" fill="#CC2593"/>
<path d="M188.82 424C193.087 424.087 197.307 423.085 201.08 421.09C204.47 419.09 206.31 416.49 206.27 413.66C206.23 410.83 204.35 408.29 201.01 406.36C194.24 402.45 183.22 402.45 176.45 406.36C173.07 408.31 171.22 410.93 171.23 413.73C171.24 416.53 173.12 419.15 176.51 421.09C180.303 423.081 184.537 424.082 188.82 424ZM200.57 420.21C194.11 423.94 183.57 423.94 177.01 420.21C173.95 418.46 172.25 416.16 172.24 413.73C172.23 411.3 173.9 408.99 176.95 407.23C183.45 403.48 194.01 403.48 200.51 407.23C203.51 408.98 205.22 411.23 205.26 413.68C205.3 416.13 203.63 418.45 200.57 420.21Z" fill="#CC2593"/>
<path d="M183.16 418C183.335 418.001 183.508 417.956 183.66 417.87L194.84 411.41C194.954 411.344 195.055 411.257 195.135 411.152C195.215 411.048 195.274 410.929 195.309 410.802C195.343 410.674 195.352 410.542 195.335 410.411C195.318 410.28 195.276 410.154 195.21 410.04C195.144 409.926 195.057 409.826 194.952 409.745C194.848 409.665 194.729 409.606 194.602 409.571C194.474 409.537 194.342 409.528 194.211 409.545C194.08 409.562 193.954 409.604 193.84 409.67L182.65 416.12C182.535 416.186 182.434 416.275 182.354 416.38C182.273 416.486 182.214 416.606 182.181 416.735C182.147 416.863 182.14 416.997 182.158 417.128C182.177 417.26 182.222 417.386 182.29 417.5C182.378 417.653 182.505 417.779 182.658 417.867C182.811 417.955 182.984 418.001 183.16 418Z" fill="#CC2593"/>
<path d="M194.34 418C194.565 418.006 194.785 417.936 194.965 417.801C195.145 417.667 195.274 417.475 195.332 417.258C195.39 417.04 195.373 416.81 195.284 416.604C195.194 416.397 195.038 416.227 194.84 416.12L183.66 409.67C183.547 409.604 183.421 409.56 183.291 409.543C183.16 409.525 183.028 409.533 182.9 409.566C182.773 409.599 182.654 409.658 182.549 409.737C182.444 409.817 182.356 409.917 182.29 410.03C182.222 410.144 182.177 410.271 182.158 410.402C182.14 410.534 182.147 410.667 182.181 410.796C182.214 410.924 182.273 411.045 182.354 411.15C182.434 411.256 182.535 411.344 182.65 411.41L193.84 417.87C193.992 417.957 194.165 418.002 194.34 418Z" fill="#CC2593"/>
<path d="M337.1 143.41C336.1 144.04 331.35 146.74 330.16 147.35C330.791 147.12 331.469 147.047 332.134 147.137C332.8 147.228 333.434 147.48 333.98 147.87L413.37 193.73C415.016 194.812 416.384 196.267 417.363 197.977C418.341 199.686 418.902 201.603 419 203.57V293.93C419.041 295.564 418.438 297.148 417.32 298.34C417.187 298.465 417.047 298.582 416.9 298.69C421.43 295.47 426.17 295.52 426.26 289.8V199.44C426.149 197.47 425.578 195.553 424.591 193.844C423.605 192.135 422.231 190.682 420.58 189.6L341.19 143.74C340.597 143.332 339.907 143.086 339.189 143.028C338.471 142.971 337.751 143.102 337.1 143.41Z" fill="#353841"/>
<path d="M331.45 147.09C332.349 147.123 333.224 147.388 333.99 147.86L413.37 193.72C415.013 194.805 416.378 196.261 417.356 197.97C418.334 199.679 418.897 201.594 419 203.56V293.92C419 296.78 417.41 299.22 415.19 299.22C414.526 299.202 413.879 299.012 413.31 298.67L333.83 252.78C332.192 251.704 330.829 250.259 329.852 248.56C328.874 246.861 328.308 244.957 328.2 243L328.31 151.19C328.31 148.62 329.59 147.19 331.45 147.19V147.09Z" fill="#353841"/>
<path d="M334 147.86L413.36 193.72C415.029 194.766 416.405 196.218 417.36 197.94L424.58 193.76C423.625 192.056 422.248 190.627 420.58 189.61L341.19 143.75C340.599 143.324 339.903 143.067 339.177 143.007C338.451 142.947 337.723 143.086 337.07 143.41C336.07 144.04 331.33 146.72 330.14 147.41C330.77 147.16 331.453 147.07 332.127 147.149C332.8 147.227 333.444 147.472 334 147.86Z" fill="#455A64"/>
<path d="M393.61 199.43V253.43C393.61 255.9 391.88 256.9 389.74 255.67L342.98 228.67C341.857 227.939 340.921 226.955 340.247 225.797C339.573 224.638 339.18 223.338 339.1 222V168C339.1 165.53 340.83 164.53 342.97 165.76L389.73 192.76C390.854 193.491 391.79 194.475 392.464 195.633C393.138 196.792 393.531 198.092 393.61 199.43Z" fill="#374988"/>
<path opacity="0.3" d="M360.6 190.24C360.6 187.77 362.34 186.77 364.48 188L393.61 204.82V253.42C393.61 255.89 391.88 256.89 389.74 255.66L360.61 238.84L360.6 190.24Z" fill="#353841"/>
<path d="M408.14 224.6V278.6C408.14 281.07 406.41 282.07 404.27 280.84L357.51 253.84C356.382 253.105 355.444 252.115 354.772 250.949C354.099 249.783 353.711 248.474 353.64 247.13V193.13C353.64 190.66 355.37 189.66 357.51 190.89L404.27 217.89C405.397 218.626 406.334 219.617 407.006 220.783C407.679 221.949 408.067 223.257 408.14 224.6Z" fill="#374988"/>
<path opacity="0.3" d="M408.14 224.6V278.6C408.14 281.07 406.41 282.07 404.27 280.84L357.51 253.84C356.382 253.105 355.444 252.115 354.772 250.949C354.099 249.783 353.711 248.474 353.64 247.13V193.13C353.64 190.66 355.37 189.66 357.51 190.89L404.27 217.89C405.397 218.626 406.334 219.617 407.006 220.783C407.679 221.949 408.067 223.257 408.14 224.6Z" fill="white"/>
<path d="M364.54 231.57V226.11C364.54 225.11 365.23 224.72 366.08 225.22L375.44 230.62V219.82C375.44 218.82 376.13 218.43 376.99 218.92L381.71 221.65C382.161 221.944 382.536 222.339 382.806 222.805C383.075 223.271 383.231 223.793 383.26 224.33V235.13L392.61 240.53C393.062 240.823 393.437 241.219 393.707 241.684C393.976 242.15 394.131 242.673 394.16 243.21V248.67C394.16 249.67 393.47 250.05 392.61 249.56L383.26 244.16V255C383.26 256 382.56 256.39 381.71 255.89L376.99 253.17C376.538 252.875 376.163 252.478 375.893 252.011C375.624 251.543 375.469 251.019 375.44 250.48V239.65L366.08 234.25C365.633 233.954 365.26 233.558 364.993 233.092C364.726 232.627 364.571 232.106 364.54 231.57Z" fill="white"/>
<path d="M302.47 266.61L308 263.42V320.4L302.47 323.58L291.76 301.1L276.52 292.31L302.47 266.61Z" fill="#E0E0E0"/>
<path d="M302.47 324.06C302.557 324.06 302.643 324.04 302.72 324L308.24 320.81C308.312 320.768 308.372 320.709 308.414 320.637C308.456 320.565 308.479 320.483 308.48 320.4V263.4C308.478 263.316 308.455 263.233 308.413 263.16C308.371 263.086 308.312 263.025 308.24 262.98C308.164 262.941 308.08 262.92 307.995 262.92C307.91 262.92 307.826 262.941 307.75 262.98L302.23 266.17L302.14 266.24L276.19 292C276.137 292.053 276.096 292.118 276.072 292.189C276.048 292.26 276.04 292.335 276.05 292.41C276.058 292.482 276.083 292.552 276.123 292.613C276.163 292.673 276.217 292.724 276.28 292.76L291.39 301.48L302 323.79C302.029 323.849 302.069 323.902 302.119 323.945C302.169 323.988 302.227 324.02 302.29 324.04C302.347 324.062 302.409 324.069 302.47 324.06ZM307.47 320.12L302.65 322.91L292.15 300.91C292.109 300.822 292.043 300.749 291.96 300.7L277.27 292.22L302.77 267L307.51 264.26L307.47 320.12Z" fill="#089641"/>
<path d="M302.47 266.61V323.58L291.76 301.1L276.52 292.31L302.47 266.61Z" fill="#FAFAFA"/>
<path d="M302.47 324.06H302.58C302.688 324.037 302.784 323.978 302.853 323.892C302.922 323.807 302.96 323.7 302.96 323.59V266.59C302.962 266.494 302.936 266.4 302.884 266.319C302.832 266.238 302.757 266.175 302.669 266.137C302.58 266.099 302.483 266.089 302.388 266.107C302.294 266.126 302.208 266.172 302.14 266.24L276.19 292C276.137 292.053 276.096 292.118 276.072 292.189C276.048 292.26 276.04 292.335 276.05 292.41C276.058 292.482 276.083 292.552 276.123 292.613C276.163 292.673 276.217 292.724 276.28 292.76L291.39 301.48L302 323.79C302.041 323.878 302.108 323.951 302.192 324C302.276 324.048 302.373 324.069 302.47 324.06ZM301.99 267.76V321.45L292.19 300.89C292.149 300.802 292.083 300.729 292 300.68L277.31 292.2L301.99 267.76Z" fill="#089641"/>
<path d="M318.21 263.32L323.73 260.13V317.11L318.21 320.29L307.49 297.81L292.26 289.01L318.21 263.32Z" fill="#089641"/>
<path d="M318.21 263.32V320.29L307.49 297.81L292.26 289.01L318.21 263.32Z" fill="#089641"/>
<path d="M198 277.57C198.078 277.57 198.155 277.548 198.222 277.508C198.289 277.467 198.344 277.409 198.38 277.34C198.439 277.238 198.455 277.116 198.425 277.002C198.395 276.888 198.321 276.791 198.22 276.73L195.9 275.39C195.797 275.33 195.674 275.314 195.558 275.345C195.443 275.376 195.345 275.452 195.285 275.555C195.225 275.659 195.209 275.781 195.24 275.897C195.271 276.012 195.347 276.11 195.45 276.17L197.77 277.51C197.84 277.55 197.919 277.571 198 277.57ZM201.22 276.76C201.279 276.761 201.337 276.751 201.392 276.73C201.446 276.708 201.496 276.676 201.538 276.635C201.58 276.594 201.613 276.545 201.636 276.491C201.658 276.437 201.67 276.379 201.67 276.32C201.674 276.297 201.674 276.273 201.67 276.25V273.61C201.67 273.491 201.623 273.376 201.538 273.292C201.454 273.208 201.339 273.16 201.22 273.16C201.101 273.16 200.986 273.208 200.902 273.292C200.817 273.376 200.77 273.491 200.77 273.61V276.3C200.77 276.422 200.819 276.539 200.905 276.625C200.991 276.712 201.108 276.76 201.23 276.76H201.22ZM191.8 273.99C191.9 273.994 191.998 273.964 192.079 273.904C192.159 273.845 192.217 273.76 192.242 273.663C192.268 273.567 192.26 273.464 192.219 273.373C192.179 273.281 192.109 273.206 192.02 273.16L189.7 271.82C189.65 271.79 189.594 271.77 189.536 271.761C189.477 271.753 189.418 271.756 189.361 271.771C189.304 271.786 189.251 271.812 189.205 271.848C189.158 271.884 189.119 271.929 189.09 271.98C189.031 272.082 189.015 272.204 189.045 272.318C189.075 272.432 189.149 272.53 189.25 272.59L191.58 273.93C191.649 273.973 191.729 273.998 191.81 274L191.8 273.99ZM185.61 270.42C185.688 270.42 185.765 270.399 185.832 270.358C185.899 270.317 185.954 270.259 185.99 270.19C186.049 270.088 186.065 269.966 186.035 269.852C186.005 269.738 185.931 269.641 185.83 269.58L183.5 268.24C183.449 268.204 183.39 268.179 183.329 268.167C183.267 268.154 183.203 268.155 183.142 268.169C183.081 268.183 183.023 268.21 182.973 268.247C182.922 268.285 182.88 268.332 182.849 268.387C182.818 268.442 182.799 268.502 182.793 268.565C182.787 268.628 182.794 268.691 182.814 268.75C182.834 268.81 182.866 268.865 182.909 268.911C182.951 268.958 183.003 268.995 183.06 269.02L185.38 270.36C185.453 270.402 185.536 270.422 185.62 270.42H185.61ZM201.22 269.59C201.339 269.59 201.454 269.543 201.538 269.458C201.623 269.374 201.67 269.259 201.67 269.14V266.46C201.67 266.341 201.623 266.226 201.538 266.142C201.454 266.058 201.339 266.01 201.22 266.01C201.101 266.01 200.986 266.058 200.902 266.142C200.817 266.226 200.77 266.341 200.77 266.46V269.14C200.77 269.2 200.782 269.259 200.805 269.315C200.828 269.37 200.863 269.42 200.905 269.462C200.948 269.504 200.999 269.537 201.055 269.559C201.111 269.581 201.17 269.591 201.23 269.59H201.22ZM179.41 266.84C179.488 266.839 179.565 266.818 179.633 266.78C179.701 266.741 179.758 266.686 179.8 266.62C179.858 266.517 179.872 266.394 179.841 266.28C179.809 266.166 179.733 266.069 179.63 266.01L177.31 264.67C177.21 264.628 177.097 264.624 176.994 264.659C176.891 264.694 176.804 264.765 176.749 264.859C176.694 264.953 176.675 265.063 176.695 265.17C176.716 265.277 176.774 265.373 176.86 265.44L179.19 266.78C179.26 266.821 179.339 266.842 179.42 266.84H179.41ZM173.21 263.27C173.29 263.272 173.369 263.251 173.438 263.211C173.507 263.17 173.563 263.111 173.6 263.04C173.659 262.938 173.675 262.816 173.645 262.702C173.615 262.588 173.541 262.491 173.44 262.43L171.11 261.09C171.059 261.054 171 261.029 170.939 261.017C170.877 261.004 170.813 261.005 170.752 261.019C170.691 261.033 170.633 261.06 170.583 261.097C170.532 261.135 170.49 261.182 170.459 261.237C170.428 261.292 170.409 261.352 170.403 261.415C170.397 261.478 170.404 261.541 170.424 261.6C170.444 261.66 170.476 261.715 170.519 261.761C170.561 261.808 170.613 261.845 170.67 261.87L173 263.21C173.067 263.248 173.143 263.269 173.22 263.27H173.21ZM201.21 262.44C201.329 262.44 201.444 262.393 201.528 262.308C201.613 262.224 201.66 262.109 201.66 261.99V259.31C201.66 259.191 201.613 259.076 201.528 258.992C201.444 258.907 201.329 258.86 201.21 258.86C201.091 258.86 200.976 258.907 200.892 258.992C200.807 259.076 200.76 259.191 200.76 259.31V262C200.761 262.06 200.775 262.119 200.799 262.174C200.823 262.229 200.859 262.278 200.902 262.319C200.946 262.36 200.998 262.392 201.054 262.413C201.11 262.433 201.17 262.443 201.23 262.44H201.21ZM167.01 259.69C167.106 259.686 167.198 259.651 167.272 259.591C167.347 259.531 167.4 259.448 167.425 259.356C167.449 259.263 167.444 259.165 167.409 259.076C167.374 258.987 167.311 258.911 167.23 258.86L164.91 257.52C164.859 257.49 164.802 257.469 164.743 257.461C164.684 257.452 164.624 257.456 164.567 257.471C164.509 257.485 164.455 257.512 164.407 257.548C164.36 257.584 164.32 257.629 164.29 257.68C164.232 257.784 164.218 257.906 164.25 258.02C164.281 258.134 164.357 258.231 164.46 258.29L166.78 259.63C166.847 259.668 166.923 259.689 167 259.69H167.01ZM160.81 256.12C160.889 256.119 160.967 256.097 161.035 256.056C161.104 256.016 161.16 255.959 161.2 255.89C161.258 255.787 161.272 255.664 161.241 255.55C161.209 255.436 161.133 255.339 161.03 255.28L158.71 253.94C158.606 253.882 158.484 253.868 158.37 253.9C158.256 253.931 158.159 254.007 158.1 254.11C158.041 254.212 158.025 254.334 158.055 254.448C158.085 254.562 158.159 254.66 158.26 254.72L160.59 256.06C160.662 256.103 160.746 256.124 160.83 256.12H160.81ZM201.21 255.28C201.329 255.28 201.444 255.233 201.528 255.148C201.613 255.064 201.66 254.949 201.66 254.83V252.15C201.66 252.091 201.648 252.032 201.626 251.978C201.603 251.923 201.57 251.874 201.528 251.832C201.486 251.79 201.437 251.757 201.382 251.734C201.328 251.712 201.269 251.7 201.21 251.7C201.151 251.7 201.092 251.712 201.038 251.734C200.983 251.757 200.934 251.79 200.892 251.832C200.85 251.874 200.817 251.923 200.794 251.978C200.772 252.032 200.76 252.091 200.76 252.15V254.83C200.76 254.891 200.772 254.951 200.796 255.007C200.82 255.063 200.855 255.114 200.899 255.156C200.943 255.198 200.995 255.23 201.052 255.252C201.109 255.273 201.169 255.283 201.23 255.28H201.21ZM154.61 252.54C154.689 252.542 154.767 252.522 154.835 252.483C154.904 252.445 154.961 252.388 155 252.32C155.059 252.218 155.075 252.096 155.045 251.982C155.015 251.868 154.941 251.771 154.84 251.71L152.51 250.37C152.46 250.338 152.404 250.317 152.346 250.308C152.287 250.299 152.227 250.302 152.17 250.317C152.113 250.332 152.059 250.359 152.013 250.395C151.966 250.432 151.928 250.478 151.9 250.53C151.842 250.634 151.828 250.756 151.86 250.87C151.891 250.984 151.967 251.081 152.07 251.14L154.39 252.48C154.463 252.522 154.546 252.542 154.63 252.54H154.61ZM148.42 248.97C148.498 248.97 148.575 248.948 148.642 248.908C148.709 248.867 148.764 248.809 148.8 248.74C148.83 248.69 148.85 248.634 148.859 248.576C148.867 248.517 148.864 248.458 148.849 248.401C148.834 248.344 148.808 248.291 148.772 248.245C148.736 248.198 148.691 248.159 148.64 248.13L146.32 246.79C146.217 246.73 146.094 246.714 145.978 246.745C145.863 246.776 145.765 246.852 145.705 246.955C145.645 247.059 145.629 247.181 145.66 247.297C145.691 247.412 145.767 247.51 145.87 247.57L148.19 248.91C148.263 248.964 148.35 248.995 148.44 249L148.42 248.97ZM201.21 248.13C201.329 248.13 201.444 248.083 201.528 247.998C201.613 247.914 201.66 247.799 201.66 247.68V245C201.66 244.881 201.613 244.766 201.528 244.682C201.444 244.598 201.329 244.55 201.21 244.55C201.091 244.55 200.976 244.598 200.892 244.682C200.807 244.766 200.76 244.881 200.76 245V247.68C200.76 247.741 200.772 247.801 200.796 247.857C200.82 247.913 200.855 247.964 200.899 248.006C200.943 248.048 200.995 248.08 201.052 248.102C201.109 248.123 201.169 248.133 201.23 248.13H201.21ZM142.77 244.76C142.839 244.778 142.911 244.778 142.98 244.76C143.032 244.734 143.079 244.697 143.117 244.652C143.155 244.608 143.184 244.556 143.201 244.5C143.219 244.444 143.225 244.385 143.22 244.327C143.215 244.269 143.198 244.212 143.17 244.16C142.864 243.59 142.693 242.957 142.67 242.31V241.77C142.654 241.664 142.6 241.566 142.519 241.496C142.437 241.426 142.333 241.387 142.225 241.387C142.117 241.387 142.013 241.426 141.931 241.496C141.85 241.566 141.796 241.664 141.78 241.77V242.31C141.799 243.1 142.004 243.875 142.38 244.57C142.424 244.637 142.486 244.69 142.558 244.723C142.631 244.757 142.711 244.77 142.79 244.76H142.77ZM201.23 241C201.348 241 201.461 240.954 201.545 240.872C201.629 240.79 201.677 240.678 201.68 240.56V237.87C201.68 237.751 201.633 237.636 201.548 237.552C201.464 237.468 201.349 237.42 201.23 237.42C201.111 237.42 200.996 237.468 200.912 237.552C200.827 237.636 200.78 237.751 200.78 237.87V240.56C200.783 240.678 200.831 240.79 200.915 240.872C200.999 240.954 201.112 241 201.23 241ZM142.23 237.73C142.349 237.73 142.464 237.683 142.548 237.598C142.633 237.514 142.68 237.399 142.68 237.28V234.6C142.69 234.536 142.685 234.471 142.667 234.408C142.65 234.346 142.618 234.289 142.576 234.24C142.534 234.191 142.482 234.151 142.423 234.124C142.364 234.097 142.3 234.083 142.235 234.083C142.17 234.083 142.106 234.097 142.047 234.124C141.989 234.151 141.936 234.191 141.894 234.24C141.852 234.289 141.821 234.346 141.803 234.408C141.785 234.471 141.78 234.536 141.79 234.6V237.28C141.798 237.394 141.848 237.501 141.932 237.579C142.016 237.657 142.126 237.7 142.24 237.7L142.23 237.73ZM201.23 233.85C201.349 233.85 201.464 233.803 201.548 233.718C201.633 233.634 201.68 233.519 201.68 233.4V230.72C201.68 230.601 201.633 230.486 201.548 230.402C201.464 230.317 201.349 230.27 201.23 230.27C201.111 230.27 200.996 230.317 200.912 230.402C200.827 230.486 200.78 230.601 200.78 230.72V233.4C200.788 233.514 200.838 233.621 200.922 233.699C201.006 233.777 201.116 233.82 201.23 233.82V233.85ZM142.23 230.57C142.347 230.57 142.459 230.524 142.541 230.441C142.624 230.359 142.67 230.247 142.67 230.13V227.44C142.654 227.334 142.6 227.236 142.519 227.166C142.437 227.096 142.333 227.057 142.225 227.057C142.117 227.057 142.013 227.096 141.931 227.166C141.85 227.236 141.796 227.334 141.78 227.44V230.13C141.79 230.246 141.845 230.353 141.932 230.43C142.02 230.506 142.134 230.546 142.25 230.54L142.23 230.57ZM201.23 226.7C201.349 226.7 201.464 226.653 201.548 226.568C201.633 226.484 201.68 226.369 201.68 226.25V223.57C201.68 223.451 201.633 223.336 201.548 223.252C201.464 223.168 201.349 223.12 201.23 223.12C201.111 223.12 200.996 223.168 200.912 223.252C200.827 223.336 200.78 223.451 200.78 223.57V226.25C200.788 226.364 200.838 226.471 200.922 226.549C201.006 226.627 201.116 226.67 201.23 226.67V226.7ZM142.23 223.42C142.348 223.417 142.46 223.369 142.542 223.285C142.624 223.201 142.67 223.088 142.67 222.97V220.29C142.68 220.226 142.675 220.161 142.657 220.098C142.639 220.036 142.608 219.979 142.566 219.93C142.524 219.881 142.472 219.841 142.413 219.814C142.354 219.787 142.29 219.773 142.225 219.773C142.16 219.773 142.096 219.787 142.037 219.814C141.979 219.841 141.926 219.881 141.884 219.93C141.842 219.979 141.811 220.036 141.793 220.098C141.775 220.161 141.77 220.226 141.78 220.29V222.97C141.788 223.088 141.841 223.198 141.929 223.276C142.017 223.355 142.132 223.396 142.25 223.39L142.23 223.42ZM201.23 219.54C201.349 219.54 201.464 219.493 201.548 219.408C201.633 219.324 201.68 219.209 201.68 219.09V216.41C201.68 216.291 201.633 216.176 201.548 216.092C201.464 216.007 201.349 215.96 201.23 215.96C201.111 215.96 200.996 216.007 200.912 216.092C200.827 216.176 200.78 216.291 200.78 216.41V219.09C200.788 219.204 200.838 219.311 200.922 219.389C201.006 219.467 201.116 219.51 201.23 219.51V219.54ZM142.23 216.27C142.348 216.267 142.46 216.219 142.542 216.135C142.624 216.051 142.67 215.938 142.67 215.82V213.14C142.68 213.076 142.675 213.011 142.657 212.948C142.639 212.886 142.608 212.829 142.566 212.78C142.524 212.731 142.472 212.691 142.413 212.664C142.354 212.637 142.29 212.623 142.225 212.623C142.16 212.623 142.096 212.637 142.037 212.664C141.979 212.691 141.926 212.731 141.884 212.78C141.842 212.829 141.811 212.886 141.793 212.948C141.775 213.011 141.77 213.076 141.78 213.14V215.82C141.788 215.938 141.841 216.048 141.929 216.126C142.017 216.205 142.132 216.246 142.25 216.24L142.23 216.27ZM201.23 212.39C201.349 212.39 201.464 212.343 201.548 212.258C201.633 212.174 201.68 212.059 201.68 211.94V209.26C201.68 209.141 201.633 209.026 201.548 208.942C201.464 208.858 201.349 208.81 201.23 208.81C201.111 208.81 200.996 208.858 200.912 208.942C200.827 209.026 200.78 209.141 200.78 209.26V211.94C200.788 212.054 200.838 212.161 200.922 212.239C201.006 212.317 201.116 212.36 201.23 212.36V212.39ZM142.23 209.11C142.348 209.11 142.461 209.064 142.545 208.982C142.629 208.9 142.677 208.788 142.68 208.67V206C142.68 205.881 142.633 205.766 142.548 205.682C142.464 205.598 142.349 205.55 142.23 205.55C142.111 205.55 141.996 205.598 141.912 205.682C141.827 205.766 141.78 205.881 141.78 206V208.69C141.795 208.802 141.852 208.905 141.939 208.977C142.026 209.049 142.137 209.086 142.25 209.08L142.23 209.11ZM201.23 205.23C201.348 205.23 201.461 205.184 201.545 205.102C201.629 205.02 201.677 204.908 201.68 204.79V202.1C201.68 201.981 201.633 201.866 201.548 201.782C201.464 201.697 201.349 201.65 201.23 201.65C201.111 201.65 200.996 201.697 200.912 201.782C200.827 201.866 200.78 201.981 200.78 202.1V204.79C200.79 204.902 200.842 205.007 200.925 205.083C201.009 205.159 201.117 205.201 201.23 205.2V205.23ZM142.23 201.96C142.349 201.96 142.464 201.913 142.548 201.828C142.633 201.744 142.68 201.629 142.68 201.51V198.8C142.68 198.681 142.633 198.566 142.548 198.482C142.464 198.397 142.349 198.35 142.23 198.35C142.111 198.35 141.996 198.397 141.912 198.482C141.827 198.566 141.78 198.681 141.78 198.8V201.48C141.78 201.541 141.792 201.601 141.816 201.657C141.84 201.713 141.875 201.764 141.919 201.806C141.963 201.848 142.015 201.88 142.072 201.902C142.129 201.923 142.189 201.933 142.25 201.93L142.23 201.96ZM201.23 198.08C201.349 198.08 201.464 198.033 201.548 197.948C201.633 197.864 201.68 197.749 201.68 197.63V194.95C201.68 194.831 201.633 194.716 201.548 194.632C201.464 194.548 201.349 194.5 201.23 194.5C201.111 194.5 200.996 194.548 200.912 194.632C200.827 194.716 200.78 194.831 200.78 194.95V197.63C200.788 197.744 200.838 197.851 200.922 197.929C201.006 198.007 201.116 198.05 201.23 198.05V198.08ZM142.23 194.81C142.349 194.81 142.464 194.763 142.548 194.678C142.633 194.594 142.68 194.479 142.68 194.36V191.68C142.69 191.616 142.685 191.551 142.667 191.488C142.65 191.426 142.618 191.369 142.576 191.32C142.534 191.271 142.482 191.231 142.423 191.204C142.364 191.177 142.3 191.163 142.235 191.163C142.17 191.163 142.106 191.177 142.047 191.204C141.989 191.231 141.936 191.271 141.894 191.32C141.852 191.369 141.821 191.426 141.803 191.488C141.785 191.551 141.78 191.616 141.79 191.68V194.36C141.798 194.476 141.85 194.584 141.936 194.663C142.021 194.741 142.134 194.783 142.25 194.78L142.23 194.81ZM201.23 190.93C201.349 190.93 201.464 190.883 201.548 190.798C201.633 190.714 201.68 190.599 201.68 190.48V187.8C201.68 187.681 201.633 187.566 201.548 187.482C201.464 187.397 201.349 187.35 201.23 187.35C201.111 187.35 200.996 187.397 200.912 187.482C200.827 187.566 200.78 187.681 200.78 187.8V190.48C200.788 190.594 200.838 190.701 200.922 190.779C201.006 190.857 201.116 190.9 201.23 190.9V190.93ZM142.23 187.65C142.349 187.65 142.464 187.603 142.548 187.518C142.633 187.434 142.68 187.319 142.68 187.2V184.52C142.69 184.456 142.685 184.391 142.667 184.328C142.65 184.266 142.618 184.209 142.576 184.16C142.534 184.111 142.482 184.071 142.423 184.044C142.364 184.017 142.3 184.003 142.235 184.003C142.17 184.003 142.106 184.017 142.047 184.044C141.989 184.071 141.936 184.111 141.894 184.16C141.852 184.209 141.821 184.266 141.803 184.328C141.785 184.391 141.78 184.456 141.79 184.52V187.2C141.798 187.316 141.85 187.424 141.936 187.503C142.021 187.581 142.134 187.623 142.25 187.62L142.23 187.65ZM201.23 183.77C201.348 183.77 201.461 183.724 201.545 183.642C201.629 183.56 201.677 183.448 201.68 183.33V180.64C201.68 180.521 201.633 180.406 201.548 180.322C201.464 180.238 201.349 180.19 201.23 180.19C201.111 180.19 200.996 180.238 200.912 180.322C200.827 180.406 200.78 180.521 200.78 180.64V183.33C200.79 183.442 200.842 183.547 200.925 183.623C201.009 183.699 201.117 183.741 201.23 183.74V183.77ZM142.23 180.5C142.349 180.5 142.464 180.453 142.548 180.368C142.633 180.284 142.68 180.169 142.68 180.05V177.37C142.69 177.306 142.685 177.241 142.667 177.178C142.65 177.116 142.618 177.059 142.576 177.01C142.534 176.961 142.482 176.921 142.423 176.894C142.364 176.867 142.3 176.853 142.235 176.853C142.17 176.853 142.106 176.867 142.047 176.894C141.989 176.921 141.936 176.961 141.894 177.01C141.852 177.059 141.821 177.116 141.803 177.178C141.785 177.241 141.78 177.306 141.79 177.37V180C141.787 180.062 141.797 180.123 141.819 180.181C141.841 180.238 141.875 180.291 141.918 180.335C141.961 180.379 142.013 180.414 142.07 180.437C142.127 180.46 142.188 180.472 142.25 180.47L142.23 180.5ZM200.18 176.85C200.277 176.849 200.372 176.818 200.45 176.76C200.546 176.688 200.609 176.582 200.626 176.464C200.642 176.346 200.612 176.226 200.54 176.13C200.156 175.599 199.67 175.15 199.11 174.81L198.33 174.36C198.228 174.302 198.106 174.285 197.992 174.315C197.878 174.345 197.78 174.419 197.72 174.52C197.69 174.57 197.67 174.626 197.661 174.685C197.653 174.743 197.656 174.802 197.671 174.859C197.686 174.916 197.712 174.969 197.748 175.016C197.784 175.062 197.829 175.101 197.88 175.13L198.66 175.58C199.115 175.859 199.509 176.226 199.82 176.66C199.866 176.715 199.925 176.758 199.991 176.786C200.057 176.814 200.129 176.826 200.2 176.82L200.18 176.85ZM142.24 173.34C142.357 173.34 142.469 173.294 142.551 173.211C142.634 173.129 142.68 173.017 142.68 172.9V170.21C142.664 170.104 142.61 170.006 142.529 169.936C142.447 169.866 142.343 169.827 142.235 169.827C142.127 169.827 142.023 169.866 141.941 169.936C141.86 170.006 141.806 170.104 141.79 170.21V172.9C141.8 173.016 141.855 173.123 141.943 173.2C142.03 173.276 142.144 173.316 142.26 173.31L142.24 173.34ZM194.24 172.96C194.32 172.962 194.399 172.941 194.468 172.901C194.537 172.86 194.593 172.801 194.63 172.73C194.689 172.628 194.705 172.506 194.675 172.392C194.645 172.278 194.571 172.181 194.47 172.12L192.14 170.78C192.038 170.721 191.916 170.705 191.802 170.735C191.688 170.765 191.59 170.839 191.53 170.94C191.471 171.044 191.455 171.167 191.484 171.282C191.514 171.398 191.588 171.498 191.69 171.56L194 172.87C194.076 172.913 194.163 172.934 194.25 172.93L194.24 172.96ZM188.05 169.38C188.146 169.376 188.238 169.341 188.312 169.281C188.387 169.221 188.44 169.138 188.465 169.046C188.489 168.953 188.484 168.855 188.449 168.766C188.414 168.677 188.351 168.601 188.27 168.55L185.95 167.2C185.847 167.14 185.724 167.124 185.608 167.155C185.493 167.186 185.395 167.262 185.335 167.365C185.275 167.469 185.259 167.591 185.29 167.707C185.321 167.822 185.397 167.92 185.5 167.98L187.82 169.32C187.896 169.351 187.979 169.362 188.06 169.35L188.05 169.38ZM142.25 166.19C142.369 166.19 142.484 166.143 142.568 166.058C142.653 165.974 142.7 165.859 142.7 165.74V163C142.7 162.881 142.653 162.766 142.568 162.682C142.484 162.598 142.369 162.55 142.25 162.55C142.131 162.55 142.016 162.598 141.932 162.682C141.847 162.766 141.8 162.881 141.8 163V165.68C141.796 165.743 141.805 165.805 141.826 165.864C141.847 165.923 141.881 165.976 141.924 166.022C141.967 166.067 142.02 166.102 142.078 166.126C142.135 166.15 142.198 166.162 142.26 166.16L142.25 166.19ZM181.85 165.8C181.928 165.799 182.005 165.778 182.073 165.74C182.141 165.701 182.198 165.646 182.24 165.58C182.298 165.477 182.312 165.354 182.281 165.24C182.249 165.126 182.173 165.029 182.07 164.97L179.75 163.63C179.7 163.6 179.644 163.58 179.586 163.571C179.527 163.563 179.468 163.566 179.411 163.581C179.354 163.596 179.301 163.622 179.255 163.658C179.208 163.694 179.169 163.739 179.14 163.79C179.081 163.892 179.065 164.014 179.095 164.128C179.125 164.242 179.199 164.34 179.3 164.4L181.63 165.74C181.703 165.771 181.782 165.781 181.86 165.77L181.85 165.8ZM175.65 162.23C175.723 162.225 175.794 162.201 175.855 162.161C175.916 162.12 175.966 162.065 176 162C176.059 161.898 176.075 161.776 176.045 161.662C176.015 161.548 175.941 161.451 175.84 161.39L173.52 160.05C173.416 159.991 173.293 159.975 173.178 160.004C173.062 160.034 172.962 160.108 172.9 160.21C172.87 160.261 172.851 160.318 172.843 160.376C172.835 160.435 172.84 160.494 172.856 160.551C172.871 160.608 172.899 160.661 172.935 160.707C172.972 160.754 173.018 160.792 173.07 160.82L175.39 162.17C175.475 162.207 175.569 162.217 175.66 162.2L175.65 162.23ZM142.25 159.04C142.369 159.04 142.484 158.993 142.568 158.908C142.653 158.824 142.7 158.709 142.7 158.59V155.91C142.7 155.791 142.653 155.676 142.568 155.592C142.484 155.507 142.369 155.46 142.25 155.46C142.131 155.46 142.016 155.507 141.932 155.592C141.847 155.676 141.8 155.791 141.8 155.91V158.59C141.81 158.704 141.863 158.81 141.949 158.886C142.034 158.962 142.146 159.003 142.26 159L142.25 159.04ZM169.46 158.65C169.538 158.649 169.615 158.628 169.683 158.59C169.751 158.551 169.808 158.496 169.85 158.43C169.908 158.325 169.923 158.201 169.891 158.085C169.86 157.97 169.784 157.871 169.68 157.81L167.36 156.47C167.256 156.412 167.134 156.398 167.02 156.43C166.906 156.461 166.809 156.537 166.75 156.64C166.691 156.742 166.675 156.864 166.705 156.978C166.735 157.092 166.809 157.19 166.91 157.25L169.24 158.59C169.313 158.621 169.392 158.631 169.47 158.62L169.46 158.65ZM163.26 155.07C163.339 155.072 163.417 155.052 163.485 155.013C163.554 154.975 163.611 154.918 163.65 154.85C163.709 154.748 163.725 154.626 163.695 154.512C163.665 154.398 163.591 154.301 163.49 154.24L161.16 152.9C161.11 152.871 161.054 152.853 160.996 152.845C160.938 152.838 160.88 152.842 160.823 152.857C160.767 152.873 160.715 152.899 160.669 152.935C160.623 152.97 160.584 153.015 160.555 153.065C160.526 153.116 160.508 153.171 160.5 153.229C160.493 153.287 160.497 153.346 160.512 153.402C160.528 153.458 160.554 153.511 160.589 153.557C160.625 153.603 160.67 153.641 160.72 153.67L163 155C163.088 155.027 163.182 155.027 163.27 155L163.26 155.07ZM142.26 151.88C142.378 151.88 142.491 151.834 142.575 151.752C142.659 151.67 142.707 151.558 142.71 151.44V148.75C142.71 148.631 142.663 148.516 142.578 148.432C142.494 148.348 142.379 148.3 142.26 148.3C142.141 148.3 142.026 148.348 141.942 148.432C141.857 148.516 141.81 148.631 141.81 148.75V151.44C141.82 151.552 141.872 151.657 141.955 151.733C142.039 151.809 142.147 151.851 142.26 151.85V151.88ZM157.08 151.5C157.159 151.499 157.237 151.477 157.305 151.436C157.374 151.396 157.43 151.339 157.47 151.27C157.528 151.167 157.542 151.044 157.511 150.93C157.479 150.816 157.403 150.719 157.3 150.66L154.98 149.32C154.878 149.262 154.756 149.245 154.642 149.275C154.528 149.305 154.43 149.379 154.37 149.48C154.34 149.53 154.32 149.586 154.311 149.645C154.303 149.703 154.306 149.762 154.321 149.819C154.336 149.876 154.362 149.929 154.398 149.976C154.434 150.022 154.479 150.061 154.53 150.09L156.85 151.44C156.923 151.468 157.002 151.479 157.08 151.47V151.5ZM150.88 147.92C150.959 147.922 151.037 147.902 151.105 147.863C151.174 147.825 151.231 147.768 151.27 147.7C151.329 147.596 151.346 147.473 151.316 147.358C151.286 147.242 151.212 147.142 151.11 147.08L148.78 145.74C148.729 145.704 148.67 145.679 148.609 145.667C148.547 145.654 148.483 145.655 148.422 145.669C148.361 145.683 148.303 145.71 148.253 145.747C148.202 145.785 148.16 145.832 148.129 145.887C148.098 145.942 148.079 146.002 148.073 146.065C148.067 146.128 148.074 146.191 148.094 146.25C148.114 146.31 148.146 146.365 148.189 146.411C148.231 146.458 148.283 146.495 148.34 146.52L150.66 147.86C150.73 147.888 150.805 147.898 150.88 147.89V147.92ZM142.42 144.75C142.509 144.75 142.595 144.723 142.668 144.673C142.741 144.623 142.798 144.553 142.83 144.47C143.07 143.9 143.67 143.82 144.36 144.22L144.46 144.28C144.511 144.311 144.568 144.331 144.627 144.339C144.686 144.348 144.746 144.345 144.803 144.33C144.861 144.315 144.915 144.289 144.963 144.253C145.01 144.217 145.05 144.172 145.08 144.12C145.11 144.069 145.129 144.013 145.137 143.954C145.145 143.895 145.14 143.836 145.125 143.779C145.109 143.722 145.082 143.669 145.045 143.623C145.008 143.577 144.962 143.538 144.91 143.51L144.81 143.45C144.592 143.276 144.337 143.154 144.065 143.094C143.792 143.034 143.51 143.037 143.239 143.102C142.967 143.168 142.715 143.294 142.5 143.473C142.286 143.651 142.114 143.876 142 144.13C141.957 144.24 141.959 144.363 142.006 144.471C142.053 144.58 142.141 144.666 142.25 144.71C142.305 144.728 142.364 144.732 142.42 144.72V144.75Z" fill="#089641"/>
<path d="M201.23 203.86C201.307 203.86 201.384 203.84 201.45 203.8L203.78 202.46C203.881 202.4 203.955 202.302 203.985 202.188C204.015 202.074 203.999 201.952 203.94 201.85C203.881 201.747 203.784 201.671 203.67 201.64C203.556 201.608 203.434 201.622 203.33 201.68L201 203C200.896 203.061 200.821 203.16 200.789 203.275C200.757 203.391 200.772 203.515 200.83 203.62C200.868 203.694 200.925 203.755 200.996 203.797C201.066 203.84 201.148 203.862 201.23 203.86ZM207.43 200.28C207.507 200.279 207.583 200.258 207.65 200.22L210 198.88C210.091 198.816 210.156 198.72 210.18 198.611C210.205 198.502 210.188 198.388 210.133 198.291C210.078 198.194 209.989 198.12 209.883 198.085C209.777 198.05 209.662 198.055 209.56 198.1L207.23 199.45C207.129 199.511 207.055 199.608 207.025 199.722C206.995 199.836 207.012 199.958 207.07 200.06C207.107 200.124 207.159 200.178 207.222 200.216C207.285 200.254 207.356 200.276 207.43 200.28ZM213.62 196.7C213.701 196.701 213.78 196.68 213.85 196.64L216.17 195.3C216.273 195.241 216.349 195.144 216.381 195.03C216.412 194.916 216.398 194.794 216.34 194.69C216.31 194.639 216.27 194.594 216.223 194.558C216.175 194.522 216.121 194.495 216.064 194.481C216.006 194.466 215.946 194.462 215.887 194.471C215.828 194.479 215.771 194.5 215.72 194.53L213.4 195.87C213.319 195.921 213.257 195.997 213.222 196.086C213.187 196.175 213.181 196.273 213.205 196.366C213.23 196.458 213.283 196.541 213.358 196.601C213.433 196.661 213.524 196.696 213.62 196.7ZM219.82 193.12C219.901 193.125 219.982 193.104 220.05 193.06L222.37 191.72C222.421 191.691 222.466 191.652 222.502 191.606C222.538 191.559 222.564 191.506 222.579 191.449C222.594 191.392 222.597 191.333 222.589 191.275C222.58 191.216 222.56 191.16 222.53 191.11C222.47 191.009 222.372 190.935 222.258 190.905C222.144 190.875 222.022 190.891 221.92 190.95L219.6 192.29C219.519 192.341 219.457 192.417 219.422 192.506C219.387 192.595 219.381 192.693 219.405 192.786C219.43 192.878 219.483 192.961 219.558 193.021C219.633 193.081 219.724 193.116 219.82 193.12Z" fill="#089641"/>
<path d="M143 132.67C137.83 129.67 133.64 132.11 133.64 138.08C133.64 144.05 137.83 151.32 143 154.3C148.17 157.28 152.37 154.87 152.37 148.9C152.37 142.93 148.19 135.66 143 132.67Z" fill="#FAFAFA"/>
<path d="M147.2 156C148.122 156.014 149.03 155.779 149.83 155.32C151.72 154.23 152.76 151.96 152.76 148.93C152.76 142.84 148.47 135.41 143.2 132.37C140.58 130.85 138.09 130.62 136.2 131.71C134.31 132.8 133.26 135.08 133.26 138.11C133.26 144.2 137.55 151.62 142.82 154.67C144.141 155.483 145.65 155.941 147.2 156ZM138.83 131.8C140.248 131.856 141.626 132.28 142.83 133.03C147.89 135.95 152.01 143.08 152.01 148.93C152.01 151.67 151.1 153.71 149.46 154.66C147.82 155.61 145.59 155.38 143.21 154C138.15 151.08 134.04 143.95 134.04 138.11C134.04 135.36 134.95 133.33 136.59 132.38C137.269 131.98 138.042 131.77 138.83 131.77V131.8Z" fill="#089641"/>
<path d="M137 141.12V138.91C137 138.51 137.28 138.35 137.63 138.55L141.43 140.74V136.35C141.43 135.95 141.71 135.79 142.05 135.99L144 137.1C144.183 137.219 144.336 137.38 144.446 137.569C144.555 137.759 144.618 137.971 144.63 138.19V142.57L148.43 144.76C148.613 144.879 148.766 145.04 148.876 145.229C148.985 145.419 149.048 145.631 149.06 145.85V148.07C149.06 148.47 148.78 148.63 148.43 148.43L144.63 146.24V150.62C144.63 151.02 144.35 151.19 144 150.99L142.08 149.88C141.899 149.759 141.749 149.597 141.641 149.408C141.534 149.219 141.472 149.007 141.46 148.79V144.41L137.66 142.21C137.471 142.094 137.313 141.935 137.198 141.745C137.083 141.555 137.015 141.341 137 141.12Z" fill="#089641"/>
<path d="M139.47 166.66V236C139.497 236.517 139.646 237.021 139.905 237.469C140.164 237.917 140.526 238.298 140.96 238.58L191.08 267.52C191.228 267.633 191.405 267.702 191.591 267.72C191.776 267.737 191.963 267.703 192.13 267.62L194.93 266.01C195.091 265.903 195.217 265.751 195.293 265.574C195.369 265.396 195.393 265.2 195.36 265.01V181.29C195.334 180.774 195.187 180.271 194.929 179.823C194.672 179.374 194.313 178.993 193.88 178.71L156.24 157L139.47 166.66Z" fill="#F0F0F0"/>
<path d="M189.77 182.8L195 179.92C195.232 180.341 195.362 180.81 195.38 181.29V265C195.413 265.19 195.389 265.386 195.313 265.564C195.237 265.741 195.111 265.893 194.95 266L192.15 267.61C191.983 267.693 191.796 267.727 191.611 267.71C191.425 267.692 191.248 267.623 191.1 267.51L189.79 266.76L189.77 182.8Z" fill="#E0E0E0"/>
<path d="M139.47 166.66V236C139.499 236.516 139.65 237.019 139.908 237.467C140.167 237.915 140.527 238.296 140.96 238.58L191.08 267.52C191.9 267.99 192.57 267.61 192.57 266.66V182.91C192.542 182.393 192.393 181.89 192.134 181.442C191.875 180.993 191.514 180.612 191.08 180.33L161.83 163.43L153.44 158.59L139.47 166.66Z" fill="#FAFAFA"/>
<path d="M153.44 159.44L140.21 167.09V236C140.237 236.387 140.352 236.763 140.546 237.099C140.74 237.436 141.008 237.723 141.33 237.94L191.45 266.88C191.541 266.936 191.644 266.97 191.75 266.98C191.75 266.98 191.82 266.87 191.82 266.66V182.91C191.794 182.524 191.68 182.148 191.488 181.812C191.296 181.476 191.03 181.188 190.71 180.97L161.46 164.07L153.46 159.44H153.44ZM153.46 158.59L161.85 163.43L191.1 180.33C191.534 180.612 191.895 180.993 192.154 181.442C192.413 181.89 192.562 182.393 192.59 182.91V266.62C192.59 267.29 192.25 267.68 191.76 267.68C191.526 267.673 191.298 267.604 191.1 267.48L141 238.54C140.567 238.256 140.207 237.875 139.948 237.427C139.69 236.979 139.54 236.476 139.51 235.96V166.66L153.51 158.59H153.46Z" fill="#E0E0E0"/>
<path d="M146.8 167.21C146.26 167.21 145.88 167.64 145.88 168.39V227.39C145.912 227.963 146.078 228.52 146.364 229.017C146.651 229.513 147.05 229.936 147.53 230.25L184.53 251.59C184.751 251.734 185.007 251.814 185.27 251.82C185.81 251.82 186.18 251.39 186.18 250.64V191.64C186.148 191.067 185.983 190.51 185.696 190.013C185.409 189.517 185.01 189.094 184.53 188.78L159.53 174.35L147.53 167.44C147.31 167.304 147.059 167.228 146.8 167.22V167.21ZM146.8 166.53C147.182 166.541 147.554 166.651 147.88 166.85L159.88 173.75L184.88 188.19C185.465 188.563 185.952 189.071 186.3 189.672C186.648 190.272 186.847 190.947 186.88 191.64V250.64C186.906 250.869 186.885 251.102 186.818 251.323C186.75 251.544 186.638 251.748 186.488 251.924C186.337 252.099 186.153 252.242 185.945 252.343C185.737 252.444 185.511 252.501 185.28 252.51C184.895 252.501 184.519 252.39 184.19 252.19L147.19 230.85C146.605 230.475 146.118 229.965 145.77 229.363C145.422 228.761 145.224 228.084 145.19 227.39V168.39C145.162 168.16 145.183 167.927 145.249 167.706C145.316 167.484 145.429 167.279 145.579 167.103C145.73 166.927 145.915 166.785 146.123 166.684C146.332 166.584 146.559 166.528 146.79 166.52L146.8 166.53Z" fill="#089641"/>
<path d="M153.44 173V158.59L139.44 166.66L151.92 173.86C152.77 174.34 153.44 174 153.44 173Z" fill="#E0E0E0"/>
<path d="M178.61 211.11L153.42 196.42C152.868 196.074 152.405 195.604 152.068 195.046C151.731 194.489 151.53 193.86 151.48 193.21C151.48 192.05 152.35 191.61 153.42 192.21L178.62 206.89C179.172 207.238 179.635 207.71 179.97 208.27C180.305 208.829 180.504 209.46 180.55 210.11C180.55 211.29 179.68 211.73 178.61 211.11ZM153.42 201.51L178.62 216.2C179.172 216.548 179.635 217.02 179.97 217.58C180.305 218.139 180.504 218.77 180.55 219.42C180.55 220.57 179.68 221.01 178.61 220.42L153.42 205.73C152.867 205.383 152.403 204.911 152.066 204.352C151.729 203.792 151.528 203.162 151.48 202.51C151.48 201.33 152.35 200.89 153.42 201.51ZM153.42 210.8L178.62 225.49C179.173 225.835 179.635 226.305 179.971 226.863C180.306 227.421 180.505 228.051 180.55 228.7C180.55 229.86 179.68 230.3 178.61 229.7L153.42 215C152.866 214.656 152.402 214.186 152.065 213.628C151.727 213.07 151.527 212.44 151.48 211.79C151.48 210.62 152.35 210.18 153.42 210.8Z" fill="#089641"/>
<path opacity="0.3" d="M178.61 211.11L153.42 196.42C152.868 196.074 152.405 195.604 152.068 195.046C151.731 194.489 151.53 193.86 151.48 193.21C151.48 192.05 152.35 191.61 153.42 192.21L178.62 206.89C179.172 207.238 179.635 207.71 179.97 208.27C180.305 208.829 180.504 209.46 180.55 210.11C180.55 211.29 179.68 211.73 178.61 211.11ZM153.42 201.51L178.62 216.2C179.172 216.548 179.635 217.02 179.97 217.58C180.305 218.139 180.504 218.77 180.55 219.42C180.55 220.57 179.68 221.01 178.61 220.42L153.42 205.73C152.867 205.383 152.403 204.911 152.066 204.352C151.729 203.792 151.528 203.162 151.48 202.51C151.48 201.33 152.35 200.89 153.42 201.51ZM153.42 210.8L178.62 225.49C179.173 225.835 179.635 226.305 179.971 226.863C180.306 227.421 180.505 228.051 180.55 228.7C180.55 229.86 179.68 230.3 178.61 229.7L153.42 215C152.866 214.656 152.402 214.186 152.065 213.628C151.727 213.07 151.527 212.44 151.48 211.79C151.48 210.62 152.35 210.18 153.42 210.8Z" fill="white"/>
<path d="M220.68 170.19V239.49C220.709 240.006 220.86 240.509 221.118 240.957C221.377 241.405 221.737 241.786 222.17 242.07L272.29 271C272.442 271.108 272.62 271.175 272.807 271.193C272.993 271.21 273.18 271.178 273.35 271.1L276.14 269.49C276.301 269.382 276.427 269.231 276.503 269.053C276.579 268.876 276.603 268.68 276.57 268.49V184.82C276.543 184.304 276.394 183.802 276.137 183.354C275.88 182.905 275.521 182.524 275.09 182.24L237.45 160.51L220.68 170.19Z" fill="#F0F0F0"/>
<path d="M271 186.33L276.2 183.45C276.438 183.868 276.572 184.338 276.59 184.82V268.54C276.616 268.731 276.588 268.925 276.51 269.101C276.433 269.278 276.308 269.429 276.15 269.54L273.36 271.15C273.192 271.235 273.003 271.27 272.816 271.253C272.628 271.235 272.449 271.165 272.3 271.05L271 270.3V186.33Z" fill="#E0E0E0"/>
<path d="M220.68 170.19V239.49C220.709 240.006 220.86 240.509 221.118 240.957C221.377 241.405 221.737 241.786 222.17 242.07L272.29 271C273.11 271.47 273.78 271.09 273.78 270.14V186.44C273.752 185.923 273.603 185.42 273.344 184.971C273.085 184.523 272.724 184.142 272.29 183.86L243 167L234.62 162.16L220.68 170.19Z" fill="#FAFAFA"/>
<path d="M234.66 163L221.42 170.65V239.52C221.449 239.906 221.565 240.282 221.758 240.618C221.952 240.953 222.22 241.241 222.54 241.46L272.66 270.4C272.754 270.457 272.86 270.492 272.97 270.5C273.027 270.403 273.051 270.291 273.04 270.18V186.44C273.013 186.052 272.899 185.676 272.704 185.34C272.51 185.004 272.242 184.716 271.92 184.5L242.67 167.6L234.67 162.97L234.66 163ZM234.67 162.12L243 167L272.25 183.9C272.684 184.182 273.045 184.563 273.304 185.011C273.563 185.46 273.712 185.963 273.74 186.48V270.19C273.74 270.86 273.4 271.25 272.91 271.25C272.676 271.243 272.448 271.174 272.25 271.05L222.13 242.11C221.697 241.826 221.337 241.445 221.078 240.997C220.82 240.549 220.669 240.046 220.64 239.53V170.23L234.64 162.16L234.67 162.12Z" fill="#E0E0E0"/>
<path d="M228 170.74C227.46 170.74 227.09 171.17 227.09 171.92V230.92C227.122 231.492 227.288 232.05 227.574 232.546C227.861 233.043 228.26 233.466 228.74 233.78L265.74 255.12C265.961 255.262 266.217 255.341 266.48 255.35C267.02 255.35 267.39 254.92 267.39 254.17V195.17C267.358 194.597 267.192 194.04 266.906 193.543C266.619 193.046 266.22 192.624 265.74 192.31L240.74 177.88L228.74 170.97C228.516 170.835 228.261 170.76 228 170.75V170.74ZM228 170.06C228.382 170.069 228.755 170.179 229.08 170.38L241.08 177.28L266.08 191.72C266.664 192.094 267.151 192.602 267.499 193.202C267.847 193.802 268.046 194.477 268.08 195.17V254.17C268.106 254.399 268.085 254.632 268.018 254.853C267.95 255.073 267.838 255.278 267.687 255.453C267.537 255.629 267.353 255.772 267.145 255.872C266.937 255.973 266.711 256.03 266.48 256.04C266.098 256.031 265.725 255.92 265.4 255.72L228.4 234.38C227.815 234.004 227.328 233.494 226.98 232.892C226.632 232.291 226.433 231.614 226.4 230.92V171.92C226.374 171.69 226.395 171.458 226.462 171.237C226.53 171.016 226.642 170.812 226.793 170.636C226.943 170.461 227.127 170.318 227.335 170.217C227.543 170.116 227.769 170.059 228 170.05V170.06Z" fill="#089641"/>
<path d="M234.65 176.53V162.12L220.65 170.19L233.13 177.39C234 177.87 234.65 177.48 234.65 176.53Z" fill="#E0E0E0"/>
<path d="M259.83 214.64L234.63 200C234.078 199.654 233.615 199.183 233.278 198.626C232.941 198.068 232.739 197.439 232.69 196.79C232.69 195.63 233.56 195.19 234.63 195.79L259.83 210.47C260.383 210.816 260.847 211.288 261.182 211.848C261.517 212.408 261.716 213.039 261.76 213.69C261.76 214.82 260.9 215.26 259.83 214.64ZM234.63 205.04L259.83 219.73C260.383 220.076 260.847 220.548 261.182 221.108C261.517 221.668 261.716 222.299 261.76 222.95C261.76 224.1 260.9 224.54 259.83 223.95L234.63 209.26C234.077 208.913 233.613 208.441 233.276 207.881C232.939 207.322 232.738 206.691 232.69 206.04C232.69 204.86 233.56 204.43 234.63 205V205.04ZM234.63 214.33L259.83 229C260.384 229.342 260.848 229.813 261.184 230.371C261.52 230.929 261.717 231.56 261.76 232.21C261.76 233.37 260.9 233.81 259.83 233.21L234.63 218.52C234.076 218.176 233.612 217.706 233.275 217.148C232.937 216.59 232.737 215.96 232.69 215.31C232.69 214.15 233.56 213.71 234.63 214.33Z" fill="#089641"/>
<path opacity="0.3" d="M259.83 214.64L234.63 200C234.078 199.654 233.615 199.183 233.278 198.626C232.941 198.068 232.739 197.439 232.69 196.79C232.69 195.63 233.56 195.19 234.63 195.79L259.83 210.47C260.383 210.816 260.847 211.288 261.182 211.848C261.517 212.408 261.716 213.039 261.76 213.69C261.76 214.82 260.9 215.26 259.83 214.64ZM234.63 205.04L259.83 219.73C260.383 220.076 260.847 220.548 261.182 221.108C261.517 221.668 261.716 222.299 261.76 222.95C261.76 224.1 260.9 224.54 259.83 223.95L234.63 209.26C234.077 208.913 233.613 208.441 233.276 207.881C232.939 207.322 232.738 206.691 232.69 206.04C232.69 204.86 233.56 204.43 234.63 205V205.04ZM234.63 214.33L259.83 229C260.384 229.342 260.848 229.813 261.184 230.371C261.52 230.929 261.717 231.56 261.76 232.21C261.76 233.37 260.9 233.81 259.83 233.21L234.63 218.52C234.076 218.176 233.612 217.706 233.275 217.148C232.937 216.59 232.737 215.96 232.69 215.31C232.69 214.15 233.56 213.71 234.63 214.33Z" fill="white"/>
<path d="M111.48 399.32C111.4 403.66 111.06 409.97 111.48 411.77C111.9 413.57 119.13 415.33 124.79 415.59C130.45 415.85 137.26 415 137.67 419C138.08 423 134.53 425.67 131.93 426.87C127.52 428.92 122.6 428.47 118.27 427.87C113.94 427.27 111.63 427.69 107.06 428.81C102.49 429.93 99.9101 429.24 97.9601 428.26C95.0601 426.81 95.8301 421.86 96.8501 418.64C97.8701 415.42 97.7601 412.47 97.3801 408C97.0001 403.53 95.7201 397 95.7201 397L111.48 399.32Z" fill="#FFBDA7"/>
<path d="M96.8501 418.56C96.8501 418.56 96.8501 419.93 99.8501 420.56C102.85 421.19 107.73 421.02 111.18 421.25C116.35 421.58 120.27 422.17 126.18 421.25C131.38 420.43 131.18 416.31 126.5 415.65C131.74 415.74 137.31 415.38 137.68 418.96C138.09 422.96 134.54 425.63 131.94 426.83C127.53 428.88 122.61 428.43 118.28 427.83C113.95 427.23 111.64 427.65 107.07 428.77C102.5 429.89 99.9201 429.2 97.9701 428.22C95.0601 426.73 95.8301 421.78 96.8501 418.56Z" fill="#455A64"/>
<path d="M57.7401 388.55C55.3101 392.07 51.3101 398.73 50.7401 400.38C50.1701 402.03 49.6801 408.24 50.7401 410.07C52.2601 411.18 54.6401 411.82 56.6701 412.82C59.6101 414.27 60.2401 416.68 58.3201 418.52C55.6501 421.09 51.3201 421.39 48.7201 421.24C44.9201 420.66 44.6601 416.41 44.1201 412.64C43.5801 408.87 44.1901 401.48 41.3301 396.93C38.4701 392.38 33.4201 391.93 32.7601 393.47C33.0701 391.18 34.3401 391.12 37.0701 389.57C39.8001 388.02 42.1901 388.07 43.7001 384.48C45.5001 380.23 47.1301 375.16 47.1301 375.16L57.7401 388.55Z" fill="#FFBDA7"/>
<path d="M52.4001 421.31C49.6801 421.76 47.7601 421.76 42.9301 419.39C38.7501 417.34 37.6901 416.47 37.0501 415.34C36.0501 413.54 37.1302 409.1 36.2602 405.28C35.6137 402.588 34.6887 399.97 33.5002 397.47C32.5502 395.15 32.6201 394.15 32.7701 393.47C33.1001 392.02 36.0501 391.84 38.8601 393.47C41.6701 395.1 43.4902 398.21 44.4202 405.62C45.3502 413.03 43.9201 421.13 52.4001 421.31Z" fill="#353841"/>
<path d="M32.7701 393.47C33.0901 391.18 33.8801 390.84 36.6101 389.3C37.6101 388.72 38.6101 388.3 39.5601 387.84C42.2101 387.34 46.3801 389.42 46.5601 394.98C46.7401 400.54 45.8201 407.59 47.4901 410.2C48.9201 412.43 51.2601 412.28 50.7201 410.07C54.4801 411.45 55.7701 411.47 57.8901 412.63C60.3301 413.97 61.1501 417.46 58.8901 418.86C55.9069 420.891 52.2745 421.74 48.7001 421.24C44.9001 420.66 44.6401 416.41 44.1001 412.64C43.5601 408.87 44.1701 401.48 41.3101 396.93C38.4501 392.38 33.4301 392 32.7701 393.47Z" fill="#455A64"/>
<path d="M57.0001 390.76C57.0001 390.76 70.7901 370.51 78.1501 357.39C83.6001 347.69 84.0901 345.81 85.4301 339.46C88.3001 325.83 88.9701 322.63 88.9701 322.63L93.2501 350.17C92.5601 353.17 91.1801 359.08 91.1301 362.56C91.1668 369.359 91.7184 376.145 92.7801 382.86C93.7773 390.429 95.1759 397.94 96.9701 405.36C98.0401 406.1 101.15 406.25 103.85 406.16C106.48 406 109.08 405.513 111.59 404.71C111.59 404.71 113.84 372.26 114.36 363.33C114.99 352.62 115.21 348.41 115.55 342.53C116.08 333.16 117.35 319.6 116.99 302.38C116.27 268.14 108.64 252.51 108.64 252.51L70.0001 247.14C66.7901 258.68 60.1201 260.02 59.4201 275.77C59.2601 279.34 61.1501 286.44 61.2201 291.98C61.4201 309.98 63.0301 338.24 63.0301 338.24C58.7901 342.15 55.6801 345.69 52.7501 354.76C50.9701 360.27 47.0201 374.23 45.3501 379.89C50.2401 379.89 57.0801 388.55 57.0001 390.76Z" fill="#455A64"/>
<path d="M96.1001 272.25L95.1001 272.09C94.2001 278.3 92.7201 285.34 91.9101 285.89C90.4901 286.89 85.2301 287.65 84.0501 287.35C82.8701 287.05 81.8201 286.09 79.7201 283.24C78.2501 281.24 78.4101 279.99 78.7201 277.24C78.8501 276.24 79.0001 275.06 79.0901 273.6L78.0901 273.53C78.0001 274.95 77.8601 276.1 77.7301 277.11C77.3801 279.86 77.1701 281.51 78.9001 283.86C81.1701 286.94 82.3101 288 83.8101 288.36C84.0262 288.413 84.2477 288.44 84.4701 288.44C86.5501 288.54 91.0701 287.71 92.4701 286.76C94.0001 285.7 95.6401 275.39 96.1001 272.25Z" fill="#353841"/>
<path d="M111.92 271.34L110.92 271.63C113.85 282.14 113.21 291.77 107.97 294.7C106.97 287.6 105.67 280.26 103.82 272.41L102.82 272.65C108.82 297.94 109.5 317.86 108.73 341.79C108.15 360.03 106.99 391.37 106.45 405.92L107.5 405.74C108.04 391.11 109.19 359.97 109.77 341.83C110.29 325.62 110.12 311.25 108.12 295.83C114.12 292.76 115.06 282.61 111.92 271.34Z" fill="#353841"/>
<path d="M59.8801 280.77C60.5224 281.387 61.2996 281.846 62.1501 282.11C63.7801 282.18 66.4801 279.86 67.2501 278.11C67.612 277.085 67.8307 276.015 67.9001 274.93C68.0577 273.343 68.3453 271.771 68.7601 270.23L67.7601 269.93C67.3275 271.526 67.0265 273.155 66.8601 274.8C66.8022 275.782 66.6105 276.751 66.2901 277.68C65.6401 279.16 63.2901 281.1 62.1901 281.05C61.2029 280.562 60.3226 279.882 59.6001 279.05C59.7001 279.53 59.8001 280.24 59.8801 280.77Z" fill="#353841"/>
<path d="M53.7801 385.31C53.5401 385.03 53.2901 384.76 53.0401 384.49C59.6401 372.98 73.8101 347.81 75.0401 341.7C76.6601 333.88 79.4501 307.65 79.5701 293.54H80.5701C80.4601 307.7 77.6601 334.05 76.0301 341.91C74.7601 348.31 60.3301 373.89 53.7801 385.31Z" fill="#353841"/>
<path d="M74.0001 268.14C71.3801 272.31 69.7901 279.63 73.1701 287.65L74.1201 287.24C70.9001 279.59 72.4001 272.65 74.8801 268.71L74.0001 268.14Z" fill="#353841"/>
<path d="M89.0001 322.63L84.8001 293.76C84.8001 293.76 73.9301 292.24 72.4301 282.04C72.1701 288.04 74.5801 293.29 81.3301 296.04L86.7301 322.69L85.4601 339.41L89.0001 322.63Z" fill="#353841"/>
<path d="M66.74 200.5C59.74 202.17 55.89 204.12 53 213.68C50.26 222.68 45.67 238.01 44.46 244.49C43.88 247.65 43.61 250.66 48 252.49C57.92 256.69 67.49 259.63 67.49 259.63L71.36 247.92L60.76 242.62L63.4 234.08L66.74 200.5Z" fill="#FFBDA7"/>
<path d="M60.76 242.64C59.8618 244.669 58.3233 246.348 56.38 247.42C58.97 247.73 61.49 245.03 62.15 243.33L60.76 242.64Z" fill="#F0997A"/>
<path d="M66.24 200.42C63.1 200.99 58.8 201.65 55.66 206.42C52.52 211.19 47.42 227.82 47.42 227.82C47.42 227.82 49.91 230.92 56.42 232.66C62.93 234.4 65.67 232.92 65.67 232.92L70.53 217L66.24 200.42Z" fill="#374988"/>
<path opacity="0.2" d="M66.24 200.42C63.1 200.99 58.8 201.65 55.66 206.42C52.52 211.19 47.42 227.82 47.42 227.82C47.42 227.82 49.91 230.92 56.42 232.66C62.93 234.4 65.67 232.92 65.67 232.92L70.53 217L66.24 200.42Z" fill="#353841"/>
<path d="M100.9 165.49C102.13 163.85 101.95 161.39 101.07 159.49C100.19 157.59 98.4901 155.74 93.7801 153.71C88.1801 151.3 72.9001 149.71 67.0401 159.93C66.1701 161.46 82.1401 188.49 81.8301 194.24C85.3301 189.98 96.8301 175.09 96.8301 175.09C99.7001 173.62 101.42 172.42 101.83 169.58C101.953 168.153 101.628 166.723 100.9 165.49Z" fill="#353841"/>
<path d="M99.23 173.42C99.23 173.42 103.69 179.67 103.29 180.23C102.411 181.034 101.465 181.76 100.46 182.4L99.23 173.42Z" fill="#F0997A"/>
<path d="M93.41 161.85C96.18 162.93 98.66 164.85 99.91 170.66C100.24 172.18 99.19 174.37 99.91 176.38C102.91 184.98 100.61 192.49 99.02 194.23C97.95 195.4 91.96 196.31 88.74 195.65C84.74 194.83 75.84 191.57 71.3 185.65C65.97 178.72 64.15 169.02 69.24 164.72C76.36 158.69 90.45 160.7 93.41 161.85Z" fill="#FFBDA7"/>
<path d="M74.2101 190.45L73.7101 199.19C68.8501 202.02 78.8901 205.72 89.5401 201.19L90.3101 193.31L74.2101 190.45Z" fill="#FFBDA7"/>
<path d="M89.95 196.88C89.76 198.88 89.56 201.88 92.69 202.76C95.64 203.54 100.4 204.03 105.04 205.76C105.04 205.76 88.32 208.4 79.54 206.95C70.76 205.5 69.24 199.86 69.24 199.86C72.4 199.43 73.72 198.86 73.84 196.86L89.95 196.88Z" fill="#FFBDA7"/>
<path d="M98.6901 194.47C97.3401 195.35 94.29 196.14 90.05 195.86L90.2401 193.67C91.5731 194.096 92.942 194.401 94.33 194.58C95.7807 194.761 97.2504 194.724 98.6901 194.47Z" fill="#F0997A"/>
<path d="M97.6 164.72C98.02 168.52 95.71 169.9 94.06 170.77C94.8085 172.129 95.1553 173.672 95.06 175.22C94.82 177.22 94.19 178.82 92.33 179.6C91.2 180.07 90.82 179.6 90.33 178.7C89.65 177.43 88.77 175.48 85.99 176.06C82.8 176.73 82.29 181.64 84.4 184.68C84.8089 185.325 85.3683 185.862 86.0302 186.243C86.6921 186.625 87.4367 186.84 88.2 186.87C88.6151 186.829 89.0172 186.703 89.3805 186.498C89.7438 186.293 90.0604 186.014 90.31 185.68C90.31 185.68 90.4 189.92 85.14 192.82C85.14 192.82 79.87 196.3 74.14 195.03C71.3996 192.405 68.8025 189.634 66.36 186.73C59.81 178.57 58.44 163.08 68.36 159.54C68.83 159.38 76.97 157.32 81.5 157.97C95.42 160 97.53 164.06 97.6 164.72Z" fill="#353841"/>
<path d="M67.0001 160C65.4401 160 60.7101 162.41 60.7301 172.91C60.7301 180.01 62.4401 189.5 64.7301 193.91C70.8101 200.61 88.4101 201.91 96.1901 199.08C91.1901 196.77 90.2501 190.51 90.2701 185.66C87.97 189.14 83.7601 189.97 78.6601 187.41C73.5601 184.85 67.0001 160 67.0001 160Z" fill="#353841"/>
<path d="M59.9201 209.19C61.3801 202.1 65.2201 200.56 66.9201 200.25L71.3401 199.48C71.3401 200.32 70.7401 202.33 78.5801 203.31C83.5801 203.94 92.3301 202.65 92.3301 202.65C95.678 203.192 98.9905 203.933 102.25 204.87C107.34 206.32 110.02 212.26 113.35 220.11C115.97 226.31 114.99 232.62 110.3 237.24C110.157 241.109 110.25 244.983 110.58 248.84C112.557 256.342 113.737 264.031 114.1 271.78C114.1 271.78 111.1 274.58 87.2701 274.05C68.8101 273.63 60.2701 265.38 60.2701 265.38C60.8001 262.63 62.7301 256.72 66.2201 247.54C65.8001 238.56 56.7701 224.54 59.9201 209.19Z" fill="#374988"/>
<path d="M142.95 227.81C142.95 227.81 169.19 222.59 170.69 221.51C171.96 220.59 172.37 219.08 173.01 217.73C173.766 216.196 174.743 214.781 175.91 213.53C176.65 212.69 177.55 211.97 178.25 211.1C178.95 210.23 179.16 209.28 179.79 208.46C180.42 207.64 181.26 208.23 181.66 209.02C182.096 210.177 182.063 211.457 181.57 212.59C181.38 213.09 181.21 213.59 181.01 214.1C180.779 214.547 180.594 215.016 180.46 215.5C180.395 215.75 180.416 216.014 180.52 216.25C180.8 216.72 181.69 216.41 182.08 216.25C184.728 215.183 187.13 213.587 189.14 211.56C190 210.69 190.68 209.71 191.6 208.9C192.444 208.135 193.398 207.501 194.43 207.02C195.119 206.675 195.894 206.536 196.66 206.62C197.79 207.04 196.53 208.85 196.23 209.46C195.859 210.129 195.679 210.886 195.71 211.65C195.752 212.099 195.705 212.552 195.571 212.983C195.437 213.414 195.219 213.814 194.93 214.16C194.272 214.897 193.781 215.766 193.49 216.71C193.471 217.043 193.471 217.377 193.49 217.71C193.391 218.746 192.972 219.724 192.29 220.51C191.627 221.228 191.25 222.164 191.23 223.14C191 225.36 188.68 226.99 186.95 228.05C184.943 229.241 182.801 230.188 180.57 230.87C179.37 231.26 178.21 231.75 177.01 232.11C175.81 232.47 174.83 232.64 173.78 233.04C171.29 233.99 151.97 241.35 144.27 243.48C140.47 244.53 139.45 245.48 134.1 242.69C124.47 237.69 115.04 234.22 109.5 230.83C101.91 226.18 98.69 223.58 97.65 218.63C95.26 207.15 102.82 205.03 102.82 205.03C105.59 205.74 107.02 206.38 115.45 211.26C124.45 216.48 142.95 227.81 142.95 227.81Z" fill="#FFBDA7"/>
<path d="M102.82 205.05C107.47 205.58 109.89 206.86 115.05 210.11C120.21 213.36 129 219.05 129 219.05C128.41 224.214 126.269 229.077 122.86 233C118.72 237.73 115.36 237.34 115.36 237.34C115.36 237.34 101.49 227.14 98.69 223.21C95.89 219.28 93.81 207.5 102.82 205.05Z" fill="#374988"/>
<path opacity="0.2" d="M102.82 205.05C107.47 205.58 109.89 206.86 115.05 210.11C120.21 213.36 129 219.05 129 219.05C128.41 224.214 126.269 229.077 122.86 233C118.72 237.73 115.36 237.34 115.36 237.34C115.36 237.34 101.49 227.14 98.69 223.21C95.89 219.28 93.81 207.5 102.82 205.05Z" fill="#353841"/>
<path d="M79.54 134.44L82.16 129.53L80.05 123.46V119.75L86.49 123.46V127.18L83.72 131.97C83.6799 132.046 83.6118 132.103 83.53 132.13L79.54 134.44Z" fill="#089641"/>
<path opacity="0.2" d="M79.54 134.44L82.16 129.53L80.05 123.46V119.75L86.49 123.46V127.18L83.72 131.97C83.6799 132.046 83.6118 132.103 83.53 132.13L79.54 134.44Z" fill="#353841"/>
<path d="M64.1801 90.2199C64.2147 89.5503 64.4077 88.8984 64.7432 88.3177C65.0787 87.7371 65.5471 87.2444 66.11 86.8799L67.6801 85.9999C68.2789 85.6991 68.9399 85.5425 69.61 85.5425C70.2802 85.5425 70.9412 85.6991 71.5401 85.9999L95.6201 99.8999C96.1818 100.266 96.6494 100.759 96.9848 101.339C97.3201 101.919 97.5138 102.571 97.55 103.24V129.74C97.5154 130.41 97.3224 131.062 96.9869 131.642C96.6514 132.223 96.183 132.715 95.6201 133.08L94.0001 134C93.4026 134.305 92.7411 134.465 92.0701 134.465C91.399 134.465 90.7376 134.305 90.1401 134L82.4001 129.53L79.6401 134.31C79.599 134.377 79.5401 134.431 79.47 134.466C79.3999 134.501 79.3213 134.515 79.2433 134.508C79.1653 134.501 79.0908 134.472 79.0284 134.424C78.966 134.377 78.9181 134.313 78.8901 134.24L76.0001 125.8L66.08 120.06C65.5172 119.695 65.0487 119.203 64.7132 118.622C64.3777 118.042 64.1847 117.39 64.1501 116.72L64.1801 90.2199Z" fill="#089641"/>
<path d="M70.33 108.36V105.36C70.33 104.82 70.7201 104.6 71.1901 104.87L76.3501 107.87V101.87C76.3501 101.33 76.7301 101.1 77.2001 101.38L79.8101 102.88C80.0579 103.043 80.264 103.262 80.4116 103.519C80.5593 103.776 80.6444 104.064 80.6601 104.36V110.36L85.8201 113.36C86.0715 113.52 86.2808 113.738 86.4304 113.995C86.5801 114.253 86.6657 114.543 86.6801 114.84V117.84C86.6801 118.38 86.3001 118.6 85.8201 118.33L80.6601 115.33V121.33C80.6601 121.88 80.2801 122.1 79.8101 121.82L77.2001 120.32C76.9522 120.157 76.7461 119.939 76.5985 119.681C76.4508 119.424 76.3657 119.136 76.3501 118.84V112.84L71.1901 109.84C70.9404 109.678 70.7324 109.46 70.5829 109.203C70.4335 108.946 70.3468 108.657 70.33 108.36Z" fill="#FAFAFA"/>
<path opacity="0.2" d="M97.55 129.74C97.5154 130.41 97.3224 131.061 96.9869 131.642C96.6514 132.223 96.183 132.715 95.6201 133.08L94.0001 134C93.4568 134.276 92.861 134.433 92.2523 134.46C91.6436 134.488 91.0361 134.385 90.4701 134.16C91.3801 134.5 92.0701 133.99 92.0701 132.89V106.39C92.0505 105.719 91.8576 105.064 91.5101 104.49L97.0001 101.34C97.3431 101.916 97.5356 102.57 97.5601 103.24L97.55 129.74Z" fill="#353841"/>
<path opacity="0.3" d="M64.24 89.6699C64.47 88.8499 65.24 88.5899 66.11 89.0999L90.2 103C90.7702 103.351 91.2363 103.848 91.55 104.44L97 101.35C96.6823 100.758 96.213 100.261 95.64 99.9099L71.54 85.9999C70.9411 85.6991 70.2802 85.5425 69.61 85.5425C68.9398 85.5425 68.2789 85.6991 67.68 85.9999L66.11 86.9099C65.6284 87.2202 65.2144 87.6246 64.8931 88.0989C64.5717 88.5732 64.3496 89.1076 64.24 89.6699Z" fill="white"/>
</svg>
