<svg width="48" height="48" viewBox="0 0 48 48" fill="none" xmlns="http://www.w3.org/2000/svg">
<path d="M30 20C30 18.9 30.9 18 32 18C33.1 18 34 18.9 34 20C34 21.1 33.1 22 32 22C30.9 22 30 21.1 30 20ZM16 18H26V14H16V18ZM44 15V28.94L38.36 30.82L35 42H24V38H20V42H9C9 42 4 25.08 4 19C4 12.92 8.92 8 15 8H25C26.82 5.58 29.72 4 33 4C33.4942 4.00011 33.9808 4.12248 34.4163 4.35623C34.8517 4.58997 35.2226 4.92782 35.4959 5.33966C35.7691 5.75151 35.9362 6.22455 35.9823 6.71664C36.0284 7.20873 35.952 7.70458 35.76 8.16C35.48 8.84 35.24 9.62 35.12 10.46L39.66 15H44ZM40 19H38L31 12C31 10.7 31.18 9.42 31.52 8.18C29.58 8.68 28 10.12 27.34 12H15C11.14 12 8 15.14 8 19C8 22.76 10.44 32.3 12.02 38H16V34H28V38H32.02L35.12 27.7L40 26.06V19Z" fill="#CC2593"/>
</svg>
