<svg width="500" height="500" viewBox="0 0 500 500" fill="none" xmlns="http://www.w3.org/2000/svg">
<circle opacity="0.1" cx="250" cy="250" r="205" fill="#089641"/>
<path d="M0 382.4H500V382.65H0V382.4Z" fill="#EBEBEB"/>
<path d="M388.34 390.79H421.46V391.04H388.34V390.79Z" fill="#EBEBEB"/>
<path d="M336.5 398H366.67V398.25H336.5V398Z" fill="#EBEBEB"/>
<path d="M404.9 400.07H443.15V400.32H404.9V400.07Z" fill="#EBEBEB"/>
<path d="M50.1 399.53H66V399.78H50.1V399.53Z" fill="#EBEBEB"/>
<path d="M69.21 399.53H108.53V399.78H69.21V399.53Z" fill="#EBEBEB"/>
<path d="M219.67 390.66H250V390.91H219.67V390.66Z" fill="#EBEBEB"/>
<path d="M143.23 390.66H215.33V390.91H143.23V390.66Z" fill="#EBEBEB"/>
<path d="M263 337.8H456.09C457.603 337.797 459.052 337.195 460.121 336.124C461.19 335.053 461.79 333.603 461.79 332.09V60.66C461.777 59.156 461.171 57.718 460.104 56.6582C459.036 55.5985 457.594 55.0026 456.09 55H263C261.486 55 260.033 55.6016 258.962 56.6724C257.892 57.7433 257.29 59.1956 257.29 60.71V332.09C257.29 333.604 257.892 335.057 258.962 336.128C260.033 337.198 261.486 337.8 263 337.8ZM456.09 55.2C457.536 55.2026 458.923 55.7791 459.944 56.8027C460.966 57.8264 461.54 59.2136 461.54 60.66V332.09C461.54 333.536 460.966 334.924 459.944 335.947C458.923 336.971 457.536 337.547 456.09 337.55H263C261.553 337.547 260.165 336.971 259.142 335.948C258.119 334.924 257.543 333.537 257.54 332.09V60.66C257.543 59.2127 258.119 57.8255 259.142 56.8021C260.165 55.7787 261.553 55.2026 263 55.2H456.09Z" fill="#EBEBEB"/>
<path d="M46.69 337.8H239.79C241.304 337.797 242.754 337.195 243.825 336.125C244.895 335.054 245.497 333.604 245.5 332.09V60.66C245.484 59.1551 244.876 57.7171 243.807 56.6576C242.738 55.5981 241.295 55.0025 239.79 55H46.69C45.1877 55.0052 43.748 55.6022 42.6829 56.6617C41.6178 57.7212 41.0132 59.1578 41 60.66V332.09C41 333.601 41.5988 335.05 42.6653 336.121C43.7319 337.191 45.1791 337.795 46.69 337.8ZM239.79 55.2C241.237 55.2026 242.625 55.7787 243.648 56.8021C244.671 57.8255 245.247 59.2127 245.25 60.66V332.09C245.247 333.537 244.671 334.924 243.648 335.948C242.625 336.971 241.237 337.547 239.79 337.55H46.69C45.2427 337.547 43.8555 336.971 42.8321 335.948C41.8087 334.924 41.2327 333.537 41.23 332.09V60.66C41.2327 59.2127 41.8087 57.8255 42.8321 56.8021C43.8555 55.7787 45.2427 55.2026 46.69 55.2H239.79Z" fill="#EBEBEB"/>
<path d="M82.68 256.64H119.93V382.4H82.68V256.64Z" fill="#E6E6E6"/>
<path d="M88.87 382.4H82.68V371.08H95.38L88.87 382.4Z" fill="#F0F0F0"/>
<path d="M234.31 256.64H271.56V382.4H234.31V256.64Z" fill="#E6E6E6"/>
<path d="M82.67 256.64H239.71V378.05H82.67V256.64Z" fill="#F0F0F0"/>
<path d="M87.48 262.02H234.9V295.32H87.48V262.02Z" fill="#E6E6E6"/>
<path d="M154.23 272.37H168.16C174.16 272.37 179.99 268.26 184.16 261.01H138.25C142.4 268.26 148.18 272.37 154.23 272.37Z" fill="#F0F0F0"/>
<path d="M233.51 382.4H239.71V371.08H227.01L233.51 382.4Z" fill="#F0F0F0"/>
<path d="M87.48 300.7H234.9V334H87.48V300.7Z" fill="#E6E6E6"/>
<path d="M154.23 311H168.16C174.16 311 179.99 306.9 184.16 299.64H138.25C142.4 306.94 148.18 311 154.23 311Z" fill="#F0F0F0"/>
<path d="M87.48 339.38H234.9V372.68H87.48V339.38Z" fill="#E6E6E6"/>
<path d="M154.23 349.72H168.16C174.16 349.72 179.99 345.61 184.16 338.36H138.25C142.4 345.61 148.18 349.72 154.23 349.72Z" fill="#F0F0F0"/>
<path d="M65.71 93.55H226.57V171.63H65.71V93.55Z" fill="#F0F0F0"/>
<path d="M59.91 93.55H223.86V171.63H59.91V93.55Z" fill="#F5F5F5"/>
<path d="M68.02 165.14V100.05L215.74 100.05V165.14H68.02Z" fill="white"/>
<path d="M114.44 229.06C111.54 199.06 109.53 150.28 111.09 133.98C111.12 133.701 111.208 133.431 111.35 133.188C111.491 132.945 111.682 132.734 111.91 132.57C112.213 132.349 112.571 132.217 112.946 132.189C113.32 132.162 113.694 132.241 114.025 132.416C114.357 132.591 114.633 132.856 114.821 133.18C115.009 133.504 115.102 133.875 115.09 134.25C114.82 142.33 114.5 162.52 116.22 197.35C117.08 214.68 118.31 226.55 117.46 229.06H114.44Z" fill="#F0F0F0"/>
<path d="M106.13 164.46C99.51 155.94 85.81 149.2 71.77 148.17C66.26 147.76 88.4 158.75 97.52 169.73C104.59 178.25 112.52 192.29 115.16 199.95C113.61 184.14 112.76 173 106.13 164.46Z" fill="#F0F0F0"/>
<path d="M120 162.62C126.85 153.08 142.67 145.73 159.79 144.9C166.51 144.58 140.94 156.56 131.4 168.84C123.99 178.37 116.4 194.17 114.3 202.84C113.79 184.86 113.14 172.17 120 162.62Z" fill="#F0F0F0"/>
<path d="M106.59 136.38C101.36 129.27 89.81 123.43 77.59 122.24C72.79 121.77 91.45 131.24 98.69 140.46C104.32 147.58 110.3 159.23 112.1 165.54C111.8 152.61 111.81 143.49 106.59 136.38Z" fill="#F0F0F0"/>
<path d="M117.12 137.84C122.93 129.75 136.32 123.54 150.82 122.84C156.51 122.57 134.82 132.71 126.82 143.11C120.54 151.18 114.1 164.56 112.33 171.9C111.87 156.66 111.32 145.92 117.12 137.84Z" fill="#F0F0F0"/>
<path d="M110.1 196.54C106.32 191.18 97.83 186.67 88.76 185.59C85.2 185.17 98.92 192.52 104.16 199.45C108.23 204.83 112.5 213.57 113.74 218.28C113.73 208.67 113.87 201.9 110.1 196.54Z" fill="#F0F0F0"/>
<path d="M117 193.52C120.28 188.2 128.4 183.71 137.45 182.63C141.01 182.21 127.89 189.52 123.28 196.39C119.71 201.73 116.28 210.39 115.48 215.07C114.5 205.55 113.68 198.84 117 193.52Z" fill="#F0F0F0"/>
<path d="M115.67 256.64C108.44 256.64 102.47 255.13 102.06 247.92L100.85 227.05H130.48L129.27 247.92C128.86 255.13 122.89 256.64 115.67 256.64Z" fill="#E6E6E6"/>
<path d="M130.31 231.8H101C100.426 231.798 99.8736 231.585 99.4474 231.201C99.0212 230.818 98.7515 230.29 98.69 229.72L98.24 225.72C98.2049 225.394 98.2388 225.064 98.3393 224.752C98.4399 224.44 98.6049 224.153 98.8236 223.909C99.0423 223.664 99.3099 223.469 99.609 223.335C99.9082 223.201 100.232 223.131 100.56 223.13H130.75C131.078 223.131 131.402 223.201 131.701 223.335C132 223.469 132.268 223.664 132.486 223.909C132.705 224.153 132.87 224.44 132.971 224.752C133.071 225.064 133.105 225.394 133.07 225.72L132.63 229.72C132.566 230.291 132.294 230.819 131.867 231.202C131.439 231.586 130.885 231.799 130.31 231.8Z" fill="#F0F0F0"/>
<path d="M224.75 256.64H244.4L238.58 213.57H224.75V256.64Z" fill="#E6E6E6"/>
<path d="M195.91 256.64H233.15L240.09 206.23H202.84L195.91 256.64Z" fill="#F0F0F0"/>
<path d="M190.94 256.64H229.69L236.62 206.23H197.87L190.94 256.64Z" fill="#F5F5F5"/>
<path d="M226.27 252.67L232.11 210.2H201.3L195.46 252.67H226.27Z" fill="white"/>
<path d="M208.9 242.87H216.24C216.879 242.871 217.496 242.641 217.978 242.222C218.459 241.802 218.773 241.223 218.86 240.59L221.28 223C221.334 222.626 221.306 222.245 221.199 221.882C221.092 221.52 220.908 221.185 220.66 220.9C220.409 220.617 220.101 220.391 219.756 220.236C219.412 220.081 219.038 220 218.66 220H211.32C210.682 220.001 210.066 220.232 209.584 220.651C209.103 221.07 208.789 221.648 208.7 222.28L206.28 239.87C206.229 240.244 206.258 240.625 206.366 240.986C206.474 241.348 206.659 241.682 206.907 241.967C207.155 242.251 207.462 242.479 207.805 242.635C208.149 242.79 208.523 242.871 208.9 242.87ZM217.9 240.45C217.845 240.843 217.649 241.203 217.35 241.464C217.051 241.725 216.667 241.869 216.27 241.87H208.93C208.695 241.871 208.463 241.821 208.249 241.725C208.035 241.628 207.845 241.487 207.69 241.31C207.536 241.132 207.422 240.923 207.355 240.697C207.288 240.471 207.269 240.234 207.3 240L209.72 222.42C209.775 222.027 209.971 221.667 210.27 221.406C210.569 221.145 210.953 221.001 211.35 221H218.69C218.925 220.998 219.158 221.047 219.372 221.144C219.586 221.24 219.776 221.382 219.93 221.56C220.087 221.734 220.203 221.942 220.271 222.166C220.338 222.391 220.355 222.628 220.32 222.86L217.9 240.45Z" fill="#F5F5F5"/>
<path d="M288.5 91.25H436.88V247.83H288.5V91.25Z" fill="#E6E6E6"/>
<path d="M272.59 86.1799H446.48C446.674 86.1799 446.866 86.2183 447.045 86.2928C447.224 86.3673 447.386 86.4765 447.523 86.614C447.66 86.7516 447.768 86.9148 447.841 87.0943C447.914 87.2738 447.951 87.4661 447.95 87.6599C447.95 88.0498 447.795 88.4237 447.519 88.6994C447.244 88.9751 446.87 89.1299 446.48 89.1299H272.59C272.2 89.1299 271.826 88.9751 271.551 88.6994C271.275 88.4237 271.12 88.0498 271.12 87.6599C271.119 87.4661 271.156 87.2738 271.229 87.0943C271.302 86.9148 271.41 86.7516 271.547 86.614C271.684 86.4765 271.846 86.3673 272.025 86.2928C272.204 86.2183 272.396 86.1799 272.59 86.1799Z" fill="#E6E6E6"/>
<path d="M282.19 91.25H433.93V247.83H282.19V91.25Z" fill="#F0F0F0"/>
<path d="M291.01 239.02V100.07L425.12 100.07V239.02H291.01Z" fill="#FAFAFA"/>
<path d="M394.68 239.02L342.94 100.06H318.52L370.25 239.02H394.68Z" fill="white"/>
<path d="M365.01 239.02L313.27 100.06H303.75L355.49 239.02H365.01Z" fill="white"/>
<path d="M291.01 239.01V100.06H292.13V239.01H291.01Z" fill="#E6E6E6"/>
<g opacity="0.6">
<path opacity="0.6" d="M428.76 308.07H447.39L444.44 83.55H425.8L428.76 308.07Z" fill="#F0F0F0"/>
<path opacity="0.6" d="M421.5 308.07H436.02L433.06 83.55H418.55L421.5 308.07Z" fill="#E6E6E6"/>
<path opacity="0.6" d="M410.13 308.07H428.76L425.8 83.55H407.17L410.13 308.07Z" fill="#F0F0F0"/>
<path opacity="0.6" d="M402.87 308.07H417.39L414.43 83.55H399.91L402.87 308.07Z" fill="#E6E6E6"/>
<path opacity="0.6" d="M391.5 308.07H410.13L407.17 83.55H388.54L391.5 308.07Z" fill="#F0F0F0"/>
</g>
<g opacity="0.6">
<path opacity="0.6" d="M285.27 308.07H274.74L273.33 83.55H283.86L285.27 308.07Z" fill="#F0F0F0"/>
<path opacity="0.6" d="M289.37 308.07H281.17L279.75 83.55H287.96L289.37 308.07Z" fill="#E6E6E6"/>
<path opacity="0.6" d="M295.8 308.07H285.27L283.86 83.55H294.39L295.8 308.07Z" fill="#F0F0F0"/>
<path opacity="0.6" d="M299.9 308.07H291.7L290.28 83.55H298.49L299.9 308.07Z" fill="#E6E6E6"/>
<path opacity="0.6" d="M306.33 308.07H295.8L294.39 83.55H304.92L306.33 308.07Z" fill="#F0F0F0"/>
</g>
<path d="M250 427.56C142.918 427.56 56.11 422.492 56.11 416.24C56.11 409.988 142.918 404.92 250 404.92C357.083 404.92 443.89 409.988 443.89 416.24C443.89 422.492 357.083 427.56 250 427.56Z" fill="#F5F5F5"/>
<path d="M215.38 118.79C221.38 110.67 219.99 103.58 215.38 98.48C209.63 92.08 200.24 92.13 193.98 95.4C184.18 100.51 182.07 122.9 198.44 126.06C204.248 124.032 209.909 121.603 215.38 118.79Z" fill="#353841"/>
<path d="M195.89 96.81C189.89 93.28 191.56 86.43 186.14 82.81C178.6 77.81 162.35 79.98 167.43 92.48C172.51 104.98 154.43 105.7 159.68 118.12C164.93 130.54 180.18 138.12 184.1 120.12C187.03 106.63 174.58 89.25 184.63 91.12C190.9 92.28 192.99 98.73 192.99 98.73L195.89 96.81Z" fill="#353841"/>
<path d="M210.8 149.75C211.62 152.02 212.51 154.08 213.46 156.21C214.41 158.34 215.46 160.39 216.56 162.44C218.774 166.742 221.556 170.728 224.83 174.29C225.766 175.287 226.794 176.195 227.9 177C228.994 177.776 230.159 178.446 231.38 179C233.629 180.006 235.975 180.784 238.38 181.32C242.937 182.372 247.603 182.879 252.28 182.83C252.805 182.821 253.309 182.623 253.698 182.271C254.088 181.92 254.337 181.439 254.399 180.918C254.461 180.396 254.333 179.87 254.037 179.437C253.741 179.003 253.298 178.692 252.79 178.56H252.69C248.507 177.582 244.389 176.343 240.36 174.85C238.466 174.144 236.633 173.285 234.88 172.28C234.099 171.832 233.356 171.321 232.66 170.75C231.986 170.186 231.364 169.564 230.8 168.89C229.512 167.368 228.351 165.742 227.33 164.03C226.25 162.26 225.21 160.43 224.25 158.52C222.35 154.74 220.55 150.7 219 146.82V146.76C218.589 145.682 217.766 144.811 216.713 144.34C215.66 143.868 214.463 143.834 213.385 144.245C212.307 144.656 211.436 145.479 210.965 146.532C210.493 147.585 210.459 148.782 210.87 149.86L210.8 149.75Z" fill="#B55B52"/>
<path d="M212.1 142.35C220.36 143.29 224.91 155.68 224.91 155.68L216.45 167.6C216.45 167.6 206.45 156.27 205.58 151.21C204.71 146 206 141.64 212.1 142.35Z" fill="#353841"/>
<path opacity="0.2" d="M216.62 149.93C213.85 148.19 210.83 149.15 208.26 152.38C207.729 153.307 207.373 154.324 207.21 155.38C209.71 159.91 216.46 167.59 216.46 167.59L220.33 162.14C220.62 158.92 218.41 151 216.62 149.93Z" fill="#353841"/>
<path d="M250.77 179L257 175.64L257.17 183.76C257.17 183.76 253.01 184.66 250.26 182.44L250.77 179Z" fill="#B55B52"/>
<path d="M263.25 175.92L262.16 182.55L257.13 183.76L256.96 175.64L263.25 175.92Z" fill="#B55B52"/>
<path d="M231.85 161.31L237.31 156.83L274.51 212.72L269 217.2C262.72 222.34 249.31 214 239 198.56C228.69 183.12 225.57 166.45 231.85 161.31Z" fill="#089641"/>
<path opacity="0.1" d="M231.85 161.31L237.31 156.83L274.51 212.72L269 217.2C262.72 222.34 249.31 214 239 198.56C228.69 183.12 225.57 166.45 231.85 161.31Z" fill="#089641"/>
<path d="M243.567 192.583C233.643 176.897 231.121 160.686 237.935 156.375C244.75 152.064 258.319 161.285 268.243 176.972C278.167 192.658 280.689 208.87 273.874 213.181C267.06 217.492 253.491 208.27 243.567 192.583Z" fill="#089641"/>
<path d="M262.81 193.94L257.81 186.4C258.318 184.854 258.342 183.19 257.88 181.63C257.308 179.663 256.419 177.802 255.25 176.12C254.195 174.42 252.816 172.945 251.19 171.78C249.8 170.86 248.61 170.64 247.64 171.12L246.42 169.3L245.36 170.17L246.56 172C246.234 172.509 246.017 173.08 245.92 173.677C245.824 174.274 245.851 174.884 246 175.47C246.389 177.235 247.065 178.924 248 180.47L250.25 179.55C249.55 178.483 249.201 177.225 249.25 175.95L253.94 182.95C253.294 184.536 253.161 186.285 253.56 187.95C254.834 191.948 257.271 195.474 260.56 198.08C262.08 199.133 263.43 199.437 264.61 198.99L265.82 200.81L266.88 199.94L265.73 198.21C266.088 197.615 266.318 196.952 266.406 196.264C266.494 195.575 266.437 194.876 266.24 194.21C265.699 191.98 264.808 189.851 263.6 187.9L261.3 189C261.81 189.899 262.219 190.852 262.52 191.84C262.737 192.518 262.835 193.229 262.81 193.94ZM250.23 175C250.788 175.055 251.313 175.286 251.73 175.66C252.89 176.619 253.748 177.894 254.2 179.33C254.406 179.941 254.465 180.592 254.37 181.23L250.23 175ZM261.91 195C261.603 195.047 261.289 195.024 260.991 194.934C260.694 194.844 260.42 194.689 260.19 194.48C258.76 193.366 257.712 191.836 257.19 190.1C256.99 189.405 257.008 188.665 257.24 187.98L261.91 195Z" fill="white"/>
<path opacity="0.1" d="M238.95 175.38C238.21 170.48 238.95 166.55 241.27 164.62C246.38 160.43 257.27 167.23 265.68 179.8C269.215 184.977 271.824 190.73 273.39 196.8C272.53 191.06 269.68 183.99 265.17 177.2C256.8 164.63 245.87 157.84 240.76 162.02C238 164.27 237.5 169.28 238.95 175.38Z" fill="#353841"/>
<path d="M166.45 361.81L174.85 362.61L179.13 343.04L170.73 342.24L166.45 361.81Z" fill="#B55B52"/>
<path d="M119.66 349.71L127.47 352.77L135 334.21L127.19 331.15L119.66 349.71Z" fill="#B55B52"/>
<path d="M129.74 348.93L121.18 344.67C121.033 344.597 120.864 344.579 120.704 344.619C120.545 344.66 120.405 344.756 120.31 344.89L115.97 351.18C115.86 351.343 115.787 351.527 115.754 351.721C115.722 351.915 115.732 352.114 115.783 352.303C115.834 352.493 115.926 352.669 116.051 352.821C116.177 352.972 116.333 353.094 116.51 353.18C119.51 354.62 120.83 355.33 124.6 357.18C126.92 358.33 132.09 361.04 135.29 362.63C138.49 364.22 140.23 361.14 139.04 360.19C133.71 355.94 131.95 352.73 130.78 350.04C130.574 349.559 130.206 349.167 129.74 348.93Z" fill="#353841"/>
<path d="M176.49 358.25H166.39C166.21 358.25 166.034 358.311 165.892 358.421C165.749 358.531 165.646 358.685 165.6 358.86L163.4 366.86C163.345 367.049 163.335 367.248 163.371 367.441C163.408 367.634 163.489 367.816 163.609 367.972C163.729 368.128 163.884 368.253 164.061 368.338C164.239 368.423 164.433 368.465 164.63 368.46C168.16 368.4 169.85 368.46 174.29 368.46H187.85C191.54 368.46 192.35 364.72 190.85 364.39C184 362.87 180.05 360.78 177.94 358.79C177.545 358.428 177.025 358.235 176.49 358.25Z" fill="#353841"/>
<path opacity="0.2" d="M179.12 343.05L176.92 353.13H168.34L170.72 342.24L179.12 343.05Z" fill="#353841"/>
<path opacity="0.2" d="M127.19 331.16L135 334.22L131.11 343.78L123.31 340.72L127.19 331.16Z" fill="#353841"/>
<path d="M186.46 133.9C179.78 133.13 175.46 136.31 175.16 142.98C174.28 166.49 171.68 171.9 167.75 184.06L201.06 193.33C212.9 167.69 217.06 155.6 218.38 149.91C218.655 148.587 218.488 147.212 217.907 145.993C217.325 144.774 216.361 143.779 215.16 143.16C206.293 138.221 196.541 135.074 186.46 133.9Z" fill="#353841"/>
<path d="M196.59 118.14C196.19 123.27 194.86 132.14 190.59 134.49C190.59 134.49 191.22 137.66 202.26 148.23C209.07 142.49 205.59 138.64 205.59 138.64C200.52 135.83 201.71 132.17 203.71 128.64L196.59 118.14Z" fill="#B55B52"/>
<path opacity="0.2" d="M197.36 119.29C196.631 122.205 196.529 125.242 197.06 128.2C197.44 130.2 199.62 131.72 202.06 132.59C202.393 131.201 202.939 129.872 203.68 128.65L197.36 119.29Z" fill="#353841"/>
<path d="M194.63 108.45C193 116.74 192.13 120.21 195.15 125.45C199.7 133.37 210.24 133.57 214.32 125.93C217.99 119.06 220.05 106.66 212.91 101.32C211.34 100.137 209.493 99.3746 207.545 99.1062C205.597 98.8378 203.613 99.072 201.781 99.7865C199.95 100.501 198.331 101.672 197.079 103.188C195.828 104.705 194.984 106.516 194.63 108.45Z" fill="#B55B52"/>
<path d="M190.3 113.5C190.178 114.299 190.216 115.115 190.412 115.899C190.608 116.684 190.957 117.421 191.44 118.07C192.74 119.8 194.7 118.96 195.44 117.07C196.1 115.35 196.23 112.37 194.39 111.33C193.987 111.109 193.536 110.992 193.077 110.989C192.618 110.985 192.165 111.096 191.76 111.312C191.354 111.527 191.008 111.839 190.754 112.221C190.499 112.603 190.343 113.043 190.3 113.5Z" fill="#B55B52"/>
<path d="M201.9 104.06C202.21 107.23 199.67 112.65 194.9 113.91C189.96 108.23 193.22 100.44 197.76 100.28C202.3 100.12 201.9 104.06 201.9 104.06Z" fill="#353841"/>
<path d="M208.56 95.4199C215.85 95.7499 223.67 98.9999 220.96 110.42C214.6 109.09 196.9 107.11 195.54 102.57C197.33 96.7399 203.78 95.1999 208.56 95.4199Z" fill="#353841"/>
<path d="M201.06 193.33C201.06 193.33 203 260.61 197.59 286C191.98 312.42 179.31 350.18 179.31 350.18L167.41 349.41C167.41 349.41 175.1 300.04 177.41 279.67C180.67 251.59 176.62 186.52 176.62 186.52L201.06 193.33Z" fill="#374988"/>
<path opacity="0.2" d="M184.3 214.37C183.76 208.27 179.16 209.44 178.13 217.7C178.58 230.7 178.9 245.79 178.64 259C183.6 249.31 185.53 228.25 184.3 214.37Z" fill="#353841"/>
<path d="M165.9 350.18L180.23 351.15L182.22 344.43L166.71 342.79L165.9 350.18Z" fill="#353841"/>
<path d="M189.31 190.06C189.31 190.06 179.17 246.46 165.4 276.81C154.28 301.32 134.13 340.81 134.13 340.81L123.2 336.72C123.2 336.72 140.29 291.89 146.47 274.65C161.86 231.65 153.47 205.55 167.75 184.06L189.31 190.06Z" fill="#374988"/>
<path d="M121.91 337.76L134.52 342.15L138.11 335.69L123.1 331.97L121.91 337.76Z" fill="#353841"/>
<path d="M167.8 182L165.46 184.57C165.28 184.77 165.46 185.08 165.88 185.18L200.81 194.91C201.11 194.99 201.4 194.91 201.47 194.73L202.6 191.83C202.68 191.63 202.47 191.38 202.14 191.29L168.41 181.9C168.309 181.861 168.199 181.849 168.091 181.867C167.984 181.885 167.884 181.93 167.8 182Z" fill="#353841"/>
<path d="M171.28 187L170.37 186.74C170.19 186.69 170.08 186.56 170.13 186.45L171.63 182.7C171.63 182.59 171.85 182.54 172.03 182.59L172.94 182.84C173.12 182.84 173.23 183.02 173.19 183.13L171.68 186.89C171.64 187 171.46 187.05 171.28 187Z" fill="#374988"/>
<path d="M198.18 194.48L197.27 194.23C197.1 194.23 196.98 194.05 197.03 193.94L198.53 190.19C198.53 190.08 198.76 190.03 198.94 190.08L199.84 190.33C200.02 190.33 200.13 190.51 200.09 190.62L198.59 194.38C198.54 194.49 198.36 194.53 198.18 194.48Z" fill="#374988"/>
<path d="M184.73 190.74L183.82 190.49C183.64 190.44 183.53 190.31 183.58 190.2L185.08 186.44C185.08 186.33 185.31 186.28 185.49 186.33L186.39 186.58C186.57 186.58 186.68 186.77 186.64 186.88L185.13 190.63C185.09 190.74 184.91 190.79 184.73 190.74Z" fill="#374988"/>
<path d="M206.41 114C206.24 114.67 206.41 115.3 206.88 115.41C207.35 115.52 207.81 115.08 207.98 114.41C208.15 113.74 207.98 113.12 207.51 113C207.04 112.88 206.58 113.31 206.41 114Z" fill="#353841"/>
<path d="M213.92 115.94C213.74 116.6 213.92 117.23 214.39 117.35C214.86 117.47 215.32 117.01 215.49 116.35C215.66 115.69 215.49 115.05 215.02 114.94C214.55 114.83 214.09 115.27 213.92 115.94Z" fill="#353841"/>
<path d="M214.82 114.93L216.53 114.88C216.53 114.88 215.39 115.92 214.82 114.93Z" fill="#353841"/>
<path d="M211.63 116.56C211.826 118.23 212.25 119.865 212.89 121.42C212.489 121.574 212.059 121.637 211.63 121.606C211.201 121.575 210.785 121.45 210.41 121.24L211.63 116.56Z" fill="#A02724"/>
<path d="M207.47 123.25C207.508 123.243 207.544 123.225 207.572 123.199C207.601 123.172 207.621 123.138 207.63 123.1C207.638 123.075 207.64 123.049 207.637 123.023C207.634 122.997 207.625 122.972 207.612 122.95C207.599 122.927 207.581 122.907 207.56 122.892C207.539 122.877 207.515 122.866 207.49 122.86C206.659 122.663 205.885 122.272 205.234 121.72C204.582 121.167 204.07 120.468 203.74 119.68C203.732 119.654 203.719 119.63 203.701 119.609C203.684 119.588 203.662 119.571 203.638 119.559C203.614 119.547 203.587 119.54 203.56 119.538C203.533 119.537 203.506 119.541 203.48 119.55C203.431 119.568 203.391 119.604 203.367 119.65C203.343 119.696 203.337 119.75 203.35 119.8C203.695 120.652 204.237 121.409 204.933 122.009C205.628 122.609 206.457 123.034 207.35 123.25C207.389 123.262 207.431 123.262 207.47 123.25Z" fill="#353841"/>
<path d="M204.94 111C205.011 110.991 205.078 110.959 205.13 110.91C205.518 110.585 205.979 110.357 206.472 110.246C206.966 110.134 207.48 110.143 207.97 110.27C208.072 110.302 208.183 110.292 208.278 110.244C208.373 110.195 208.446 110.111 208.48 110.01C208.499 109.96 208.507 109.907 208.505 109.854C208.502 109.801 208.489 109.749 208.465 109.701C208.442 109.653 208.409 109.611 208.368 109.576C208.328 109.541 208.281 109.516 208.23 109.5C207.611 109.332 206.961 109.315 206.335 109.451C205.708 109.587 205.124 109.871 204.63 110.28C204.563 110.337 204.516 110.413 204.496 110.499C204.476 110.584 204.484 110.674 204.519 110.754C204.554 110.835 204.613 110.902 204.689 110.947C204.765 110.991 204.853 111.009 204.94 111Z" fill="#353841"/>
<path d="M218.39 113.38H218.47C218.52 113.363 218.566 113.337 218.606 113.302C218.646 113.267 218.678 113.225 218.701 113.177C218.724 113.13 218.738 113.078 218.741 113.025C218.745 112.973 218.737 112.92 218.72 112.87C218.525 112.259 218.186 111.704 217.732 111.252C217.278 110.799 216.722 110.463 216.11 110.27C216.059 110.257 216.005 110.253 215.953 110.261C215.9 110.268 215.85 110.286 215.804 110.313C215.759 110.34 215.719 110.375 215.687 110.418C215.656 110.46 215.633 110.509 215.62 110.56C215.596 110.665 215.614 110.775 215.67 110.866C215.726 110.958 215.816 111.024 215.92 111.05C216.395 111.212 216.824 111.486 217.172 111.848C217.52 112.209 217.776 112.649 217.92 113.13C217.954 113.222 218.021 113.298 218.107 113.345C218.194 113.391 218.295 113.403 218.39 113.38Z" fill="#353841"/>
<path d="M179.25 149.64C181.85 155 184.55 160.26 187.4 165.49C188.82 168.11 190.24 170.73 191.75 173.31C193.26 175.89 194.75 178.48 196.54 181.07C196.95 181.71 197.46 182.39 197.94 183.07L198.12 183.31L198.21 183.44L198.36 183.63C198.57 183.89 198.78 184.11 198.99 184.33C199.372 184.718 199.783 185.075 200.22 185.4C201.66 186.453 203.225 187.323 204.88 187.99C207.8 189.169 210.809 190.112 213.88 190.81C219.758 192.169 225.727 193.101 231.74 193.6L232.42 189.34C229.63 188.6 226.79 187.82 224 187.01C221.21 186.2 218.44 185.34 215.74 184.4C213.111 183.515 210.542 182.459 208.05 181.24C206.999 180.722 206.01 180.088 205.1 179.35C204.951 179.226 204.814 179.089 204.69 178.94C204.654 178.896 204.62 178.849 204.59 178.8L204.37 178.46C204.02 177.91 203.66 177.39 203.3 176.77C201.88 174.38 200.48 171.82 199.12 169.26L195.07 161.49L187.07 145.81L179.25 149.64Z" fill="#B55B52"/>
<path d="M229.68 189.38L235.57 187.12L235.07 195.43C235.07 195.43 230.44 195.43 228.3 192.58L229.68 189.38Z" fill="#B55B52"/>
<path d="M240.2 187.36L241.46 193.47L235.07 195.43L235.57 187.12L240.2 187.36Z" fill="#B55B52"/>
<path d="M186.5 138.2C189.79 139.71 193.61 153.38 193.61 153.38L179.36 155C179.36 155 176.6 148.36 177.16 144.95C178 139.5 182.75 136.48 186.5 138.2Z" fill="#353841"/>
<path d="M134 351.37C134.055 351.276 134.099 351.175 134.13 351.07C134.176 350.958 134.191 350.836 134.174 350.716C134.156 350.596 134.107 350.484 134.03 350.39C133.34 349.55 130.28 349.89 129.94 349.93C129.901 349.933 129.863 349.948 129.833 349.973C129.802 349.998 129.78 350.032 129.77 350.07C129.757 350.107 129.756 350.147 129.767 350.184C129.778 350.222 129.8 350.255 129.83 350.28C130.7 351.01 132.32 352.18 133.36 351.88C133.497 351.845 133.624 351.781 133.735 351.693C133.845 351.606 133.935 351.495 134 351.37ZM130.47 350.28C131.7 350.18 133.35 350.2 133.72 350.64C133.748 350.687 133.763 350.74 133.763 350.795C133.763 350.85 133.748 350.903 133.72 350.95C133.691 351.077 133.629 351.194 133.542 351.29C133.454 351.387 133.343 351.459 133.22 351.5C132.67 351.66 131.65 351.21 130.45 350.28H130.47Z" fill="#374988"/>
<path d="M133.25 348.61C133.289 348.537 133.319 348.46 133.34 348.38C133.382 348.225 133.37 348.061 133.306 347.914C133.243 347.767 133.131 347.646 132.99 347.57C132.86 347.485 132.713 347.429 132.559 347.407C132.406 347.385 132.249 347.396 132.1 347.44C130.91 347.76 129.81 349.95 129.76 350.04C129.742 350.07 129.733 350.105 129.733 350.14C129.733 350.175 129.742 350.21 129.76 350.24C129.78 350.269 129.807 350.292 129.839 350.308C129.87 350.324 129.905 350.331 129.94 350.33C131.212 350.167 132.385 349.558 133.25 348.61ZM130.34 349.82C130.75 349.1 131.51 348.01 132.21 347.82C132.302 347.79 132.399 347.782 132.494 347.796C132.59 347.81 132.681 347.846 132.76 347.9C132.98 348.04 132.98 348.17 132.95 348.26C132.8 348.84 131.32 349.65 130.31 349.86L130.34 349.82Z" fill="#374988"/>
<path d="M181 359.91C181.699 359.967 182.399 359.802 183 359.44C183.158 359.326 183.287 359.176 183.376 359.002C183.464 358.828 183.51 358.635 183.51 358.44C183.524 358.334 183.508 358.226 183.464 358.129C183.42 358.032 183.349 357.949 183.26 357.89C182.35 357.27 178.91 358.83 178.26 359.15C178.221 359.168 178.188 359.198 178.167 359.236C178.145 359.274 178.136 359.317 178.14 359.36C178.146 359.402 178.164 359.44 178.193 359.471C178.221 359.501 178.259 359.522 178.3 359.53C179.184 359.751 180.089 359.878 181 359.91ZM182.61 358.17C182.749 358.162 182.888 358.193 183.01 358.26C183.01 358.26 183.09 358.33 183.08 358.45C183.077 358.581 183.044 358.71 182.984 358.826C182.923 358.942 182.836 359.043 182.73 359.12C182.14 359.57 180.73 359.63 178.93 359.29C180.082 358.732 181.313 358.355 182.58 358.17H182.61Z" fill="#374988"/>
<path d="M178.25 359.57H178.33C179.47 359.11 181.77 357.26 181.64 356.31C181.64 356.1 181.47 355.84 180.95 355.78C178.95 355.54 178.09 359.19 178.05 359.34C178.044 359.376 178.047 359.414 178.059 359.449C178.072 359.484 178.092 359.515 178.12 359.54C178.159 359.564 178.205 359.574 178.25 359.57ZM180.76 356.15H180.9C181.11 356.15 181.22 356.24 181.24 356.34C181.31 356.89 179.72 358.34 178.56 358.98C178.83 358.11 179.55 356.15 180.76 356.15Z" fill="#374988"/>
<path d="M207.31 113H209.03C209.03 113 207.88 114 207.31 113Z" fill="#353841"/>
<path d="M203.38 368.47H148.66C148.283 368.47 147.922 368.62 147.656 368.886C147.39 369.152 147.24 369.513 147.24 369.89V374.51H204.79V369.89C204.79 369.515 204.642 369.155 204.378 368.889C204.114 368.623 203.755 368.473 203.38 368.47Z" fill="#353841"/>
<path d="M146.75 389.8H204.3V395.83H146.75V389.8Z" fill="#353841"/>
<path opacity="0.5" d="M146.75 389.8H184.8V395.83H146.75V389.8Z" fill="#353841"/>
<path d="M179.26 374.5L185.73 415C185.784 415.333 185.955 415.636 186.211 415.856C186.467 416.075 186.793 416.197 187.13 416.2H190.3C190.505 416.2 190.707 416.155 190.893 416.069C191.079 415.983 191.244 415.858 191.377 415.702C191.51 415.546 191.608 415.363 191.664 415.166C191.719 414.969 191.732 414.762 191.7 414.56L185.29 374.46L179.26 374.5Z" fill="#353841"/>
<path opacity="0.5" d="M179.26 374.5L179.75 377.58H185.79L185.29 374.5H179.26Z" fill="#353841"/>
<path d="M198.76 374.5L205.23 415C205.284 415.333 205.455 415.636 205.711 415.856C205.967 416.075 206.293 416.197 206.63 416.2H209.8C210.005 416.2 210.207 416.155 210.393 416.069C210.579 415.983 210.744 415.858 210.877 415.702C211.01 415.546 211.108 415.363 211.164 415.166C211.219 414.969 211.232 414.762 211.2 414.56L204.79 374.46L198.76 374.5Z" fill="#353841"/>
<path d="M140.84 414.6L147.24 374.5H153.24L146.8 415C146.748 415.334 146.578 415.638 146.321 415.858C146.065 416.078 145.738 416.199 145.4 416.2H142.24C142.039 416.199 141.841 416.155 141.658 416.071C141.475 415.988 141.312 415.866 141.18 415.715C141.048 415.564 140.949 415.386 140.89 415.194C140.832 415.002 140.815 414.799 140.84 414.6Z" fill="#353841"/>
<path opacity="0.5" d="M146.75 377.58L147.24 374.5H153.28L152.79 377.58H146.75Z" fill="#353841"/>
<path d="M160.34 414.6L166.74 374.5H172.74L166.3 415C166.248 415.334 166.078 415.638 165.821 415.858C165.565 416.078 165.238 416.199 164.9 416.2H161.74C161.539 416.199 161.341 416.155 161.158 416.071C160.975 415.988 160.812 415.866 160.68 415.715C160.548 415.564 160.449 415.386 160.39 415.194C160.332 415.002 160.315 414.799 160.34 414.6Z" fill="#353841"/>
<path opacity="0.5" d="M160.34 414.6L166.74 374.5H172.74L166.3 415C166.248 415.334 166.078 415.638 165.821 415.858C165.565 416.078 165.238 416.199 164.9 416.2H161.74C161.539 416.199 161.341 416.155 161.158 416.071C160.975 415.988 160.812 415.866 160.68 415.715C160.548 415.564 160.449 415.386 160.39 415.194C160.332 415.002 160.315 414.799 160.34 414.6Z" fill="#353841"/>
<path opacity="0.5" d="M185.29 368.47H148.66C148.283 368.47 147.922 368.62 147.656 368.886C147.39 369.152 147.24 369.513 147.24 369.89V374.51H185.24V368.51L185.29 368.47Z" fill="#353841"/>
<path d="M354.22 410.73L346.21 396.03L374.86 370.92L377.1 410.73H354.22Z" fill="#089641"/>
<path opacity="0.1" d="M354.22 410.73L346.21 396.03L374.86 370.92L377.1 410.73H354.22Z" fill="#353841"/>
<path d="M255.48 243.22C239.41 232.22 225.95 233.35 221.48 236.56C217.01 239.77 231.21 264.15 231.21 264.15C236.52 262.607 241.437 259.94 245.624 256.328C249.812 252.717 253.174 248.246 255.48 243.22Z" fill="#089641"/>
<path opacity="0.2" d="M247.83 254.27C238.78 245.38 229.55 242.53 227.05 244.02C224.55 245.51 232.58 262.65 232.58 262.65C232.58 262.65 243.43 264.21 247.83 254.27Z" fill="#353841"/>
<path d="M395.11 277.7L396.02 277.24C393.508 272.296 390.552 267.59 387.19 263.18L386.38 263.8C389.7 268.163 392.621 272.815 395.11 277.7Z" fill="#089641"/>
<path d="M399.87 289L400.87 288.67C400.11 286.44 399.25 284.21 398.31 282.05L397.37 282.46C398.27 284.58 399.12 286.78 399.87 289Z" fill="#089641"/>
<path d="M212.89 316.75C212.89 366.4 250.27 406.64 304.23 406.64C358.19 406.64 401.93 366.4 401.93 316.75C401.93 267.1 358.19 226.86 304.23 226.86C250.27 226.86 212.89 267.1 212.89 316.75Z" fill="#089641"/>
<path opacity="0.1" d="M317.25 397.12L321.16 405.3C318.333 405.76 315.463 406.093 312.55 406.3L317.25 397.12Z" fill="#353841"/>
<path d="M323.17 416.24L311.93 396.03L347.88 382.89L352.48 416.24H323.17Z" fill="#089641"/>
<path d="M270.81 416.24L280.55 396.03L246.32 382.89L244.05 416.24H270.81Z" fill="#089641"/>
<path opacity="0.2" d="M246.22 329.74C246.22 343.18 258.1 354.07 272.71 354.07C287.32 354.07 299.15 343.18 299.15 329.74C299.15 316.3 287.31 305.41 272.71 305.41C258.11 305.41 246.22 316.3 246.22 329.74Z" fill="#353841"/>
<path opacity="0.2" d="M281.49 337.7C279.01 337.7 277 333.957 277 329.34C277 324.723 279.01 320.98 281.49 320.98C283.97 320.98 285.98 324.723 285.98 329.34C285.98 333.957 283.97 337.7 281.49 337.7Z" fill="#353841"/>
<path opacity="0.4" d="M313.6 284.36C312.31 288.29 313.5 292.58 316.25 293.93C319 295.28 322.25 293.18 323.57 289.25C324.89 285.32 323.68 281.03 320.93 279.68C318.18 278.33 314.89 280.42 313.6 284.36Z" fill="#353841"/>
<path opacity="0.4" d="M244 284.54C245 288.47 243.77 292.71 241.29 294C238.81 295.29 236.01 293.15 235.03 289.21C234.05 285.27 235.26 281.04 237.74 279.75C240.22 278.46 243 280.6 244 284.54Z" fill="#353841"/>
<path opacity="0.2" d="M257.6 337.7C255.12 337.7 253.11 333.957 253.11 329.34C253.11 324.723 255.12 320.98 257.6 320.98C260.08 320.98 262.09 324.723 262.09 329.34C262.09 333.957 260.08 337.7 257.6 337.7Z" fill="#353841"/>
<path d="M332.79 242.4C350.2 227.98 365.79 226.86 371.17 229.48C376.55 232.1 362.56 260.37 362.56 260.37C362.56 260.37 343.46 259.25 332.79 242.4Z" fill="#089641"/>
<path opacity="0.2" d="M342.59 252.78C352.14 241.78 362.46 237.2 365.47 238.34C368.48 239.48 360.85 259 360.85 259C360.85 259 348.55 262.54 342.59 252.78Z" fill="#353841"/>
<path opacity="0.4" d="M297.63 234.68H282.92C282.92 234.68 286.12 231.16 296.98 230.09C303.13 229.591 309.32 229.927 315.38 231.09C315.38 231.09 303.26 230.82 297.63 234.68Z" fill="#353841"/>
</svg>
