<svg width="500" height="500" viewBox="0 0 500 500" fill="none" xmlns="http://www.w3.org/2000/svg">
<circle opacity="0.1" cx="279" cy="250" r="205" fill="#E50E0E"/>
<path d="M249.36 489.54C116.641 489.54 9.05002 433.862 9.05002 365.18C9.05002 296.498 116.641 240.82 249.36 240.82C382.08 240.82 489.67 296.498 489.67 365.18C489.67 433.862 382.08 489.54 249.36 489.54Z" fill="#F5F5F5"/>
<path d="M411.61 56.58L420.79 61.88C420.79 61.47 420.71 61.06 420.71 60.66V58C420.71 53.26 424.04 51.35 428.13 53.71C429.897 54.8058 431.408 56.2689 432.56 58C433.23 52.05 437.9 49.84 443.56 53.11C449.69 56.65 454.66 65.26 454.66 72.34V76.34C454.705 77.9285 454.384 79.5061 453.72 80.95L461.35 85.35C462.546 86.1331 463.541 87.1865 464.255 88.425C464.969 89.6635 465.382 91.0526 465.46 92.48C465.46 95.11 463.62 96.17 461.35 94.86L411.61 66.09C410.419 65.3108 409.427 64.2637 408.714 63.0326C408 61.8015 407.584 60.4205 407.5 59C407.5 56.33 409.34 55.27 411.61 56.58Z" fill="#EBEBEB"/>
<path d="M367.45 76.4599L374.38 80.4599C374.34 80.1582 374.32 79.8542 374.32 79.5499V77.5499C374.32 73.9799 376.83 72.5499 379.92 74.3199C381.25 75.1387 382.389 76.2334 383.26 77.5299C383.76 73.0399 387.26 71.3599 391.56 73.8299C396.19 76.4999 399.94 82.9999 399.94 88.3399V91.3399C399.974 92.539 399.731 93.7298 399.23 94.8199L405 98.1299C405.903 98.7203 406.654 99.515 407.192 100.45C407.731 101.384 408.042 102.433 408.1 103.51C408.1 105.51 406.71 106.3 405 105.31L367.46 83.6399C366.556 83.0494 365.804 82.2549 365.264 81.3204C364.724 80.3859 364.411 79.3376 364.35 78.2599C364.34 76.2799 365.74 75.4699 367.45 76.4599Z" fill="#EBEBEB"/>
<path d="M102.42 355.18C73.519 355.18 50.09 341.65 50.09 324.96C50.09 308.27 73.519 294.74 102.42 294.74C131.321 294.74 154.75 308.27 154.75 324.96C154.75 341.65 131.321 355.18 102.42 355.18Z" fill="#E0E0E0"/>
<path d="M138.75 460.19C140.804 460.178 142.846 459.885 144.82 459.32C150.82 457.65 152.63 454.53 153.14 452.21C153.95 448.45 151.69 444.56 149.14 442.37C148.21 441.59 147.14 440.77 146.04 439.92C143.16 437.7 139.58 434.92 138.75 432.81L134.75 422.43L137.8 420.67L137.14 419.14L140.32 419.82L141.75 417.91C144.91 419.43 152.68 423.2 163.1 428.41C165.5 429.61 167.52 430.65 169.29 431.56C175.14 434.56 178.37 436.24 183.29 437.41C185.096 437.856 186.949 438.088 188.81 438.1C192.64 438.1 195.64 437.01 197.48 434.95C198.296 433.984 198.891 432.852 199.225 431.633C199.558 430.414 199.621 429.136 199.41 427.89C198.32 418.11 179.25 409.58 169.35 408.69C166.1 408.39 163.03 408.25 159.71 408.25C158.1 408.25 156.65 408.25 155.35 408.32C154.35 408.32 153.35 408.32 152.5 408.32C151.65 408.32 150.83 408.32 150.11 408.23C146.36 407.89 134.7 405.73 134.58 405.71L133.31 405.48L132.53 406.48L129.62 405.92C125.77 403.19 96.31 382.31 89.36 377.53C85.02 374.53 77.25 369.83 74.89 369.83H73.62L72.84 371.01L72.24 372.13L73.04 373.45C73.21 373.73 78.17 381.45 84.16 386.2C86.64 388.2 93.8 394.25 100.92 400.35L47 390L49.36 394C50.01 395.13 53.51 398.32 71.66 403.69C82.59 406.91 102.55 411.54 117.58 414.89L120 417C120.17 419.68 120.71 427.83 121.07 432.1C121.08 433.83 120.817 435.552 120.29 437.2C119.37 440.79 118.24 445.27 121.19 449.85C123.71 453.72 129.31 460.19 138.75 460.19ZM134.95 444.68C136.252 444.648 137.547 444.876 138.76 445.352C139.972 445.828 141.077 446.541 142.01 447.45C142.284 447.714 142.493 448.039 142.62 448.399C142.747 448.758 142.788 449.142 142.74 449.52C142.512 449.977 142.179 450.375 141.769 450.68C141.359 450.986 140.884 451.191 140.38 451.28C139.605 451.494 138.804 451.599 138 451.59C136.697 451.621 135.4 451.392 134.186 450.917C132.972 450.441 131.865 449.728 130.93 448.82C130.654 448.557 130.445 448.232 130.32 447.872C130.195 447.512 130.157 447.127 130.21 446.75C130.436 446.292 130.768 445.894 131.179 445.59C131.589 445.286 132.066 445.083 132.57 445C133.344 444.781 134.146 444.673 134.95 444.68ZM162.53 416.08C166.48 416.139 170.398 416.814 174.14 418.08C184.48 421.48 187.73 425.71 188.74 427.93C188.87 428.21 189.15 428.93 188.91 429.28C188.688 429.504 188.418 429.676 188.12 429.781C187.822 429.887 187.504 429.924 187.19 429.89C186.853 429.889 186.517 429.845 186.19 429.76C184.263 429.234 182.447 428.363 180.83 427.19C178.735 425.834 176.565 424.598 174.33 423.49C168.938 420.837 163.36 418.581 157.64 416.74L157.46 416.67C159.116 416.248 160.821 416.05 162.53 416.08Z" fill="#E0E0E0"/>
<path d="M323.25 455.26C328.42 457.9 315.35 467.1 308.89 463.55L194.8 396.77L181.21 382.43C181.076 382.284 180.994 382.098 180.975 381.901C180.956 381.704 181.003 381.506 181.107 381.337C181.211 381.169 181.367 381.039 181.552 380.967C181.736 380.895 181.939 380.886 182.13 380.94L208.35 388.94L323.25 455.26Z" fill="#E0E0E0"/>
<path d="M420.51 434.39L464.25 409.13C466.72 407.71 466.72 405.4 464.25 403.98L219.49 262.83C218.106 262.13 216.576 261.765 215.025 261.765C213.474 261.765 211.944 262.13 210.56 262.83L166.81 288.09C164.35 289.51 164.35 291.82 166.81 293.24L411.58 434.39C412.964 435.09 414.494 435.455 416.045 435.455C417.596 435.455 419.126 435.09 420.51 434.39Z" fill="#E0E0E0"/>
<path d="M138.95 299.18C138.928 298.933 138.841 298.695 138.697 298.493C138.553 298.291 138.357 298.131 138.13 298.03C137.518 297.719 136.841 297.557 136.155 297.557C135.469 297.557 134.792 297.719 134.18 298.03C133.954 298.133 133.76 298.293 133.616 298.495C133.472 298.697 133.383 298.933 133.36 299.18L138.46 325.33C138.481 325.5 138.545 325.663 138.646 325.801C138.748 325.939 138.884 326.049 139.04 326.12C139.471 326.342 139.95 326.458 140.435 326.458C140.92 326.458 141.398 326.342 141.83 326.12C141.986 326.049 142.122 325.939 142.223 325.801C142.325 325.663 142.389 325.5 142.41 325.33L138.95 299.18Z" fill="#353841"/>
<path d="M66.5799 299.18C66.6015 298.934 66.6878 298.698 66.83 298.496C66.9723 298.294 67.1655 298.133 67.39 298.03C68.0088 297.713 68.6944 297.547 69.39 297.547C70.0855 297.547 70.7711 297.713 71.39 298.03C71.6144 298.133 71.8076 298.294 71.9499 298.496C72.0921 298.698 72.1784 298.934 72.2 299.18L67.1099 325.33C67.0901 325.499 67.0274 325.661 66.9276 325.799C66.8279 325.938 66.6944 326.048 66.5399 326.12C66.1067 326.342 65.6268 326.458 65.14 326.458C64.6531 326.458 64.1732 326.342 63.7399 326.12C63.5855 326.048 63.452 325.938 63.3522 325.799C63.2525 325.661 63.1897 325.499 63.17 325.33L66.5799 299.18Z" fill="#353841"/>
<path d="M99.63 303.05C99.6521 302.804 99.7399 302.568 99.8841 302.368C100.028 302.167 100.224 302.009 100.45 301.91C101.062 301.599 101.739 301.437 102.425 301.437C103.111 301.437 103.788 301.599 104.4 301.91C104.625 302.011 104.819 302.17 104.963 302.37C105.107 302.57 105.196 302.805 105.22 303.05L104.4 340.35C104.379 340.52 104.315 340.683 104.213 340.821C104.112 340.959 103.976 341.069 103.82 341.14C103.387 341.357 102.909 341.47 102.425 341.47C101.941 341.47 101.463 341.357 101.03 341.14C100.874 341.069 100.738 340.959 100.637 340.821C100.535 340.683 100.471 340.52 100.45 340.35L99.63 303.05Z" fill="#353841"/>
<path d="M52.34 279.25H52.39C52.39 271.85 57.23 264.45 67.01 258.81C86.57 247.52 118.28 247.52 137.83 258.81C147.61 264.45 152.46 271.81 152.46 279.25V283.25C152.35 290.55 147.46 297.83 137.79 303.4C118.24 314.69 86.53 314.69 66.97 303.4C57.32 297.83 52.42 290.55 52.3 283.25L52.34 279.25Z" fill="#374988"/>
<path d="M137.84 258.81C157.39 270.1 157.39 288.41 137.84 299.7C118.29 310.99 86.5799 310.99 67.0199 299.7C47.4599 288.41 47.4599 270.1 67.0199 258.81C86.5799 247.52 118.28 247.52 137.84 258.81Z" fill="#374988"/>
<path opacity="0.45" d="M137.84 258.81C157.39 270.1 157.39 288.41 137.84 299.7C118.29 310.99 86.5799 310.99 67.0199 299.7C47.4599 288.41 47.4599 270.1 67.0199 258.81C86.5799 247.52 118.28 247.52 137.84 258.81Z" fill="white"/>
<g opacity="0.05">
<path opacity="0.05" d="M91.4498 274.42C85.2098 278.02 85.2098 283.86 91.4498 287.42C97.6898 290.98 107.81 291.02 114.04 287.42C120.27 283.82 120.28 277.98 114.04 274.42C107.8 270.86 97.6898 270.81 91.4498 274.42Z" fill="#CC2593"/>
</g>
<path d="M112.68 281.74C118.12 276.2 121.31 262.36 116.01 257.96H89.0099C83.7099 262.36 86.8999 276.19 92.3299 281.74L92.4699 281.89L92.6599 282.07C92.8199 282.22 92.9799 282.37 93.1499 282.51L93.2799 282.61L93.6899 282.92C93.9158 283.086 94.153 283.237 94.3999 283.37C98.8599 285.95 106.11 285.95 110.58 283.37C110.82 283.24 111.05 283.08 111.29 282.92L111.67 282.63L111.83 282.5C111.998 282.373 112.155 282.233 112.3 282.08L112.52 281.87C112.579 281.834 112.633 281.791 112.68 281.74Z" fill="#EBEBEB"/>
<path d="M91.3899 256.19C85.2399 259.74 85.2399 265.5 91.3899 269.05C97.5399 272.6 107.51 272.6 113.67 269.05C119.83 265.5 119.82 259.74 113.67 256.19C107.52 252.64 97.5399 252.64 91.3899 256.19Z" fill="#FAFAFA"/>
<path d="M95.7498 258.71C92.0098 260.87 92.0098 264.37 95.7498 266.53C97.85 267.593 100.171 268.147 102.525 268.147C104.879 268.147 107.2 267.593 109.3 266.53C113.05 264.37 113.05 260.87 109.3 258.71C107.2 257.647 104.879 257.093 102.525 257.093C100.171 257.093 97.85 257.647 95.7498 258.71Z" fill="#EBEBEB"/>
<path d="M109.3 262.42C107.2 261.357 104.879 260.803 102.525 260.803C100.171 260.803 97.85 261.357 95.7498 262.42C94.8434 262.91 94.0734 263.618 93.5098 264.48C94.0807 265.321 94.8501 266.008 95.7498 266.48C97.85 267.543 100.171 268.097 102.525 268.097C104.879 268.097 107.2 267.543 109.3 266.48C110.2 266.005 110.972 265.319 111.55 264.48C110.979 263.62 110.207 262.913 109.3 262.42Z" fill="#E0E0E0"/>
<path d="M96.5799 264.48C94.663 262.533 93.0121 260.34 91.6699 257.96C89.4099 253.96 88.9899 248.59 90.1599 247.96C91.3299 247.33 96.0999 252.65 96.0999 252.65C95.6578 250.398 95.4866 248.102 95.5899 245.81C95.7899 242.25 96.6599 239.01 97.6799 238.36C98.6999 237.71 100.99 242.2 101.97 245.46C102.95 248.72 103.54 251.4 103.54 251.4C103.928 248.858 104.513 246.351 105.29 243.9C106.48 240.51 107.56 239.75 108.39 240.08C109.22 240.41 109.78 242 110.03 246.5C110.117 248.656 110.047 250.815 109.82 252.96C109.82 252.96 111.5 251.11 113.37 249.32C115.42 247.32 116.29 247.08 116.88 247.45C117.47 247.82 117.63 250.89 114.45 256.63C112.872 259.553 110.848 262.212 108.45 264.51C108.45 264.51 104.08 267.31 96.5799 264.48Z" fill="#CC2593"/>
<path opacity="0.3" d="M96.5799 264.48C94.663 262.533 93.0121 260.34 91.6699 257.96C89.4099 253.96 88.9899 248.59 90.1599 247.96C91.3299 247.33 96.0999 252.65 96.0999 252.65C95.6578 250.398 95.4866 248.102 95.5899 245.81C95.7899 242.25 96.6599 239.01 97.6799 238.36C98.6999 237.71 100.99 242.2 101.97 245.46C102.95 248.72 103.54 251.4 103.54 251.4C103.928 248.858 104.513 246.351 105.29 243.9C106.48 240.51 107.56 239.75 108.39 240.08C109.22 240.41 109.78 242 110.03 246.5C110.117 248.656 110.047 250.815 109.82 252.96C109.82 252.96 111.5 251.11 113.37 249.32C115.42 247.32 116.29 247.08 116.88 247.45C117.47 247.82 117.63 250.89 114.45 256.63C112.872 259.553 110.848 262.212 108.45 264.51C108.45 264.51 104.08 267.31 96.5799 264.48Z" fill="#CC2593"/>
<path d="M272.95 395.14L235.35 373.39C231.47 371.16 229.53 368.22 229.53 365.29C229.53 362.36 229.53 360.06 229.53 360.06L268.53 338.06C269.621 337.349 270.529 336.391 271.18 335.263C271.832 334.135 272.209 332.87 272.28 331.57V285.21L337.96 323.21V369.58C337.891 370.878 337.517 372.142 336.867 373.268C336.217 374.394 335.31 375.351 334.22 376.06L301 395.14C293.27 399.61 280.7 399.61 272.95 395.14Z" fill="#CC2593"/>
<g opacity="0.6">
<path opacity="0.6" d="M272.95 395.14L235.35 373.39C231.47 371.16 229.53 368.22 229.53 365.29C229.53 362.36 229.53 360.06 229.53 360.06L268.53 338.06C269.621 337.349 270.529 336.391 271.18 335.263C271.832 334.135 272.209 332.87 272.28 331.57V285.21L337.96 323.21V369.58C337.891 370.878 337.517 372.142 336.867 373.268C336.217 374.394 335.31 375.351 334.22 376.06L301 395.14C293.27 399.61 280.7 399.61 272.95 395.14Z" fill="#CC2593"/>
</g>
<path opacity="0.3" d="M322.19 377.74V383L334.19 376.06C335.277 375.348 336.182 374.391 336.832 373.265C337.481 372.14 337.857 370.877 337.93 369.58V323.17L325.45 316C325.2 319.17 324.91 322.46 324.65 325.66L333.43 330.74V366.96C333.366 368.26 332.994 369.525 332.343 370.652C331.693 371.779 330.783 372.735 329.69 373.44L322.19 377.74Z" fill="#CC2593"/>
<path d="M333.43 366.92C333.361 368.218 332.987 369.482 332.337 370.608C331.687 371.734 330.78 372.691 329.69 373.4L301 389.91C293.25 394.38 280.68 394.39 272.92 389.91L235.3 368.17C227.55 363.7 227.55 356.44 235.3 351.96L264 335.45C265.09 334.738 265.996 333.78 266.646 332.652C267.296 331.524 267.671 330.26 267.74 328.96V292.73L333.42 330.73L333.43 366.92Z" fill="#CC2593"/>
<path opacity="0.3" d="M333.43 366.92C333.361 368.218 332.987 369.482 332.337 370.608C331.687 371.734 330.78 372.691 329.69 373.4L301 389.91C293.25 394.38 280.68 394.39 272.92 389.91L235.3 368.17C227.55 363.7 227.55 356.44 235.3 351.96L264 335.45C265.09 334.738 265.996 333.78 266.646 332.652C267.296 331.524 267.671 330.26 267.74 328.96V292.73L333.42 330.73L333.43 366.92Z" fill="#CC2593"/>
<path opacity="0.5" d="M256.38 339.85L264 335.45C265.09 334.738 265.996 333.78 266.646 332.652C267.296 331.524 267.671 330.26 267.74 328.96V292.73L333.42 330.73V366.96C333.351 368.258 332.977 369.522 332.327 370.648C331.677 371.774 330.77 372.731 329.68 373.44L322.18 377.77L256.38 339.85Z" fill="#CC2593"/>
<path d="M229.52 360.06V365.29C229.52 368.23 231.52 371.15 235.34 373.4L272.95 395.13C277.071 397.334 281.676 398.479 286.35 398.46V393.25C281.676 393.269 277.071 392.125 272.95 389.92L235.34 368.17C231.47 365.94 229.52 363 229.52 360.06Z" fill="#CC2593"/>
<path opacity="0.5" d="M229.52 360.06V365.29C229.52 368.23 231.52 371.15 235.34 373.4L272.95 395.13C277.071 397.334 281.676 398.479 286.35 398.46V393.25C281.676 393.269 277.071 392.125 272.95 389.92L235.34 368.17C231.47 365.94 229.52 363 229.52 360.06Z" fill="#CC2593"/>
<path d="M438.9 412C437.482 412.689 435.921 413.032 434.345 413.003C432.768 412.973 431.221 412.571 429.83 411.83L175.83 265.17C174.47 264.282 173.339 263.085 172.527 261.678C171.716 260.271 171.247 258.692 171.16 257.07V25.7199C171.214 24.1441 171.64 22.6033 172.403 21.2234C173.166 19.8435 174.244 18.6636 175.55 17.7799C176.967 17.093 178.526 16.7503 180.1 16.7798C181.675 16.8094 183.22 17.2103 184.61 17.9499L438.6 164.61C439.963 165.496 441.097 166.692 441.911 168.099C442.724 169.507 443.193 171.087 443.28 172.71V404C443.237 405.585 442.817 407.137 442.055 408.528C441.294 409.919 440.212 411.109 438.9 412Z" fill="#CC2593"/>
<path d="M429.83 411.78L175.83 265.12C174.467 264.231 173.334 263.034 172.52 261.625C171.707 260.215 171.238 258.635 171.15 257.01V25.71C171.15 22.71 173.25 21.52 175.83 23.01L429.83 169.67C431.193 170.556 432.327 171.752 433.141 173.159C433.954 174.567 434.423 176.147 434.51 177.77V409.07C434.51 412.06 432.41 413.27 429.83 411.78Z" fill="#CC2593"/>
<path opacity="0.5" d="M429.83 411.78L175.83 265.12C174.467 264.231 173.334 263.034 172.52 261.625C171.707 260.215 171.238 258.635 171.15 257.01V25.71C171.15 22.71 173.25 21.52 175.83 23.01L429.83 169.67C431.193 170.556 432.327 171.752 433.141 173.159C433.954 174.567 434.423 176.147 434.51 177.77V409.07C434.51 412.06 432.41 413.27 429.83 411.78Z" fill="#CC2593"/>
<path d="M430.52 417.12C431.848 417.692 433.284 417.972 434.73 417.941C436.175 417.91 437.598 417.569 438.9 416.94C440.206 416.056 441.284 414.876 442.047 413.497C442.81 412.117 443.236 410.576 443.29 409V390.28L434.51 395.36V414.07C434.51 416.79 432.78 418 430.52 417.12Z" fill="#CC2593"/>
<path opacity="0.5" d="M430.52 417.12C431.848 417.692 433.284 417.972 434.73 417.941C436.175 417.91 437.598 417.569 438.9 416.94C440.206 416.056 441.284 414.876 442.047 413.497C442.81 412.117 443.236 410.576 443.29 409V390.28L434.51 395.36V414.07C434.51 416.79 432.78 418 430.52 417.12Z" fill="#CC2593"/>
<path d="M434.51 395.36V414.06C434.51 417.06 432.41 418.26 429.83 416.76L175.83 270.11C174.467 269.221 173.334 268.024 172.52 266.615C171.707 265.205 171.238 263.625 171.15 262V243.26L434.51 395.36Z" fill="#CC2593"/>
<path opacity="0.3" d="M434.51 395.32V414.06C434.51 417.06 432.41 418.26 429.83 416.76L175.83 270.11C174.467 269.221 173.334 268.024 172.52 266.615C171.707 265.205 171.238 263.625 171.15 262V243.26L434.51 395.32Z" fill="#CC2593"/>
<path d="M425.73 371.88V180.69C425.676 179.715 425.394 178.766 424.906 177.92C424.417 177.074 423.737 176.355 422.92 175.82L182.72 37.1401C181.17 36.2501 179.91 36.9701 179.91 38.7601V230C179.964 230.974 180.246 231.921 180.734 232.766C181.223 233.61 181.903 234.328 182.72 234.86L422.92 373.51C424.47 374.4 425.73 373.67 425.73 371.88Z" fill="#CC2593"/>
<path d="M425.73 371.88V180.69C425.676 179.715 425.394 178.766 424.906 177.92C424.417 177.074 423.737 176.355 422.92 175.82L182.72 37.1401C181.17 36.2501 179.91 36.9701 179.91 38.7601V230C179.964 230.974 180.246 231.921 180.734 232.766C181.223 233.61 181.903 234.328 182.72 234.86L422.92 373.51C424.47 374.4 425.73 373.67 425.73 371.88Z" fill="#CC2593"/>
<path opacity="0.7" d="M433.13 173.14C433.962 174.547 434.435 176.137 434.51 177.77V395.36L443.29 390.28V172.71C443.23 171.079 442.758 169.49 441.92 168.09L433.13 173.14Z" fill="#CC2593"/>
<path opacity="0.3" d="M171.17 24.9398C171.5 22.5298 173.45 21.6598 175.81 23.0098L429.81 169.67C431.193 170.527 432.333 171.725 433.12 173.15L441.9 168.08C441.107 166.66 439.969 165.463 438.59 164.6L184.58 17.9998C183.189 17.2586 181.642 16.8567 180.065 16.8272C178.489 16.7977 176.928 17.1412 175.51 17.8298C174.323 18.6382 173.321 19.6905 172.573 20.9166C171.824 22.1427 171.346 23.5143 171.17 24.9398Z" fill="#CC2593"/>
<path d="M401.6 390.08C402.157 390.408 402.785 390.597 403.43 390.63C404.35 390.75 405.286 390.586 406.11 390.16C406.764 389.713 407.303 389.118 407.682 388.423C408.061 387.727 408.269 386.952 408.29 386.16V207.56L403.9 210.09V388.73C403.9 389.79 403.37 390.4 402.61 390.4C402.254 390.371 401.908 390.261 401.6 390.08Z" fill="#F0F0F0"/>
<path d="M160.17 248C160.218 248.803 160.454 249.582 160.859 250.277C161.264 250.972 161.826 251.562 162.5 252L401.6 390.08C402.88 390.82 403.92 390.22 403.92 388.73V195L397.51 191.3C396.23 190.56 394.14 179.3 392.85 178.51L337.25 146.41C335.96 145.67 332.93 154.02 331.65 153.27L160.17 54.27V248Z" fill="#FAFAFA"/>
<path d="M161.25 56.1V248C161.294 248.618 161.479 249.219 161.789 249.756C162.099 250.293 162.527 250.752 163.04 251.1L402.14 389.15C402.288 389.244 402.456 389.302 402.63 389.32C402.85 389.32 402.85 388.76 402.85 388.73V195.61L396.97 192.21C396.04 191.67 395.46 189.86 394.15 185.21C393.682 183.217 393.04 181.27 392.23 179.39L337.13 147.58C336.476 148.464 335.891 149.397 335.38 150.37C333.88 153.01 333.04 154.37 331.82 154.37C331.569 154.37 331.324 154.301 331.11 154.17L161.25 56.1ZM160.17 54.24L331.65 153.24C331.701 153.271 331.76 153.289 331.82 153.29C333.12 153.29 335.82 146.29 337.08 146.29C337.136 146.275 337.194 146.275 337.25 146.29L392.85 178.39C394.14 179.14 396.23 190.39 397.51 191.18L403.92 195V388.73C403.92 389.79 403.4 390.4 402.63 390.4C402.274 390.384 401.929 390.274 401.63 390.08L162.5 252C161.826 251.562 161.264 250.972 160.859 250.277C160.454 249.582 160.218 248.802 160.17 248V54.24Z" fill="#E0E0E0"/>
<path d="M406.11 202.15C406.766 201.705 407.307 201.11 407.688 200.414C408.068 199.719 408.278 198.942 408.3 198.15V180C408.254 179.2 408.022 178.422 407.623 177.728C407.224 177.033 406.668 176.442 406 176L166.9 37.9999C166.227 37.5735 165.45 37.3395 164.654 37.3234C163.858 37.3073 163.072 37.5096 162.383 37.9085C161.693 38.3073 161.126 38.8874 160.743 39.5858C160.36 40.2841 160.176 41.0741 160.21 41.8699V59.9999C160.257 60.8027 160.492 61.5833 160.897 62.2782C161.302 62.9732 161.865 63.563 162.54 63.9999L401.6 202.07C402.293 202.436 403.062 202.633 403.845 202.647C404.629 202.661 405.404 202.491 406.11 202.15Z" fill="#374988"/>
<path opacity="0.4" d="M160.2 41.4099C160.36 40.1999 161.34 39.7599 162.5 40.4099L401.6 178.49C402.282 178.932 402.848 179.533 403.25 180.24L407.62 177.71C407.228 177.016 406.672 176.428 406 176L166.9 37.9999C166.256 37.5894 165.515 37.356 164.752 37.3233C163.989 37.2906 163.231 37.4599 162.555 37.8139C161.878 38.168 161.307 38.6943 160.899 39.3397C160.49 39.9851 160.26 40.7269 160.23 41.4899L160.2 41.4099Z" fill="white"/>
<path opacity="0.1" d="M403.25 180.24C403.666 180.933 403.896 181.722 403.92 182.53V210.14L408.31 207.61V180C408.315 179.907 408.315 179.813 408.31 179.72C408.292 179.525 408.262 179.331 408.22 179.14C408.095 178.635 407.9 178.151 407.64 177.7L403.25 180.24Z" fill="#353841"/>
<path d="M160.18 41.7799V54.2399L331.66 153.24C332.94 153.99 333.98 153.38 333.98 151.9V147.18C333.98 145.7 334.98 145.09 336.32 145.84L392.86 178.48C393.534 178.919 394.095 179.509 394.5 180.203C394.904 180.898 395.141 181.678 395.19 182.48V187.19C395.241 187.992 395.478 188.771 395.882 189.465C396.287 190.16 396.847 190.75 397.52 191.19L403.92 195V182.53C403.87 181.729 403.635 180.95 403.232 180.256C402.829 179.562 402.271 178.971 401.6 178.53L162.5 40.5299C161.22 39.6899 160.18 40.2999 160.18 41.7799Z" fill="#374988"/>
<path d="M171.1 49.59C169.48 48.66 168.17 49.42 168.17 51.29C168.225 52.3073 168.52 53.2973 169.029 54.1798C169.538 55.0623 170.247 55.8126 171.1 56.37C172.72 57.3 174.04 56.54 174.04 54.67C173.983 53.652 173.687 52.6617 173.176 51.7792C172.665 50.8968 171.954 50.1468 171.1 49.59Z" fill="white"/>
<path d="M181.66 55.6799C180.04 54.7499 178.73 55.4999 178.73 57.3699C178.784 58.3876 179.077 59.3781 179.586 60.2609C180.096 61.1437 180.806 61.8937 181.66 62.4499C183.28 63.3899 184.59 62.6299 184.59 60.7599C184.535 59.7426 184.24 58.7526 183.731 57.8701C183.222 56.9876 182.513 56.2373 181.66 55.6799Z" fill="white"/>
<path d="M192.22 61.77C190.6 60.83 189.29 61.59 189.29 63.46C189.345 64.4773 189.639 65.4673 190.148 66.3498C190.657 67.2323 191.367 67.9826 192.22 68.54C193.84 69.47 195.15 68.72 195.15 66.85C195.096 65.8323 194.803 64.8417 194.294 63.959C193.784 63.0762 193.074 62.3262 192.22 61.77Z" fill="white"/>
<path d="M160.17 54.24V69.39L403.92 210.14V195L399.13 192.23C397.85 191.49 397.42 190.36 396.81 188.23L395.18 182.59C394.67 180.59 394.18 179.3 392.85 178.59L337.25 146.49C335.96 145.75 334.95 145.67 333.97 147.29L331.97 150.91C331.24 152.17 330.87 152.91 329.59 152.17L160.17 54.24Z" fill="#E6E6E6"/>
<path d="M403.92 194.98V210.14L408.31 207.61V192.47L403.92 194.98Z" fill="#E0E0E0"/>
<path d="M393.23 196.08L396.89 198.19L395.5 195.51C395.444 195.409 395.415 195.295 395.415 195.18C395.415 195.064 395.444 194.951 395.5 194.85C395.61 194.72 395.79 194.85 395.92 195.05L397.92 198.86C397.92 198.86 397.92 198.95 397.97 199C398.02 199.05 397.97 199 397.97 199C397.975 199.063 397.975 199.127 397.97 199.19C397.977 199.246 397.977 199.303 397.97 199.36C397.956 199.388 397.939 199.415 397.92 199.44L395.92 200.96C395.892 200.983 395.856 200.995 395.82 200.995C395.784 200.995 395.748 200.983 395.72 200.96C395.618 200.893 395.54 200.795 395.5 200.68C395.39 200.43 395.41 200.15 395.5 200.06L396.89 198.98L393.23 196.87C393.137 196.796 393.063 196.701 393.012 196.594C392.962 196.486 392.937 196.369 392.94 196.25C392.94 196.11 393.07 196 393.23 196.08Z" fill="#353841"/>
<path d="M390.18 194.31L386.52 192.2L387.92 191.13C387.979 191.036 388.011 190.926 388.011 190.815C388.011 190.703 387.979 190.594 387.92 190.5C387.82 190.25 387.63 190.13 387.51 190.22L385.51 191.75C385.483 191.77 385.462 191.798 385.45 191.83C385.44 191.886 385.44 191.944 385.45 192C385.44 192.066 385.44 192.134 385.45 192.2L385.51 192.35L387.51 196.17C387.548 196.262 387.615 196.339 387.7 196.39C387.73 196.418 387.769 196.434 387.81 196.434C387.851 196.434 387.89 196.418 387.92 196.39C387.977 196.291 388.007 196.179 388.007 196.065C388.007 195.951 387.977 195.839 387.92 195.74L386.52 193.06L390.18 195.17C390.34 195.26 390.47 195.17 390.47 194.89C390.465 194.778 390.437 194.669 390.387 194.569C390.337 194.469 390.267 194.381 390.18 194.31Z" fill="#353841"/>
<path d="M378.18 183.78C378.18 183.56 378.39 183.58 378.49 183.78L378.99 185.01C379.85 184.92 380.88 185.75 381.58 187.23C382.49 189.15 382.49 191.42 381.58 192.29C381.361 192.495 381.077 192.617 380.778 192.635C380.479 192.653 380.182 192.566 379.94 192.39C379.208 191.897 378.635 191.202 378.29 190.39C378.235 190.292 378.206 190.182 378.206 190.07C378.206 189.958 378.235 189.848 378.29 189.75C378.41 189.64 378.59 189.75 378.71 189.99C379.39 191.42 380.49 192.06 381.16 191.41C381.83 190.76 381.84 189.06 381.16 187.63C380.68 186.63 379.99 186.01 379.39 185.97L379.76 186.9C379.86 187.14 379.76 187.36 379.62 187.26L378.13 186.26C378.069 186.214 378.021 186.153 377.991 186.083C377.961 186.013 377.95 185.936 377.96 185.86L378.18 183.78Z" fill="#353841"/>
<path d="M338.86 153.31L337.52 150.49C337.445 150.356 337.405 150.204 337.405 150.05C337.405 149.896 337.445 149.744 337.52 149.61C337.68 149.46 337.94 149.61 338.09 149.94L339.43 152.76L340.76 151.48C340.92 151.33 341.17 151.48 341.33 151.81C341.41 151.943 341.453 152.095 341.453 152.25C341.453 152.405 341.41 152.557 341.33 152.69L340 154L341.33 156.82C341.41 156.953 341.453 157.105 341.453 157.26C341.453 157.415 341.41 157.567 341.33 157.7C341.292 157.734 341.242 157.754 341.19 157.754C341.138 157.754 341.089 157.734 341.05 157.7C340.919 157.616 340.818 157.494 340.76 157.35L339.43 154.53L338.09 155.81C338.052 155.844 338.002 155.864 337.95 155.864C337.898 155.864 337.849 155.844 337.81 155.81C337.679 155.726 337.578 155.604 337.52 155.46C337.445 155.326 337.405 155.174 337.405 155.02C337.405 154.866 337.445 154.714 337.52 154.58L338.86 153.31Z" fill="#353841"/>
<path d="M373.32 187.25V182.53C373.271 181.728 373.035 180.948 372.631 180.253C372.226 179.558 371.664 178.968 370.99 178.53L175.62 65.74C174.33 64.99 173.29 65.6 173.29 67.08V71.8C173.338 72.6025 173.574 73.3825 173.979 74.0772C174.384 74.7719 174.946 75.362 175.62 75.8L371 188.59C372.28 189.34 373.32 188.73 373.32 187.25Z" fill="#FAFAFA"/>
<path d="M178.79 76.1999C178.86 76.2113 178.93 76.2113 179 76.1999C179.131 76.1394 179.237 76.036 179.3 75.9068C179.364 75.7776 179.382 75.6305 179.35 75.4899L179.12 73.5799L180.02 72.9299C180.098 72.8684 180.161 72.7892 180.203 72.6988C180.244 72.6084 180.264 72.5094 180.26 72.4099C180.264 72.2547 180.232 72.1007 180.166 71.9601C180.1 71.8195 180.002 71.6962 179.88 71.5999L178.51 70.5399C178.483 70.5076 178.463 70.4702 178.45 70.4299L177.84 68.4299C177.803 68.2653 177.717 68.1156 177.594 67.9998C177.471 67.884 177.317 67.8075 177.15 67.7799C177.037 67.7672 176.924 67.7915 176.826 67.8493C176.729 67.907 176.653 67.995 176.61 68.0999L176.1 69.1899L174.94 68.7499C174.837 68.7039 174.722 68.6926 174.612 68.7179C174.502 68.7431 174.403 68.8035 174.33 68.8899C174.235 69.0282 174.184 69.1921 174.184 69.3599C174.184 69.5277 174.235 69.6916 174.33 69.8299L175.33 71.6899C175.334 71.7265 175.334 71.7634 175.33 71.7999L175.09 73.4799C175.072 73.6336 175.089 73.7895 175.141 73.9352C175.193 74.081 175.278 74.2127 175.39 74.3199C175.456 74.397 175.539 74.4565 175.633 74.4931C175.728 74.5298 175.83 74.5424 175.93 74.5299L177 74.3599L178.21 75.8999C178.274 75.9939 178.361 76.0705 178.462 76.1229C178.563 76.1752 178.676 76.2017 178.79 76.1999ZM179.45 72.2999L178.55 72.9499C178.457 73.0259 178.386 73.1252 178.344 73.2376C178.302 73.35 178.29 73.4716 178.31 73.5899L178.47 74.8699L177.66 73.8699C177.591 73.7714 177.497 73.6922 177.389 73.6397C177.28 73.5872 177.16 73.5632 177.04 73.5699L175.92 73.7099C175.913 73.6669 175.913 73.6229 175.92 73.5799L176.16 71.8999C176.179 71.6925 176.137 71.4842 176.04 71.2999L175.17 69.6699L176 69.9999C176.132 70.0542 176.279 70.0553 176.411 70.0031C176.544 69.9509 176.651 69.8494 176.71 69.7199L177.11 68.8599L177.66 70.6499C177.717 70.8513 177.836 71.0297 178 71.1599L179.37 72.1599C179.409 72.1981 179.437 72.2466 179.45 72.2999Z" fill="#E0E0E0"/>
<path d="M170.54 65.1599C170.719 65.1651 170.895 65.1099 171.039 65.0031C171.184 64.8963 171.288 64.7442 171.335 64.5711C171.382 64.3981 171.37 64.2141 171.3 64.0489C171.23 63.8836 171.107 63.7466 170.95 63.6599L164.39 59.8699C164.298 59.8094 164.194 59.7684 164.086 59.7493C163.977 59.7302 163.866 59.7335 163.759 59.7589C163.651 59.7843 163.551 59.8314 163.462 59.8971C163.374 59.9629 163.3 60.046 163.244 60.1414C163.189 60.2368 163.154 60.3425 163.141 60.4519C163.128 60.5613 163.138 60.6723 163.169 60.7779C163.201 60.8836 163.253 60.9817 163.324 61.0663C163.394 61.1508 163.482 61.2201 163.58 61.2699L170.14 65.0499C170.26 65.1245 170.399 65.1627 170.54 65.1599Z" fill="#353841"/>
<path d="M170.54 68.9998C170.682 69.0011 170.821 68.9647 170.944 68.8945C171.067 68.8242 171.169 68.7225 171.24 68.5998C171.346 68.4136 171.376 68.1932 171.321 67.9857C171.267 67.7782 171.134 67.6002 170.95 67.4898L164.39 63.7098C164.298 63.6558 164.196 63.6205 164.091 63.6058C163.985 63.5912 163.878 63.5975 163.775 63.6244C163.672 63.6514 163.575 63.6984 163.49 63.7628C163.405 63.8272 163.334 63.9078 163.28 63.9998C163.227 64.0915 163.192 64.193 163.178 64.2982C163.164 64.4034 163.172 64.5103 163.2 64.6126C163.228 64.715 163.276 64.8108 163.341 64.8945C163.406 64.9781 163.487 65.0479 163.58 65.0998L170.14 68.8898C170.26 68.9644 170.399 69.0026 170.54 68.9998Z" fill="#353841"/>
<path d="M170.54 72.74C170.718 72.7406 170.892 72.6823 171.033 72.5742C171.175 72.4661 171.277 72.3143 171.324 72.1423C171.371 71.9702 171.359 71.7876 171.292 71.6227C171.224 71.4577 171.104 71.3197 170.95 71.23L164.39 67.44C164.203 67.3345 163.981 67.3068 163.774 67.3629C163.566 67.419 163.389 67.5544 163.28 67.74C163.227 67.8317 163.192 67.9332 163.178 68.0384C163.164 68.1436 163.172 68.2505 163.2 68.3528C163.228 68.4552 163.276 68.551 163.341 68.6346C163.406 68.7183 163.487 68.7881 163.58 68.84L170.14 72.63C170.262 72.7 170.399 72.7378 170.54 72.74Z" fill="#353841"/>
<path d="M396.73 214.38C396.909 214.385 397.085 214.33 397.229 214.223C397.374 214.116 397.478 213.964 397.525 213.791C397.572 213.618 397.56 213.434 397.49 213.269C397.42 213.104 397.297 212.967 397.14 212.88L390.58 209.09C390.395 208.996 390.182 208.977 389.984 209.036C389.785 209.095 389.617 209.228 389.513 209.407C389.41 209.586 389.379 209.798 389.426 210C389.474 210.201 389.597 210.376 389.77 210.49L396.33 214.27C396.451 214.343 396.589 214.381 396.73 214.38Z" fill="#353841"/>
<path d="M396.73 218.17C396.872 218.171 397.011 218.135 397.134 218.064C397.257 217.994 397.359 217.892 397.43 217.77C397.484 217.678 397.519 217.576 397.534 217.471C397.549 217.365 397.542 217.258 397.515 217.155C397.489 217.052 397.441 216.955 397.377 216.87C397.313 216.785 397.232 216.714 397.14 216.66L390.58 212.88C390.489 212.826 390.388 212.791 390.283 212.776C390.178 212.762 390.072 212.768 389.97 212.795C389.867 212.822 389.771 212.869 389.687 212.933C389.603 212.998 389.533 213.078 389.48 213.17C389.426 213.262 389.391 213.363 389.376 213.469C389.361 213.574 389.368 213.682 389.395 213.785C389.422 213.888 389.469 213.985 389.533 214.07C389.597 214.155 389.678 214.226 389.77 214.28L396.33 218.06C396.451 218.133 396.589 218.171 396.73 218.17Z" fill="#353841"/>
<path d="M396.73 222C396.908 222 397.082 221.942 397.224 221.834C397.365 221.726 397.467 221.574 397.514 221.402C397.561 221.23 397.55 221.047 397.482 220.882C397.414 220.718 397.294 220.58 397.14 220.49L390.58 216.71C390.489 216.655 390.388 216.618 390.283 216.603C390.178 216.588 390.071 216.594 389.968 216.621C389.866 216.648 389.77 216.696 389.686 216.761C389.602 216.826 389.532 216.907 389.48 217C389.426 217.091 389.391 217.192 389.377 217.297C389.362 217.401 389.368 217.508 389.395 217.61C389.422 217.713 389.469 217.809 389.534 217.893C389.598 217.977 389.678 218.047 389.77 218.1L396.33 221.89C396.452 221.959 396.59 221.996 396.73 222Z" fill="#353841"/>
<path d="M338.55 181V186.81C338.55 188 337.71 188.48 336.68 187.89L258.75 142.83V132.69L336.67 177.75C337.217 178.105 337.673 178.585 338 179.15C338.326 179.714 338.515 180.348 338.55 181Z" fill="#E6E6E6"/>
<path d="M248.93 127C247.93 126.4 247.06 126.89 247.06 128.08V133.89C247.096 134.539 247.284 135.17 247.609 135.733C247.934 136.295 248.386 136.774 248.93 137.13L258.75 142.8V132.69L248.93 127Z" fill="#CC2593"/>
<path d="M249.66 135L250.75 134.65C250.639 134.188 250.582 133.715 250.58 133.24C250.529 132.797 250.595 132.348 250.77 131.937C250.945 131.527 251.225 131.17 251.58 130.9C251.827 130.768 252.106 130.706 252.386 130.72C252.666 130.734 252.937 130.824 253.17 130.98C253.867 131.515 254.429 132.206 254.809 132.999C255.19 133.791 255.378 134.661 255.36 135.54C255.411 135.983 255.345 136.432 255.17 136.842C254.995 137.253 254.715 137.61 254.36 137.88C254.15 137.999 253.912 138.061 253.67 138.06C253.352 138.057 253.041 137.967 252.77 137.8C251.934 137.227 251.312 136.394 251 135.43L249.9 135.77C249.861 135.78 249.819 135.78 249.78 135.77C249.678 135.78 249.575 135.751 249.494 135.688C249.413 135.625 249.359 135.534 249.344 135.432C249.328 135.331 249.353 135.227 249.411 135.143C249.47 135.059 249.559 135 249.66 134.98V135ZM253.17 137.1C253.283 137.182 253.416 137.232 253.555 137.244C253.694 137.257 253.834 137.231 253.96 137.17C254.181 136.965 254.349 136.71 254.452 136.426C254.554 136.143 254.588 135.839 254.55 135.54C254.561 134.804 254.406 134.076 254.098 133.408C253.79 132.74 253.336 132.149 252.77 131.68C252.619 131.589 252.447 131.537 252.27 131.53C252.167 131.527 252.066 131.555 251.98 131.61C251.759 131.815 251.591 132.07 251.488 132.354C251.386 132.637 251.352 132.941 251.39 133.24C251.381 133.974 251.536 134.7 251.844 135.367C252.152 136.033 252.605 136.622 253.17 137.09V137.1Z" fill="#FAFAFA"/>
<path d="M370.94 197.53L382.19 204C382.734 204.351 383.187 204.826 383.512 205.385C383.837 205.945 384.025 206.574 384.06 207.22V213.01C384.06 214.2 383.22 214.68 382.19 214.09L370.94 207.58C370.397 207.226 369.946 206.749 369.623 206.188C369.3 205.627 369.114 204.997 369.08 204.35V198.6C369.08 197.42 369.91 196.93 370.94 197.53Z" fill="#CC2593"/>
<path d="M175.29 84.5599C176.565 85.3926 177.625 86.5135 178.386 87.8321C179.147 89.1507 179.587 90.6298 179.67 92.1499C179.67 94.9499 177.67 96.0799 175.29 94.6899C174.013 93.8568 172.95 92.7346 172.187 91.4142C171.425 90.0938 170.984 88.6124 170.9 87.0899C170.9 84.2899 172.87 83.1599 175.29 84.5599Z" fill="#CC2593"/>
<path d="M175.8 88.9999C175.937 89.0022 176.071 88.9677 176.19 88.8999C176.329 88.8013 176.441 88.6686 176.515 88.5146C176.588 88.3605 176.621 88.1902 176.61 88.0199C176.591 87.619 176.477 87.2284 176.277 86.8806C176.077 86.5327 175.797 86.2376 175.46 86.0199C175.323 85.9118 175.157 85.8473 174.983 85.8348C174.809 85.8222 174.636 85.8622 174.485 85.9495C174.334 86.0368 174.213 86.1674 174.137 86.3244C174.061 86.4813 174.035 86.6575 174.06 86.8299C174.081 87.2313 174.198 87.6218 174.399 87.9695C174.601 88.3172 174.882 88.6121 175.22 88.8299C175.396 88.9339 175.596 88.9924 175.8 88.9999Z" fill="white"/>
<path d="M173.56 89.3099C173.803 89.1883 174.075 89.1353 174.347 89.1564C174.618 89.1775 174.878 89.2721 175.1 89.4299L175.74 89.7999C176.321 90.1681 176.805 90.6696 177.153 91.2627C177.501 91.8558 177.702 92.5233 177.74 93.2099V93.6699C177.348 93.8392 176.92 93.9042 176.496 93.8586C176.072 93.8131 175.667 93.6585 175.32 93.4099C174.311 92.7823 173.478 91.9082 172.9 90.8699V90.7599C172.873 90.4815 172.919 90.2008 173.035 89.9462C173.151 89.6916 173.332 89.4721 173.56 89.3099Z" fill="white"/>
<path d="M190.8 98.1198V96.5698C190.8 94.8098 191.87 93.9998 193.19 94.7598C193.921 95.2822 194.518 95.9688 194.935 96.7642C195.352 97.5597 195.576 98.4418 195.59 99.3398V100.73C195.622 101.685 195.901 102.615 196.4 103.43C196.524 103.643 196.593 103.883 196.6 104.13C196.6 104.58 196.33 104.78 196 104.59L190.39 101.36C190.207 101.226 190.058 101.051 189.954 100.85C189.85 100.649 189.794 100.426 189.79 100.2C189.784 100.113 189.796 100.026 189.827 99.9446C189.859 99.8634 189.907 99.79 189.97 99.7298C190.252 99.5736 190.482 99.3373 190.629 99.0507C190.777 98.7641 190.836 98.4401 190.8 98.1198Z" fill="#CC2593"/>
<path d="M192 102.8C192.007 103.231 192.115 103.654 192.315 104.036C192.514 104.418 192.8 104.748 193.15 105C193.79 105.36 194.31 105 194.31 104.13L192 102.8Z" fill="#374988"/>
<path d="M211.48 105.48C211.174 105.299 210.833 105.183 210.48 105.14C210.203 105.107 209.923 105.163 209.68 105.3C209.445 105.444 209.26 105.657 209.15 105.91C209.021 106.258 208.97 106.63 209 107C208.997 107.336 209.033 107.672 209.11 108C209.182 108.293 209.276 108.58 209.39 108.86C209.499 109.123 209.623 109.38 209.76 109.63L210.16 110.35C210.28 110.58 210.4 110.82 210.5 111.05C210.596 111.271 210.666 111.503 210.71 111.74C210.72 111.853 210.747 111.964 210.79 112.07C210.824 112.15 210.879 112.219 210.95 112.27L212.08 112.92C212.15 112.92 212.21 112.92 212.25 112.92C212.279 112.889 212.301 112.853 212.314 112.813C212.328 112.774 212.333 112.732 212.33 112.69C212.332 112.382 212.288 112.075 212.2 111.78C212.119 111.49 212.019 111.206 211.9 110.93C211.77 110.66 211.64 110.39 211.49 110.14C211.34 109.89 211.22 109.64 211.09 109.42C210.96 109.2 210.87 108.97 210.78 108.76C210.705 108.572 210.664 108.372 210.66 108.17C210.66 107.89 210.73 107.71 210.86 107.64C210.99 107.57 211.21 107.64 211.49 107.76C211.73 107.886 211.933 108.072 212.08 108.3C212.19 108.479 212.281 108.671 212.35 108.87L212.49 109.37C212.521 109.505 212.604 109.624 212.72 109.7L213.85 110.35C213.87 110.365 213.895 110.372 213.92 110.372C213.945 110.372 213.97 110.365 213.99 110.35C214.013 110.322 214.03 110.29 214.04 110.256C214.05 110.222 214.054 110.186 214.05 110.15C214.036 109.761 213.975 109.375 213.87 109C213.743 108.556 213.575 108.124 213.37 107.71C213.152 107.273 212.883 106.864 212.57 106.49C212.271 106.09 211.901 105.748 211.48 105.48ZM210.68 114.72C210.68 114.827 210.704 114.933 210.75 115.03C210.788 115.116 210.851 115.189 210.93 115.24L212.09 115.91C212.101 115.921 212.114 115.93 212.129 115.936C212.144 115.942 212.159 115.945 212.175 115.945C212.191 115.945 212.206 115.942 212.221 115.936C212.236 115.93 212.249 115.921 212.26 115.91C212.289 115.879 212.311 115.843 212.324 115.803C212.338 115.764 212.343 115.722 212.34 115.68V114.25C212.337 114.142 212.31 114.036 212.26 113.94C212.229 113.85 212.169 113.773 212.09 113.72L210.93 113.05C210.905 113.029 210.873 113.017 210.84 113.017C210.807 113.017 210.775 113.029 210.75 113.05C210.723 113.079 210.703 113.114 210.691 113.152C210.679 113.19 210.675 113.23 210.68 113.27V114.72Z" fill="#CC2593"/>
<path d="M230.72 143.12V163C230.72 164.49 229.72 165.09 228.39 164.35L202.45 149.35C201.776 148.911 201.215 148.321 200.81 147.626C200.406 146.932 200.169 146.152 200.12 145.35V125.5C200.12 124.02 201.12 123.41 202.45 124.16L228.45 139.16C229.107 139.601 229.654 140.188 230.048 140.875C230.441 141.562 230.671 142.33 230.72 143.12Z" fill="#374988"/>
<path opacity="0.5" d="M230.72 143.12V163C230.72 164.49 229.72 165.09 228.39 164.35L202.45 149.35C201.776 148.911 201.215 148.321 200.81 147.626C200.406 146.932 200.169 146.152 200.12 145.35V125.5C200.12 124.02 201.12 123.41 202.45 124.16L228.45 139.16C229.107 139.601 229.654 140.188 230.048 140.875C230.441 141.562 230.671 142.33 230.72 143.12Z" fill="white"/>
<path d="M219.63 151.46V142.77C219.623 142.337 219.452 141.922 219.151 141.611C218.85 141.299 218.443 141.113 218.01 141.09L210.08 140.74C209.19 140.74 208.96 141.21 209.55 141.87L218.55 151.87C219.14 152.53 219.63 152.35 219.63 151.46Z" fill="#FAFAFA"/>
<path d="M192.66 119.9L171.66 107.75C171.08 107.42 170.61 107.66 170.61 108.28C170.636 108.631 170.745 108.97 170.927 109.271C171.11 109.571 171.361 109.825 171.66 110.01L192.66 122.16C193.24 122.49 193.66 122.25 193.66 121.63C193.64 121.283 193.539 120.946 193.366 120.646C193.192 120.346 192.95 120.09 192.66 119.9Z" fill="#353841"/>
<path d="M192.66 124.41L171.66 112.27C171.08 111.94 170.61 112.17 170.61 112.8C170.636 113.151 170.745 113.49 170.927 113.791C171.11 114.091 171.361 114.345 171.66 114.53L192.66 126.67C193.24 127.01 193.66 126.77 193.66 126.15C193.64 125.802 193.539 125.464 193.366 125.162C193.192 124.86 192.95 124.602 192.66 124.41Z" fill="#353841"/>
<path d="M192.66 128.8L171.66 116.65C171.08 116.32 170.61 116.56 170.61 117.18C170.636 117.531 170.745 117.87 170.927 118.171C171.11 118.472 171.361 118.725 171.66 118.91L192.66 131.05C193.24 131.39 193.66 131.15 193.66 130.53C193.641 130.183 193.54 129.846 193.367 129.546C193.193 129.245 192.951 128.99 192.66 128.8Z" fill="#353841"/>
<path d="M193 135.07L178.56 126.73C178.17 126.5 177.85 126.67 177.85 127.09C177.868 127.33 177.941 127.562 178.065 127.769C178.188 127.975 178.357 128.15 178.56 128.28L193 136.62C193.39 136.84 193.71 136.68 193.71 136.25C193.692 136.012 193.619 135.781 193.495 135.576C193.372 135.371 193.202 135.198 193 135.07Z" fill="#E0E0E0"/>
<path d="M193 138.17L178.56 129.83C178.17 129.6 177.85 129.77 177.85 130.19C177.868 130.43 177.941 130.662 178.065 130.869C178.188 131.075 178.357 131.25 178.56 131.38L193 139.72C193.39 139.94 193.71 139.78 193.71 139.35C193.692 139.111 193.619 138.88 193.495 138.675C193.372 138.471 193.202 138.297 193 138.17Z" fill="#E0E0E0"/>
<path d="M193 141.17L178.56 132.84C178.17 132.61 177.85 132.77 177.85 133.2C177.868 133.44 177.941 133.672 178.065 133.879C178.188 134.085 178.357 134.26 178.56 134.39L193 142.72C193.39 142.95 193.71 142.79 193.71 142.36C193.692 142.12 193.619 141.888 193.495 141.681C193.372 141.475 193.203 141.3 193 141.17Z" fill="#E0E0E0"/>
<path d="M230.72 178.47V198.33C230.72 199.82 229.72 200.42 228.39 199.68L202.45 184.68C201.776 184.241 201.215 183.651 200.81 182.957C200.406 182.262 200.169 181.482 200.12 180.68V160.83C200.12 159.34 201.12 158.74 202.45 159.48L228.45 174.48C229.112 174.924 229.661 175.515 230.055 176.208C230.449 176.9 230.677 177.675 230.72 178.47Z" fill="#374988"/>
<path opacity="0.5" d="M230.72 178.47V198.33C230.72 199.82 229.72 200.42 228.39 199.68L202.45 184.68C201.776 184.241 201.215 183.651 200.81 182.957C200.406 182.262 200.169 181.482 200.12 180.68V160.83C200.12 159.34 201.12 158.74 202.45 159.48L228.45 174.48C229.112 174.924 229.661 175.515 230.055 176.208C230.449 176.9 230.677 177.675 230.72 178.47Z" fill="white"/>
<path d="M219.63 186.8V178.12C219.625 177.686 219.455 177.27 219.154 176.958C218.853 176.646 218.443 176.46 218.01 176.44L210.08 176.09C209.19 176.09 208.96 176.56 209.55 177.22L218.55 187.22C219.14 187.88 219.63 187.7 219.63 186.8Z" fill="#FAFAFA"/>
<path d="M192.66 155.24L171.66 143.1C171.08 142.77 170.61 143 170.61 143.63C170.636 143.981 170.745 144.32 170.927 144.621C171.11 144.922 171.361 145.175 171.66 145.36L192.66 157.5C193.24 157.84 193.66 157.6 193.66 156.98C193.64 156.632 193.539 156.294 193.366 155.992C193.192 155.69 192.95 155.432 192.66 155.24Z" fill="#353841"/>
<path d="M192.66 159.76L171.66 147.62C171.08 147.29 170.61 147.52 170.61 148.15C170.638 148.5 170.747 148.839 170.929 149.14C171.112 149.44 171.362 149.694 171.66 149.88L192.66 162.02C193.24 162.35 193.66 162.12 193.66 161.49C193.64 161.144 193.539 160.807 193.366 160.506C193.192 160.206 192.95 159.95 192.66 159.76Z" fill="#353841"/>
<path d="M192.66 164.14L171.66 152C171.08 151.67 170.61 151.9 170.61 152.53C170.636 152.881 170.745 153.22 170.927 153.521C171.11 153.821 171.361 154.075 171.66 154.26L192.66 166.4C193.24 166.73 193.66 166.5 193.66 165.87C193.639 165.524 193.537 165.187 193.363 164.887C193.19 164.587 192.949 164.331 192.66 164.14Z" fill="#353841"/>
<path d="M193 170.41L178.56 162.08C178.17 161.85 177.85 162.01 177.85 162.44C177.868 162.68 177.941 162.912 178.065 163.119C178.188 163.325 178.357 163.5 178.56 163.63L193 172C193.39 172.23 193.71 172.07 193.71 171.64C193.698 171.393 193.628 171.153 193.504 170.939C193.381 170.725 193.208 170.543 193 170.41Z" fill="#E0E0E0"/>
<path d="M193 173.51L178.56 165.18C178.17 164.95 177.85 165.11 177.85 165.54C177.868 165.78 177.941 166.012 178.065 166.219C178.188 166.425 178.357 166.6 178.56 166.73L193 175.06C193.39 175.29 193.71 175.13 193.71 174.7C193.692 174.46 193.619 174.228 193.495 174.021C193.372 173.815 193.203 173.64 193 173.51Z" fill="#E0E0E0"/>
<path d="M193 176.52L178.56 168.19C178.17 167.96 177.85 168.12 177.85 168.55C177.868 168.79 177.941 169.022 178.065 169.229C178.188 169.435 178.357 169.61 178.56 169.74L193 178.07C193.39 178.3 193.71 178.14 193.71 177.71C193.692 177.47 193.619 177.238 193.495 177.031C193.372 176.825 193.203 176.65 193 176.52Z" fill="#E0E0E0"/>
<path d="M230.72 213.79V233.65C230.72 235.14 229.72 235.74 228.39 235L202.45 220C201.776 219.561 201.215 218.971 200.81 218.276C200.406 217.582 200.169 216.802 200.12 216V196.15C200.12 194.67 201.12 194.06 202.45 194.81L228.45 209.81C229.11 210.253 229.658 210.843 230.052 211.534C230.446 212.224 230.674 212.996 230.72 213.79Z" fill="#374988"/>
<path opacity="0.5" d="M230.72 213.79V233.65C230.72 235.14 229.72 235.74 228.39 235L202.45 220C201.776 219.561 201.215 218.971 200.81 218.276C200.406 217.582 200.169 216.802 200.12 216V196.15C200.12 194.67 201.12 194.06 202.45 194.81L228.45 209.81C229.11 210.253 229.658 210.843 230.052 211.534C230.446 212.224 230.674 212.996 230.72 213.79Z" fill="white"/>
<path d="M219.63 222.13V213.44C219.623 213.007 219.452 212.592 219.151 212.281C218.85 211.969 218.443 211.783 218.01 211.76L210.08 211.41C209.19 211.41 208.96 211.88 209.55 212.54L218.55 222.54C219.14 223.2 219.63 223 219.63 222.13Z" fill="#FAFAFA"/>
<path d="M192.66 190.57L171.66 178.42C171.08 178.09 170.61 178.33 170.61 178.95C170.636 179.301 170.745 179.64 170.927 179.941C171.11 180.242 171.361 180.495 171.66 180.68L192.66 192.83C193.24 193.16 193.66 192.92 193.66 192.3C193.641 191.953 193.54 191.616 193.367 191.316C193.193 191.015 192.951 190.76 192.66 190.57Z" fill="#353841"/>
<path d="M192.66 195.08L171.66 182.94C171.08 182.61 170.61 182.84 170.61 183.47C170.636 183.821 170.745 184.16 170.927 184.461C171.11 184.762 171.361 185.015 171.66 185.2L192.66 197.34C193.24 197.68 193.66 197.44 193.66 196.82C193.64 196.472 193.539 196.134 193.366 195.832C193.192 195.53 192.95 195.272 192.66 195.08Z" fill="#353841"/>
<path d="M192.66 199.47L171.66 187.32C171.08 186.99 170.61 187.23 170.61 187.85C170.636 188.201 170.745 188.54 170.927 188.841C171.11 189.142 171.361 189.395 171.66 189.58L192.66 201.72C193.24 202.06 193.66 201.82 193.66 201.2C193.641 200.853 193.54 200.516 193.367 200.215C193.193 199.915 192.951 199.659 192.66 199.47Z" fill="#353841"/>
<path d="M193 205.74L178.56 197.4C178.17 197.17 177.85 197.34 177.85 197.76C177.868 198 177.941 198.232 178.065 198.439C178.188 198.645 178.357 198.82 178.56 198.95L193 207.29C193.39 207.51 193.71 207.35 193.71 206.92C193.692 206.681 193.619 206.45 193.495 206.246C193.372 206.041 193.202 205.867 193 205.74Z" fill="#E0E0E0"/>
<path d="M193 208.84L178.56 200.5C178.17 200.27 177.85 200.44 177.85 200.86C177.868 201.1 177.941 201.332 178.065 201.539C178.188 201.745 178.357 201.92 178.56 202.05L193 210.39C193.39 210.61 193.71 210.45 193.71 210.02C193.692 209.782 193.619 209.551 193.495 209.346C193.372 209.141 193.202 208.968 193 208.84Z" fill="#E0E0E0"/>
<path d="M193 211.84L178.56 203.51C178.17 203.28 177.85 203.44 177.85 203.87C177.868 204.11 177.941 204.342 178.065 204.549C178.188 204.755 178.357 204.93 178.56 205.06L193 213.39C193.39 213.62 193.71 213.46 193.71 213.03C193.692 212.79 193.619 212.558 193.495 212.351C193.372 212.145 193.203 211.969 193 211.84Z" fill="#E0E0E0"/>
<path d="M230.72 249.14V269C230.72 270.48 229.72 271.08 228.39 270.34L202.45 255.34C201.776 254.902 201.214 254.312 200.809 253.617C200.405 252.922 200.168 252.142 200.12 251.34V231.49C200.12 230.01 201.12 229.41 202.45 230.15L228.45 245.15C229.112 245.594 229.661 246.185 230.055 246.877C230.449 247.57 230.677 248.344 230.72 249.14Z" fill="#374988"/>
<path opacity="0.5" d="M230.72 249.14V269C230.72 270.48 229.72 271.08 228.39 270.34L202.45 255.34C201.776 254.902 201.214 254.312 200.809 253.617C200.405 252.922 200.168 252.142 200.12 251.34V231.49C200.12 230.01 201.12 229.41 202.45 230.15L228.45 245.15C229.112 245.594 229.661 246.185 230.055 246.877C230.449 247.57 230.677 248.344 230.72 249.14Z" fill="white"/>
<path d="M219.63 257.48V248.8C219.626 248.365 219.455 247.948 219.155 247.634C218.854 247.32 218.444 247.133 218.01 247.11L210.08 246.77C209.19 246.77 208.96 247.23 209.55 247.9L218.55 257.9C219.14 258.56 219.63 258.37 219.63 257.48Z" fill="#FAFAFA"/>
<path d="M192.66 225.92L171.66 213.78C171.08 213.44 170.61 213.68 170.61 214.3C170.635 214.651 170.744 214.991 170.926 215.292C171.109 215.592 171.36 215.845 171.66 216.03L192.66 228.18C193.24 228.51 193.66 228.28 193.66 227.65C193.64 227.303 193.539 226.967 193.366 226.666C193.192 226.366 192.95 226.11 192.66 225.92Z" fill="#353841"/>
<path d="M192.66 230.44L171.66 218.29C171.08 217.96 170.61 218.2 170.61 218.82C170.636 219.171 170.745 219.51 170.927 219.811C171.11 220.111 171.361 220.365 171.66 220.55L192.66 232.7C193.24 233.03 193.66 232.79 193.66 232.17C193.64 231.823 193.539 231.486 193.366 231.186C193.192 230.886 192.95 230.63 192.66 230.44Z" fill="#353841"/>
<path d="M192.66 234.82L171.66 222.67C171.08 222.34 170.61 222.58 170.61 223.2C170.635 223.551 170.744 223.891 170.926 224.192C171.109 224.492 171.36 224.745 171.66 224.93L192.66 237.08C193.24 237.41 193.66 237.17 193.66 236.55C193.64 236.204 193.539 235.867 193.366 235.566C193.192 235.266 192.95 235.01 192.66 234.82Z" fill="#353841"/>
<path d="M193 241.09L178.56 232.75C178.17 232.53 177.85 232.69 177.85 233.12C177.868 233.358 177.941 233.589 178.065 233.794C178.188 233.999 178.358 234.172 178.56 234.3L193 242.64C193.39 242.87 193.71 242.7 193.71 242.28C193.692 242.04 193.619 241.808 193.495 241.601C193.372 241.395 193.203 241.22 193 241.09Z" fill="#E0E0E0"/>
<path d="M193 244.19L178.56 235.85C178.17 235.63 177.85 235.79 177.85 236.22C177.868 236.458 177.941 236.689 178.065 236.894C178.188 237.099 178.358 237.272 178.56 237.4L193 245.74C193.39 245.97 193.71 245.8 193.71 245.38C193.692 245.14 193.619 244.908 193.495 244.701C193.372 244.495 193.203 244.32 193 244.19Z" fill="#E0E0E0"/>
<path d="M193 247.19L178.56 238.86C178.17 238.63 177.85 238.8 177.85 239.22C177.868 239.46 177.941 239.692 178.065 239.899C178.188 240.105 178.357 240.28 178.56 240.41L193 248.74C193.39 248.97 193.71 248.81 193.71 248.38C193.692 248.14 193.619 247.908 193.495 247.701C193.372 247.495 193.203 247.32 193 247.19Z" fill="#E0E0E0"/>
<path d="M392.21 344.74L313.79 299.46C312.51 298.72 311.46 299.25 311.47 300.64C311.527 301.422 311.768 302.181 312.173 302.853C312.578 303.525 313.135 304.093 313.8 304.51L392.21 349.79C393.49 350.53 394.54 350 394.54 348.61C394.483 347.827 394.242 347.069 393.837 346.397C393.432 345.724 392.875 345.157 392.21 344.74Z" fill="#353841"/>
<path d="M393.23 353.88L349.23 328.51C348.5 328.09 347.92 328.38 347.92 329.17C347.954 329.609 348.09 330.034 348.317 330.411C348.545 330.787 348.857 331.106 349.23 331.34L393.18 356.71C393.9 357.13 394.49 356.83 394.49 356.05C394.462 355.616 394.333 355.194 394.115 354.817C393.896 354.441 393.593 354.12 393.23 353.88Z" fill="#E0E0E0"/>
<path d="M376.11 352.87L319.94 320.45C318.66 319.7 317.61 320.23 317.61 321.63C317.667 322.413 317.908 323.171 318.313 323.843C318.718 324.516 319.275 325.083 319.94 325.5L376.11 357.92C377.4 358.66 378.44 358.14 378.44 356.74C378.383 355.957 378.142 355.199 377.737 354.527C377.332 353.855 376.775 353.287 376.11 352.87Z" fill="#353841"/>
<path d="M377.14 362L355.43 349.47C354.7 349.05 354.12 349.35 354.12 350.13C354.151 350.569 354.287 350.995 354.514 351.372C354.742 351.749 355.056 352.067 355.43 352.3L377.14 364.83C377.86 365.24 378.44 364.95 378.44 364.17C378.41 363.731 378.276 363.306 378.05 362.929C377.824 362.552 377.512 362.234 377.14 362Z" fill="#E0E0E0"/>
<path d="M388.47 358.63C390.251 359.791 391.734 361.357 392.797 363.198C393.86 365.04 394.475 367.106 394.59 369.23C394.59 373.13 391.85 374.72 388.47 372.76C386.687 371.599 385.204 370.035 384.141 368.193C383.077 366.351 382.464 364.284 382.35 362.16C382.35 358.26 385.09 356.68 388.47 358.63Z" fill="#374988"/>
<path d="M389.18 364.85C389.373 364.857 389.564 364.809 389.73 364.71C389.929 364.579 390.09 364.396 390.194 364.181C390.297 363.967 390.341 363.728 390.32 363.49C390.293 362.929 390.131 362.383 389.85 361.898C389.568 361.412 389.173 361.002 388.7 360.7C388.505 360.562 388.277 360.48 388.039 360.462C387.801 360.444 387.563 360.492 387.35 360.6C387.151 360.731 386.99 360.914 386.887 361.128C386.783 361.343 386.739 361.582 386.76 361.82C386.787 362.38 386.947 362.925 387.227 363.41C387.507 363.895 387.899 364.307 388.37 364.61C388.615 364.758 388.894 364.841 389.18 364.85Z" fill="white"/>
<path d="M386 365.26C386.342 365.09 386.723 365.017 387.103 365.047C387.484 365.076 387.849 365.209 388.16 365.43L389.04 365.94C389.848 366.457 390.52 367.159 391 367.989C391.48 368.819 391.754 369.752 391.8 370.71V371.34C391.254 371.579 390.655 371.671 390.062 371.608C389.469 371.545 388.903 371.329 388.42 370.98C387.011 370.106 385.848 368.888 385.04 367.44V367.29C385.006 366.897 385.077 366.502 385.246 366.145C385.414 365.789 385.675 365.483 386 365.26Z" fill="white"/>
<path d="M282.9 301.82L256.96 286.82C255.67 286.08 254.62 286.68 254.62 288.17V292.88C254.67 293.683 254.908 294.463 255.315 295.158C255.721 295.853 256.285 296.442 256.96 296.88L282.9 311.88C284.19 312.62 285.23 312.02 285.23 310.53V305.82C285.181 305.018 284.944 304.238 284.54 303.543C284.135 302.849 283.574 302.259 282.9 301.82Z" fill="#374988"/>
<path opacity="0.7" d="M282.9 301.82L256.96 286.82C255.67 286.08 254.62 286.68 254.62 288.17V292.88C254.67 293.683 254.908 294.463 255.315 295.158C255.721 295.853 256.285 296.442 256.96 296.88L282.9 311.88C284.19 312.62 285.23 312.02 285.23 310.53V305.82C285.181 305.018 284.944 304.238 284.54 303.543C284.135 302.849 283.574 302.259 282.9 301.82Z" fill="white"/>
<path d="M245.14 284.78V283.23C245.14 281.47 246.21 280.65 247.54 281.42C248.27 281.943 248.867 282.63 249.284 283.425C249.701 284.22 249.925 285.102 249.94 286V287.39C249.968 288.344 250.243 289.275 250.74 290.09C250.86 290.308 250.925 290.551 250.93 290.8C250.93 291.25 250.66 291.45 250.33 291.26L244.73 288.02C244.545 287.89 244.393 287.718 244.286 287.518C244.18 287.319 244.123 287.096 244.12 286.87C244.112 286.783 244.124 286.696 244.155 286.614C244.186 286.533 244.236 286.459 244.3 286.4C244.583 286.242 244.813 286.004 244.963 285.716C245.112 285.428 245.173 285.103 245.14 284.78Z" fill="#353841"/>
<path d="M246.39 289.45C246.394 289.881 246.501 290.306 246.7 290.688C246.9 291.071 247.188 291.4 247.54 291.65C248.17 292.02 248.69 291.65 248.69 290.78L246.39 289.45Z" fill="#353841"/>
<path d="M292.19 292.37C292.241 292.731 292.427 293.06 292.71 293.29C292.654 293.43 292.627 293.579 292.63 293.73C292.653 293.947 292.726 294.157 292.844 294.341C292.962 294.525 293.122 294.679 293.31 294.79L296.36 296.56V292.56C296.36 292.49 295.52 290.65 295.45 290.37C295.41 289.897 295.41 289.422 295.45 288.95C295.374 288.808 295.254 288.696 295.107 288.63C294.96 288.565 294.796 288.551 294.64 288.59C294.556 288.631 294.492 288.702 294.46 288.79C294.371 288.991 294.307 289.203 294.27 289.42C294.231 289.801 294.255 290.186 294.34 290.56L292.49 289.49C292.439 289.452 292.379 289.428 292.316 289.419C292.253 289.41 292.189 289.417 292.13 289.44C292.067 289.485 292.017 289.546 291.984 289.615C291.95 289.685 291.935 289.763 291.94 289.84C291.954 290.131 292.058 290.411 292.24 290.64C292.24 290.64 291.87 290.53 291.87 291.02C291.88 291.194 291.925 291.364 292.002 291.521C292.08 291.677 292.188 291.816 292.32 291.93C292.32 291.93 292.19 292 292.19 292.37Z" fill="#374988"/>
<path d="M296.8 296.3V297.15C296.803 297.21 296.821 297.268 296.85 297.32C296.88 297.372 296.921 297.416 296.97 297.45L297.97 298.02C298.026 298.035 298.084 298.035 298.14 298.02V293.44L297.34 292.98L296.86 292.7C296.847 292.759 296.847 292.821 296.86 292.88L296.8 296.3Z" fill="#374988"/>
<path d="M270.55 276.76C270.548 276.699 270.563 276.639 270.591 276.586C270.62 276.532 270.662 276.487 270.714 276.455C270.765 276.422 270.824 276.404 270.885 276.401C270.946 276.399 271.006 276.412 271.06 276.44C271.01 276.267 270.983 276.089 270.98 275.91C270.98 275.57 271.26 275.4 271.66 275.63L274.71 277.39V281.39C274.376 281.744 274.069 282.121 273.79 282.52C273.75 282.996 273.75 283.474 273.79 283.95C273.79 284.1 273.3 283.88 272.98 283.37C272.908 283.242 272.848 283.108 272.8 282.97C272.718 282.692 272.658 282.407 272.62 282.12C272.573 281.763 272.593 281.4 272.68 281.05L270.84 279.99C270.687 279.904 270.562 279.775 270.48 279.62C270.366 279.436 270.301 279.226 270.29 279.01C270.29 278.64 270.49 278.56 270.59 278.55C270.478 278.448 270.387 278.325 270.324 278.187C270.26 278.05 270.225 277.901 270.22 277.75C270.22 277.47 270.39 277.26 270.67 277.36C270.585 277.172 270.544 276.966 270.55 276.76Z" fill="#374988"/>
<path d="M275.15 278.15V277.31C275.15 277.2 275.23 277.15 275.33 277.21L276.33 277.77C276.395 277.817 276.456 277.871 276.51 277.93V282.51L275.7 282.05L275.23 281.77C275.202 281.696 275.185 281.619 275.18 281.54L275.15 278.15Z" fill="#374988"/>
<path d="M247 263.9L250.36 262.9V264.68C251.69 265.246 252.836 266.17 253.67 267.35C255.52 270.11 254.18 271.69 253.56 271.8C253.56 271.8 254.56 271.13 253.46 269.15C252.711 268.055 251.621 267.239 250.36 266.83V268.83L247 263.9Z" fill="#374988"/>
<path d="M287.27 286.09L283.19 283.74C281.9 282.99 280.86 283.52 280.86 284.92C280.917 285.703 281.158 286.461 281.563 287.133C281.968 287.805 282.525 288.373 283.19 288.79L287.27 291.14C288.56 291.89 289.6 291.36 289.6 289.96C289.543 289.177 289.302 288.419 288.897 287.747C288.492 287.074 287.935 286.507 287.27 286.09Z" fill="#E0E0E0"/>
<path d="M265.41 273.47L261.33 271.11C260.04 270.37 259 270.9 259 272.29C259.057 273.073 259.298 273.831 259.703 274.503C260.108 275.175 260.665 275.743 261.33 276.16L265.41 278.52C266.7 279.26 267.74 278.74 267.74 277.34C267.683 276.557 267.442 275.799 267.037 275.127C266.632 274.455 266.075 273.887 265.41 273.47Z" fill="#E0E0E0"/>
<path d="M388.15 223L241.82 138.52C240.53 137.77 239.49 138.38 239.49 139.86V244.13C239.538 244.933 239.775 245.713 240.179 246.407C240.584 247.102 241.146 247.692 241.82 248.13L388.15 332.65C389.43 333.4 390.48 332.79 390.48 331.31V227C390.429 226.198 390.192 225.419 389.788 224.725C389.383 224.03 388.822 223.44 388.15 223Z" fill="#353841"/>
<path opacity="0.3" d="M371.24 316.09L263.84 254.34C263.15 253.94 262.58 254.23 262.58 254.98C262.613 255.402 262.744 255.811 262.962 256.174C263.181 256.537 263.482 256.844 263.84 257.07L371.24 318.82C371.94 319.22 372.5 318.93 372.5 318.18C372.469 317.757 372.339 317.347 372.121 316.984C371.902 316.621 371.6 316.314 371.24 316.09Z" fill="white"/>
<path d="M371.24 316.09L274.41 260.44C273.71 260.04 273.15 260.33 273.15 261.08C273.18 261.503 273.31 261.913 273.529 262.276C273.748 262.639 274.05 262.946 274.41 263.17L371.24 318.82C371.94 319.22 372.5 318.93 372.5 318.18C372.469 317.757 372.339 317.347 372.121 316.984C371.902 316.621 371.6 316.314 371.24 316.09Z" fill="white"/>
<path d="M384.38 323.83V326.51C384.383 326.576 384.401 326.641 384.434 326.698C384.467 326.756 384.514 326.804 384.57 326.84L385.09 327.14C385.109 327.154 385.131 327.162 385.154 327.163C385.178 327.164 385.201 327.159 385.221 327.147C385.241 327.135 385.257 327.118 385.268 327.097C385.278 327.076 385.282 327.053 385.28 327.03V324.35C385.275 324.284 385.255 324.221 385.222 324.163C385.19 324.106 385.144 324.057 385.09 324.02L384.57 323.72C384.46 323.66 384.38 323.71 384.38 323.83Z" fill="white"/>
<path d="M382.58 322.79V325.47C382.583 325.536 382.601 325.601 382.634 325.658C382.667 325.716 382.714 325.764 382.77 325.8L383.28 326.1C383.39 326.16 383.48 326.1 383.48 325.99V323.31C383.475 323.243 383.455 323.178 383.42 323.121C383.385 323.063 383.337 323.015 383.28 322.98L382.77 322.68C382.66 322.62 382.58 322.67 382.58 322.79Z" fill="white"/>
<path d="M375.42 318.74V321.42C375.425 321.486 375.444 321.549 375.477 321.607C375.51 321.664 375.556 321.713 375.61 321.75L375.84 321.89C375.95 321.95 376.03 321.89 376.03 321.78V319.1C376.027 319.034 376.009 318.969 375.976 318.912C375.942 318.854 375.896 318.806 375.84 318.77L375.61 318.63C375.591 318.616 375.569 318.608 375.546 318.607C375.522 318.606 375.499 318.611 375.479 318.623C375.459 318.635 375.443 318.652 375.432 318.673C375.422 318.693 375.417 318.717 375.42 318.74Z" fill="white"/>
<path d="M379.2 320.82V323.45C379.2 323.64 379.1 323.68 378.97 323.53L376.55 320.74C376.42 320.59 376.48 320.47 376.67 320.47H378.85C378.943 320.47 379.032 320.507 379.097 320.572C379.163 320.638 379.2 320.727 379.2 320.82Z" fill="white"/>
<path d="M250 246.83C250.082 246.83 250.161 246.797 250.219 246.739C250.277 246.681 250.31 246.602 250.31 246.52V245.64C250.31 245.587 250.296 245.536 250.27 245.49C250.243 245.444 250.206 245.406 250.16 245.38L248.73 244.56C248.696 244.539 248.658 244.525 248.619 244.519C248.58 244.513 248.539 244.515 248.501 244.526C248.463 244.536 248.427 244.554 248.395 244.579C248.364 244.604 248.339 244.635 248.32 244.67C248.283 244.74 248.273 244.821 248.294 244.897C248.314 244.973 248.363 245.038 248.43 245.08L249.7 245.81V246.52C249.7 246.601 249.731 246.678 249.787 246.736C249.843 246.794 249.919 246.827 250 246.83Z" fill="#FAFAFA"/>
<path d="M243.52 243.09C243.599 243.09 243.676 243.058 243.732 243.002C243.788 242.946 243.82 242.87 243.82 242.79V242.42L244.82 242.98C244.854 243 244.892 243.013 244.931 243.018C244.97 243.023 245.01 243.02 245.048 243.01C245.086 243 245.121 242.982 245.153 242.958C245.184 242.934 245.21 242.904 245.23 242.87C245.251 242.836 245.265 242.798 245.271 242.759C245.277 242.72 245.274 242.68 245.264 242.641C245.254 242.603 245.236 242.567 245.211 242.535C245.186 242.504 245.155 242.479 245.12 242.46L243.7 241.64C243.656 241.61 243.603 241.594 243.55 241.594C243.496 241.594 243.444 241.61 243.4 241.64C243.353 241.665 243.314 241.702 243.287 241.748C243.261 241.794 243.248 241.847 243.25 241.9V242.79C243.25 242.865 243.277 242.937 243.327 242.992C243.377 243.048 243.446 243.083 243.52 243.09Z" fill="#FAFAFA"/>
<path d="M250 250.86C250.049 250.872 250.101 250.872 250.15 250.86C250.197 250.834 250.236 250.797 250.264 250.751C250.292 250.706 250.308 250.654 250.31 250.6V249.71C250.297 249.639 250.259 249.574 250.204 249.528C250.148 249.481 250.078 249.456 250.005 249.456C249.932 249.456 249.862 249.481 249.806 249.528C249.751 249.574 249.713 249.639 249.7 249.71V250L248.7 249.44C248.63 249.403 248.549 249.393 248.473 249.414C248.397 249.434 248.331 249.483 248.29 249.55C248.252 249.621 248.242 249.704 248.263 249.782C248.283 249.859 248.332 249.927 248.4 249.97L249.82 250.79C249.874 250.827 249.935 250.851 250 250.86Z" fill="#FAFAFA"/>
<path d="M244.94 247.94C245.006 247.94 245.07 247.918 245.123 247.878C245.175 247.838 245.213 247.781 245.23 247.717C245.247 247.654 245.243 247.586 245.217 247.525C245.192 247.464 245.147 247.413 245.09 247.38L243.82 246.64V245.93C243.82 245.85 243.788 245.774 243.732 245.718C243.676 245.661 243.599 245.63 243.52 245.63C243.44 245.63 243.364 245.661 243.308 245.718C243.251 245.774 243.22 245.85 243.22 245.93V246.82C243.218 246.873 243.231 246.926 243.257 246.972C243.284 247.018 243.323 247.055 243.37 247.08L244.79 247.9C244.835 247.927 244.887 247.941 244.94 247.94Z" fill="#FAFAFA"/>
<path d="M253.26 250.08H253.31H253.89C253.903 250.081 253.915 250.08 253.927 250.076C253.94 250.072 253.951 250.066 253.96 250.057C253.97 250.049 253.977 250.038 253.982 250.027C253.987 250.015 253.99 250.003 253.99 249.99C253.985 249.9 253.985 249.81 253.99 249.72C253.99 249.62 253.99 249.52 253.99 249.43C253.992 249.368 253.97 249.307 253.93 249.26L253.29 248.48C253.277 248.455 253.27 248.428 253.27 248.4C253.27 248.372 253.277 248.345 253.29 248.32L253.59 247.64C253.59 247.64 253.65 247.64 253.68 247.64L254.37 248.27C254.393 248.286 254.421 248.295 254.45 248.295C254.479 248.295 254.506 248.286 254.53 248.27C254.615 248.196 254.714 248.138 254.82 248.1C254.844 248.091 254.864 248.074 254.876 248.052C254.889 248.03 254.894 248.005 254.89 247.98L254.68 246.98C254.68 246.98 254.68 246.93 254.68 246.91H254.74L255.42 246.98C255.449 246.984 255.478 246.996 255.502 247.013C255.526 247.031 255.546 247.053 255.56 247.08L255.93 248.08C255.958 248.148 256.012 248.202 256.08 248.23C256.224 248.297 256.361 248.377 256.49 248.47C256.55 248.47 256.61 248.47 256.64 248.47L256.98 247.95C256.98 247.95 257.06 247.95 257.11 247.95L257.85 248.73C257.891 248.777 257.913 248.838 257.91 248.9L257.7 249.6C257.682 249.652 257.682 249.708 257.7 249.76C257.82 249.96 257.94 250.15 258.04 250.36C258.077 250.418 258.134 250.46 258.2 250.48L258.83 250.63C258.863 250.637 258.893 250.651 258.919 250.672C258.946 250.693 258.966 250.719 258.98 250.75L259.3 251.82C259.303 251.832 259.303 251.845 259.301 251.857C259.298 251.869 259.293 251.88 259.285 251.89C259.277 251.9 259.267 251.907 259.256 251.913C259.245 251.918 259.232 251.92 259.22 251.92H258.64C258.613 251.92 258.588 251.93 258.569 251.949C258.55 251.968 258.54 251.993 258.54 252.02C258.56 252.203 258.56 252.387 258.54 252.57C258.54 252.632 258.561 252.692 258.6 252.74L259.25 253.53C259.263 253.555 259.27 253.582 259.27 253.61C259.27 253.638 259.263 253.665 259.25 253.69L258.94 254.37C258.94 254.37 258.89 254.37 258.86 254.37L258.17 253.74C258.149 253.723 258.122 253.714 258.095 253.714C258.068 253.714 258.041 253.723 258.02 253.74C257.932 253.813 257.834 253.873 257.73 253.92C257.705 253.927 257.684 253.943 257.671 253.966C257.658 253.988 257.654 254.015 257.66 254.04L257.87 255.04C257.87 255.04 257.87 255.09 257.87 255.11H257.81L257.13 255.04C257.098 255.038 257.068 255.028 257.042 255.01C257.015 254.992 256.994 254.968 256.98 254.94L256.62 253.94C256.586 253.879 256.533 253.83 256.47 253.8L256.26 253.68L256.05 253.56C256.05 253.56 255.93 253.51 255.91 253.56L255.56 254.09C255.543 254.1 255.524 254.105 255.505 254.105C255.486 254.105 255.467 254.1 255.45 254.09L254.71 253.31C254.688 253.29 254.671 253.265 254.661 253.237C254.651 253.209 254.647 253.179 254.65 253.15L254.86 252.45C254.878 252.395 254.878 252.335 254.86 252.28C254.733 252.091 254.62 251.894 254.52 251.69C254.483 251.632 254.426 251.589 254.36 251.57L253.72 251.42C253.66 251.42 253.59 251.35 253.58 251.3L253.26 250.22C253.241 250.22 253.224 250.213 253.21 250.199C253.197 250.186 253.19 250.168 253.19 250.15C253.19 250.131 253.197 250.114 253.21 250.1C253.224 250.087 253.241 250.08 253.26 250.08ZM256.65 252.7H256.9C257.037 252.699 257.171 252.657 257.284 252.581C257.398 252.505 257.487 252.396 257.54 252.27C257.59 252.159 257.62 252.041 257.63 251.92C257.635 251.853 257.635 251.786 257.63 251.72C257.593 251.001 257.298 250.32 256.8 249.8C256.65 249.64 256.479 249.501 256.29 249.39L256.12 249.3C255.969 249.232 255.805 249.197 255.64 249.2H255.56C255.442 249.216 255.33 249.263 255.237 249.337C255.144 249.411 255.072 249.509 255.03 249.62C254.923 250.058 254.935 250.516 255.063 250.948C255.191 251.381 255.432 251.771 255.76 252.08C255.99 252.369 256.299 252.585 256.65 252.7Z" fill="white"/>
<path d="M289.23 175.9C286.07 174.07 283.5 175.55 283.5 179.2C283.61 181.187 284.185 183.121 285.181 184.844C286.176 186.567 287.563 188.032 289.23 189.12C292.39 190.95 294.96 189.47 294.96 185.81C294.851 183.824 294.276 181.892 293.28 180.17C292.284 178.448 290.897 176.985 289.23 175.9Z" fill="#374988"/>
<path d="M289.132 184.138C289.189 184.171 289.235 184.178 289.27 184.159C289.304 184.132 289.322 184.086 289.322 184.019V178.39L290.769 180.524C290.809 180.587 290.852 180.633 290.898 180.659C290.95 180.69 290.999 180.685 291.045 180.645L291.252 180.457C291.28 180.427 291.295 180.389 291.295 180.342C291.295 180.269 291.266 180.192 291.208 180.112L289.339 177.342C289.276 177.259 289.201 177.192 289.115 177.142L288.71 176.905C288.652 176.871 288.606 176.868 288.572 176.894C288.532 176.911 288.512 176.952 288.512 177.019V183.546C288.512 183.612 288.532 183.68 288.572 183.751C288.606 183.811 288.652 183.857 288.71 183.891L289.132 184.138Z" fill="#353841"/>
<path d="M276.4 171.35L248.61 155.35C247.84 154.91 247.23 155.22 247.23 156.05C247.262 156.512 247.404 156.961 247.644 157.357C247.884 157.754 248.215 158.087 248.61 158.33L276.4 174.33C277.16 174.77 277.78 174.46 277.78 173.63C277.741 173.169 277.596 172.724 277.357 172.328C277.118 171.933 276.79 171.598 276.4 171.35Z" fill="#374988"/>
<path d="M276.83 176.71L257.76 165.71C257.24 165.41 256.81 165.62 256.81 166.19C256.831 166.508 256.929 166.817 257.094 167.09C257.259 167.363 257.488 167.593 257.76 167.76L276.83 178.76C277.35 179.06 277.78 178.85 277.78 178.28C277.758 177.961 277.661 177.653 277.496 177.38C277.33 177.106 277.102 176.877 276.83 176.71Z" fill="#E0E0E0"/>
<path d="M289.23 195.75C286.07 193.93 283.5 195.41 283.5 199.06C283.61 201.047 284.185 202.981 285.181 204.704C286.176 206.427 287.563 207.892 289.23 208.98C292.39 210.8 294.96 209.32 294.96 205.67C294.85 203.683 294.275 201.749 293.279 200.026C292.284 198.303 290.897 196.838 289.23 195.75Z" fill="#374988"/>
<path d="M290.89 205.026C290.947 205.059 290.996 205.068 291.036 205.051C291.071 205.025 291.088 204.978 291.088 204.912V204.612C291.088 204.459 291.016 204.271 290.872 204.047L288.994 200.784C288.569 200.116 288.276 199.602 288.115 199.242C287.954 198.882 287.874 198.552 287.874 198.252C287.874 197.86 287.969 197.609 288.158 197.501C288.348 197.385 288.624 197.433 288.986 197.645C289.33 197.846 289.603 198.122 289.804 198.473C290.005 198.823 290.129 199.208 290.175 199.627C290.186 199.707 290.215 199.781 290.261 199.847C290.307 199.914 290.353 199.961 290.399 199.988L290.812 200.23C290.864 200.26 290.907 200.265 290.941 200.245C290.976 200.225 290.993 200.189 290.993 200.136C290.982 199.776 290.901 199.39 290.752 198.977C290.597 198.553 290.37 198.151 290.071 197.77C289.772 197.383 289.411 197.065 288.986 196.816C288.342 196.44 287.86 196.354 287.538 196.559C287.211 196.753 287.047 197.15 287.047 197.749C287.047 198.168 287.136 198.599 287.314 199.043C287.486 199.476 287.759 199.988 288.133 200.579L289.83 203.568L287.116 201.981C287.053 201.944 287.004 201.935 286.969 201.955C286.935 201.975 286.918 202.021 286.918 202.095V202.474C286.918 202.54 286.938 202.609 286.978 202.679C287.012 202.739 287.058 202.786 287.116 202.819L290.89 205.026Z" fill="#353841"/>
<path d="M276.4 191.2L248.61 175.2C247.84 174.76 247.23 175.07 247.23 175.89C247.262 176.354 247.404 176.803 247.643 177.201C247.883 177.6 248.215 177.935 248.61 178.18L276.4 194.19C277.16 194.63 277.78 194.32 277.78 193.49C277.743 193.027 277.599 192.58 277.359 192.183C277.12 191.785 276.791 191.449 276.4 191.2Z" fill="#374988"/>
<path d="M276.83 196.57L257.76 185.57C257.24 185.26 256.81 185.48 256.81 186.04C256.831 186.359 256.929 186.667 257.094 186.94C257.259 187.214 257.488 187.443 257.76 187.61L276.83 198.61C277.35 198.91 277.78 198.69 277.78 198.13C277.757 197.813 277.659 197.507 277.493 197.235C277.328 196.964 277.101 196.736 276.83 196.57Z" fill="#E0E0E0"/>
<path d="M289.23 215.61C286.07 213.78 283.5 215.26 283.5 218.92C283.609 220.906 284.184 222.838 285.18 224.56C286.175 226.282 287.563 227.745 289.23 228.83C292.39 230.66 294.96 229.18 294.96 225.53C294.85 223.543 294.275 221.609 293.279 219.886C292.284 218.163 290.897 216.698 289.23 215.61Z" fill="#374988"/>
<path d="M288.96 223.857C289.408 224.119 289.795 224.263 290.123 224.288C290.45 224.306 290.7 224.229 290.872 224.057C291.039 223.882 291.128 223.651 291.14 223.365C291.14 223.305 291.122 223.248 291.088 223.195C291.053 223.135 291.01 223.09 290.959 223.06L290.571 222.833C290.508 222.796 290.456 222.782 290.416 222.792C290.376 222.795 290.344 222.833 290.321 222.906C290.246 223.202 290.086 223.348 289.839 223.343C289.586 223.335 289.29 223.232 288.951 223.034C288.538 222.792 288.21 222.487 287.969 222.12C287.722 221.743 287.598 221.341 287.598 220.916C287.598 220.104 288.026 219.948 288.882 220.448L289.692 220.922C289.749 220.956 289.798 220.964 289.839 220.948C289.873 220.921 289.89 220.875 289.89 220.808V220.549C289.89 220.449 289.859 220.344 289.795 220.234L288.115 217.096L290.666 218.587C290.723 218.62 290.772 218.629 290.812 218.613C290.847 218.593 290.864 218.55 290.864 218.483V218.124C290.864 218.051 290.847 217.984 290.812 217.924C290.772 217.854 290.723 217.802 290.666 217.768L287.254 215.774C287.191 215.737 287.142 215.732 287.107 215.758C287.067 215.774 287.047 215.819 287.047 215.892V216.222C287.047 216.295 287.076 216.388 287.133 216.502L288.813 219.67L288.675 219.589C288.089 219.266 287.627 219.172 287.288 219.307C286.944 219.438 286.771 219.823 286.771 220.462C286.771 220.901 286.866 221.336 287.056 221.766C287.239 222.186 287.498 222.58 287.831 222.948C288.164 223.309 288.54 223.612 288.96 223.857Z" fill="#353841"/>
<path d="M276.4 211.06L248.61 195C247.84 194.56 247.23 194.88 247.23 195.7C247.263 196.163 247.405 196.613 247.645 197.011C247.884 197.409 248.215 197.744 248.61 197.99L276.4 214.05C277.16 214.49 277.78 214.17 277.78 213.35C277.743 212.887 277.599 212.44 277.359 212.043C277.12 211.645 276.791 211.309 276.4 211.06Z" fill="#374988"/>
<path d="M276.83 216.43L257.76 205.43C257.24 205.13 256.81 205.35 256.81 205.91C256.831 206.228 256.929 206.537 257.094 206.81C257.259 207.083 257.488 207.313 257.76 207.48L276.83 218.48C277.35 218.79 277.78 218.57 277.78 218.01C277.76 217.69 277.663 217.379 277.498 217.104C277.332 216.829 277.103 216.598 276.83 216.43Z" fill="#E0E0E0"/>
<path d="M314 242.12C320.76 242.94 338.95 243.59 338.95 243.59C350.95 238.32 360.33 226.76 361.52 213.73L362.04 208.12C363.04 197.48 355.39 187.55 345.2 184.35C342.213 183.379 339.045 183.093 335.932 183.514C332.819 183.935 329.841 185.051 327.218 186.78C324.596 188.509 322.396 190.807 320.783 193.502C319.17 196.198 318.185 199.222 317.9 202.35C317.65 205.11 316.9 207.55 314.67 209.35C313.423 210.242 312.082 210.993 310.67 211.59C308.64 212.481 306.793 213.738 305.22 215.3C304.441 216.087 303.832 217.025 303.431 218.058C303.03 219.09 302.846 220.194 302.89 221.3C303.049 222.723 303.607 224.071 304.5 225.19C304.67 225.353 304.77 225.575 304.78 225.81C304.744 225.975 304.665 226.127 304.55 226.25C302.48 228.9 301.39 232.56 302.63 235.68C303.493 237.636 305.01 239.23 306.92 240.19C308.828 241.138 310.884 241.75 313 242L314 242.12Z" fill="#353841"/>
<path d="M255.5 223.26C255.853 222.776 256.259 222.333 256.71 221.94C257.5 221.21 258.59 220.54 259.6 220.94C260.193 221.233 260.681 221.701 261 222.28C261.64 223.22 262.4 224.09 263 225.06C263.821 226.476 264.768 227.815 265.83 229.06C266.28 229.6 266.93 230.34 267.7 230.11C267.838 230.071 267.962 229.995 268.06 229.89C268.143 229.778 268.198 229.648 268.22 229.51C268.314 228.843 268.277 228.163 268.11 227.51C267.949 226.853 267.949 226.167 268.11 225.51C268.201 225.188 268.395 224.904 268.662 224.702C268.929 224.5 269.255 224.39 269.59 224.39C269.777 224.401 269.952 224.483 270.08 224.62C270.167 224.716 270.235 224.828 270.28 224.95C271.588 227.54 272.54 230.295 273.11 233.14C273.24 234.399 273.467 235.646 273.79 236.87C274.64 239.51 277.73 240.87 279.9 242.4C284.625 245.512 289.505 248.382 294.52 251C296.98 248.84 312.52 235.28 316.81 231.7C322.99 226.56 329.55 228.86 330.44 228.93C331.33 229 332.51 234.93 325.24 243.53C325.24 243.53 302.57 262.71 298.24 265.2C297.17 265.81 295.72 267.08 293.97 267.01H293.91H293.69C293.455 266.991 293.224 266.944 293 266.87C290.85 266.18 287.78 263.52 286.49 262.52C279.99 257.289 273.761 251.728 267.83 245.86C266.14 244.22 264.22 242.86 262.39 241.37C259.986 239.547 257.95 237.283 256.39 234.7C255.2 232.884 254.475 230.803 254.28 228.64C254.058 226.76 254.489 224.861 255.5 223.26Z" fill="#FFA8A7"/>
<path d="M354.57 275.29C359.92 287.29 361.22 294.29 361.64 300.82C362.06 307.35 361.44 317.23 361.44 317.23L314.21 290C315.261 283.346 316.812 276.781 318.85 270.36L354.57 275.29Z" fill="#374988"/>
<path d="M318.78 255.52L319.06 267.9C318.44 270.33 317.45 274.3 316.34 277.9C317.04 280.09 322.21 285.98 333.19 289.63C344.79 293.49 358.02 289.51 359.49 286.63L354.89 274.98C354.89 274.98 358.89 259.53 358.95 259.34C359.01 259.15 354.66 252.87 354.37 245.34C354.08 237.81 356.16 234.58 356.82 233.86C356.52 233.73 349.75 231.86 349.75 231.86L336.25 229.16L329.9 228.75C324.61 231.461 320.325 235.792 317.67 241.11C316.443 243.362 315.894 245.922 316.091 248.479C316.288 251.037 317.222 253.482 318.78 255.52Z" fill="#FAFAFA"/>
<path d="M326.46 193.4C325.05 194.84 322.2 198.29 322.46 210.8C322.73 221.41 326.17 224.02 327.9 224.8C329.63 225.58 332.96 225.08 336.19 224.54V229.71C336.19 229.71 331.61 232.9 330.46 235.79C329.56 238.04 335.28 241.18 343.96 237.44C347.51 235.91 350.37 232.02 350.37 232.02L350.26 216.7C350.26 216.7 352.17 218.54 355.39 215.7C358.05 213.37 358.94 209.43 356.86 207.33C356.32 206.831 355.668 206.466 354.96 206.267C354.251 206.069 353.506 206.041 352.784 206.186C352.063 206.332 351.386 206.646 350.81 207.104C350.234 207.562 349.775 208.15 349.47 208.82C345.022 208.889 340.638 207.755 336.78 205.54C329.95 201.76 326.92 197.52 326.46 193.4Z" fill="#FFA8A7"/>
<path d="M334.5 208.89C334.498 209.15 334.573 209.405 334.715 209.624C334.857 209.842 335.06 210.014 335.299 210.118C335.538 210.222 335.802 210.253 336.059 210.208C336.315 210.164 336.553 210.044 336.742 209.866C336.932 209.687 337.065 209.457 337.124 209.203C337.184 208.95 337.168 208.684 337.079 208.44C336.989 208.195 336.829 207.983 336.62 207.828C336.41 207.673 336.16 207.584 335.9 207.57C335.721 207.565 335.543 207.595 335.376 207.658C335.209 207.721 335.056 207.817 334.926 207.94C334.796 208.062 334.692 208.209 334.619 208.372C334.545 208.535 334.505 208.711 334.5 208.89Z" fill="#353841"/>
<path d="M335.52 216.75L330.52 217.66C330.565 217.993 330.676 218.313 330.848 218.602C331.019 218.891 331.247 219.142 331.518 219.341C331.788 219.54 332.096 219.682 332.423 219.759C332.75 219.836 333.089 219.847 333.42 219.79C334.096 219.654 334.692 219.261 335.084 218.694C335.476 218.127 335.632 217.43 335.52 216.75Z" fill="#B16668"/>
<path d="M333.41 219.79C333.08 219.859 332.74 219.859 332.41 219.79C332.436 219.228 332.676 218.698 333.082 218.309C333.488 217.92 334.028 217.702 334.59 217.7C334.893 217.697 335.193 217.758 335.47 217.88C335.342 218.361 335.081 218.795 334.716 219.133C334.352 219.471 333.899 219.699 333.41 219.79Z" fill="#F28F8F"/>
<path d="M323.9 204.61L326.9 203.38C326.83 203.178 326.72 202.992 326.576 202.835C326.432 202.677 326.257 202.55 326.063 202.462C325.868 202.374 325.657 202.326 325.444 202.323C325.23 202.319 325.018 202.359 324.82 202.44C324.419 202.617 324.101 202.939 323.93 203.343C323.759 203.746 323.748 204.199 323.9 204.61Z" fill="#353841"/>
<path d="M324.6 207.91C324.6 208.17 324.677 208.424 324.82 208.641C324.963 208.858 325.167 209.028 325.406 209.131C325.645 209.233 325.909 209.263 326.165 209.217C326.421 209.171 326.658 209.051 326.846 208.872C327.035 208.693 327.166 208.463 327.225 208.21C327.284 207.956 327.268 207.692 327.178 207.448C327.088 207.204 326.928 206.992 326.719 206.837C326.51 206.683 326.26 206.594 326 206.58C325.638 206.572 325.288 206.707 325.026 206.956C324.764 207.206 324.61 207.548 324.6 207.91Z" fill="#353841"/>
<path d="M330.85 207.37L329.93 215.13L325.93 213.23L330.85 207.37Z" fill="#F28F8F"/>
<path d="M336.24 224.51C339.65 224.05 346.66 222.02 347.75 219.24C347.316 220.646 346.461 221.886 345.3 222.79C343.21 224.59 336.25 226.63 336.25 226.63L336.24 224.51Z" fill="#F28F8F"/>
<path d="M350 212.68C349.127 212.606 348.32 212.188 347.756 211.518C347.191 210.849 346.916 209.983 346.99 209.11C347.064 208.237 347.482 207.43 348.152 206.866C348.821 206.301 349.687 206.026 350.56 206.1L350 212.68Z" fill="#353841"/>
<path d="M384 281.74C382.53 290.55 379.31 298.74 369.65 315.15C368.546 317.155 367.203 319.019 365.65 320.7C364.02 322.464 362.042 323.87 359.84 324.83C358.554 325.369 357.126 325.464 355.78 325.1C353.16 324.47 350.93 322.44 350.73 321.19C350.46 319.51 353.47 317.81 354.65 316.59C355.65 315.59 357.65 313.9 358.32 312.98C358.99 312.06 359.75 311.32 358.91 311.35C358.4 311.35 357.91 311.54 357.42 311.6C357.001 311.64 356.579 311.64 356.16 311.6C355.74 311.63 355.318 311.568 354.924 311.418C354.53 311.267 354.174 311.033 353.88 310.73C353.756 310.578 353.679 310.392 353.659 310.197C353.64 310.001 353.678 309.804 353.77 309.63C353.963 309.391 354.219 309.211 354.51 309.11C355.435 308.76 356.333 308.346 357.2 307.87C358.063 307.375 358.894 306.827 359.69 306.23C360.91 305.23 362.57 304.15 363.32 302.76C365.196 299.398 366.622 295.804 367.56 292.07C368.24 289.47 369.56 284.48 370.24 279.75C370.02 279.15 366.97 273.54 365 270.28C362.17 265.59 359.47 261.57 356.86 257.39C351.35 250.67 351.86 237.86 356.74 233.87C365.32 236.07 367.79 239.76 370.62 245.23C373.38 250.55 380.8 265.39 383.25 272.72C384.24 275.619 384.498 278.718 384 281.74Z" fill="#FFA8A7"/>
<path d="M134 406.84L51.3 388.52L51.1301 390.76C51.1301 390.76 52.9001 393.76 72.2201 399.48C91.5401 405.2 139.32 415.31 139.32 415.31L141.32 412.66L134 406.84Z" fill="#353841"/>
<path d="M74.6601 370.17C74.6601 370.17 79.5601 377.9 85.3401 382.44C91.1201 386.98 122.07 413.81 122.07 413.81L132.07 419.34L135.07 417.61L130.57 407.14C130.57 407.14 95.6201 382.35 88.0601 377.14C80.5001 371.93 73.6901 368.73 74.6601 370.17Z" fill="#353841"/>
<path d="M135.05 415.17L132.05 416.9L132.83 418.89L135.05 417.61V415.17Z" fill="#353841"/>
<path d="M74.58 367.48V369.96L77.0701 373.61V369.77L74.58 367.48Z" fill="#353841"/>
<path d="M123 446.54C119.15 440.54 123.64 434.89 123.2 429.75C122.76 424.61 122.08 413.81 122.08 413.81L132.08 419.34C132.08 419.34 135.4 427.82 136.78 431.39C138.16 434.96 144.12 438.73 147.78 441.81C151.44 444.89 154.51 452.25 144.29 455.12C134.07 457.99 126.84 452.51 123 446.54ZM141 451.12C144.94 449.98 146.12 446.75 143.64 443.9C141.16 441.05 135.96 439.66 132.02 440.8C128.08 441.94 126.91 445.18 129.39 448.03C131.87 450.88 137 452.26 141 451.12Z" fill="#374988"/>
<path opacity="0.2" d="M123 446.54C119.15 440.54 123.64 434.89 123.2 429.75C122.76 424.61 122.08 413.81 122.08 413.81L132.08 419.34C132.08 419.34 135.4 427.82 136.78 431.39C138.16 434.96 144.12 438.73 147.78 441.81C151.44 444.89 154.51 452.25 144.29 455.12C134.07 457.99 126.84 452.51 123 446.54ZM141 451.12C144.94 449.98 146.12 446.75 143.64 443.9C141.16 441.05 135.96 439.66 132.02 440.8C128.08 441.94 126.91 445.18 129.39 448.03C131.87 450.88 137 452.26 141 451.12Z" fill="#353841"/>
<path d="M122.59 410.07C123.153 410.537 123.826 410.853 124.544 410.989C125.263 411.126 126.005 411.078 126.7 410.85C128.21 410.42 128.82 409.35 128.06 408.48C127.497 408.013 126.824 407.697 126.105 407.561C125.387 407.424 124.645 407.472 123.95 407.7C122.44 408.13 121.83 409.2 122.59 410.07Z" fill="#353841"/>
<path d="M134.08 405.65C134.08 405.65 145.9 407.83 149.79 408.19C153.68 408.55 159.31 407.72 169.04 408.61C178.77 409.5 196.29 417.85 197.19 425.95C198.09 434.05 189.69 434.65 183.66 433.2C177.63 431.75 174.29 429.52 163.96 424.35C150.17 417.46 141.02 413.09 141.02 413.09L133.29 406.69L134.08 405.65ZM157 416.57C162.622 418.395 168.109 420.614 173.42 423.21C180.01 426.47 181.59 428.68 185.71 429.65C189.06 430.44 192.37 428.56 190.71 424.88C188.92 420.96 183.97 416.88 174.86 413.88C165.75 410.88 158.27 411.44 154.94 413.2C153.61 413.92 153 415.26 157 416.57Z" fill="#374988"/>
<path opacity="0.2" d="M134.08 405.65C134.08 405.65 145.9 407.83 149.79 408.19C153.68 408.55 159.31 407.72 169.04 408.61C178.77 409.5 196.29 417.85 197.19 425.95C198.09 434.05 189.69 434.65 183.66 433.2C177.63 431.75 174.29 429.52 163.96 424.35C150.17 417.46 141.02 413.09 141.02 413.09L133.29 406.69L134.08 405.65ZM157 416.57C162.622 418.395 168.109 420.614 173.42 423.21C180.01 426.47 181.59 428.68 185.71 429.65C189.06 430.44 192.37 428.56 190.71 424.88C188.92 420.96 183.97 416.88 174.86 413.88C165.75 410.88 158.27 411.44 154.94 413.2C153.61 413.92 153 415.26 157 416.57Z" fill="#353841"/>
<path d="M139.36 415.31V412.87L141.02 410.65V413.09L139.36 415.31Z" fill="#353841"/>
<path d="M134 404.4L51.1301 388.32C51.1301 388.32 52.9001 391.32 72.2201 397.05C91.5401 402.78 139.32 412.87 139.32 412.87L141.32 410.22L134 404.4Z" fill="#353841"/>
<path d="M74.6601 367.73C74.6601 367.73 79.5601 375.47 85.3401 380.01C91.1201 384.55 122.07 411.38 122.07 411.38L132.07 416.9L135.07 415.17L130.57 404.7C130.57 404.7 95.6201 379.91 88.0601 374.7C80.5001 369.49 73.6901 366.29 74.6601 367.73Z" fill="#353841"/>
<path d="M123 444.1C119.15 438.1 123.64 432.45 123.2 427.31C122.76 422.17 122.08 411.38 122.08 411.38L132.08 416.9C132.08 416.9 135.4 425.38 136.78 428.96C138.16 432.54 144.12 436.29 147.78 439.37C151.44 442.45 154.51 449.81 144.29 452.69C134.07 455.57 126.84 450.07 123 444.1ZM141 448.69C144.94 447.55 146.12 444.31 143.64 441.46C141.16 438.61 135.96 437.23 132.02 438.37C128.08 439.51 126.91 442.74 129.39 445.59C131.87 448.44 137 449.83 141 448.69Z" fill="#374988"/>
<path d="M122.59 407.63C123.152 408.098 123.824 408.416 124.543 408.554C125.262 408.693 126.004 408.646 126.7 408.42C128.21 407.98 128.82 406.92 128.06 406.04C127.497 405.573 126.824 405.257 126.105 405.121C125.387 404.984 124.645 405.032 123.95 405.26C122.44 405.7 121.83 406.76 122.59 407.63Z" fill="#353841"/>
<path d="M134.08 403.21C134.08 403.21 145.9 405.4 149.79 405.76C153.68 406.12 159.31 405.29 169.04 406.17C178.77 407.05 196.29 415.41 197.19 423.51C198.09 431.61 189.69 432.22 183.66 430.76C177.63 429.3 174.29 427.08 163.96 421.92C150.17 415 141 410.65 141 410.65L133.27 404.26L134.08 403.21ZM157 414.13C162.624 415.955 168.111 418.177 173.42 420.78C180.01 424.03 181.59 426.24 185.71 427.21C189.06 428.01 192.37 426.12 190.71 422.44C188.92 418.53 183.97 414.44 174.86 411.49C165.75 408.54 158.27 409.04 154.94 410.8C153.61 411.48 153 412.82 157 414.13Z" fill="#374988"/>
<path d="M207.31 378.86L183.18 374.13C183.027 374.102 182.869 374.123 182.729 374.188C182.588 374.254 182.471 374.362 182.394 374.497C182.317 374.632 182.284 374.788 182.3 374.942C182.315 375.097 182.378 375.243 182.48 375.36L198.85 393.89L207.31 378.86Z" fill="#CC2593" fill-opacity="0.5"/>
<path d="M182.48 375.36C182.378 375.243 182.315 375.097 182.3 374.942C182.284 374.788 182.317 374.632 182.394 374.497C182.471 374.362 182.588 374.254 182.729 374.188C182.869 374.123 183.027 374.102 183.18 374.13L187.89 375.06C187.242 375.459 186.717 376.03 186.375 376.71C186.032 377.39 185.885 378.152 185.95 378.91V379.33L182.48 375.36Z" fill="#353841"/>
<path d="M289.66 446L287.66 444.87L285.27 443.51L198.82 393.94C198.028 391.284 198.267 388.427 199.49 385.94C201.2 382.11 204.49 379.09 207.27 378.94L293.68 428.48L298.26 431C295.22 429.5 286.63 444.39 289.66 446Z" fill="#374988"/>
<path d="M282.13 441.67L277.73 439.14C276.43 438.45 277.18 435.25 278.73 431.95C280.73 427.56 284.73 423.3 286.42 424.22L289.67 426.08L290.82 426.77C289.1 425.85 285.13 430.1 283.12 434.5C281.67 437.66 280.93 440.75 282.03 441.58C282.054 441.619 282.088 441.651 282.13 441.67Z" fill="#EBEBEB"/>
<path d="M281 441C278 439.4 286.63 424.49 289.66 426.09L294.07 428.62C291.07 427.01 282.39 441.92 285.42 443.52L281 441Z" fill="#374988"/>
<path d="M289.66 446L285.3 443.51C282.3 441.96 290.55 427.51 293.71 428.45L293.89 428.52L298.26 431C295.22 429.5 286.63 444.39 289.66 446Z" fill="#EBEBEB"/>
<path opacity="0.15" d="M182.37 374.55L183.18 374.13L200.69 383.71L292.06 436.12C292.23 435.85 292.37 435.83 292.48 436.02C289.91 440.02 287.97 445.08 289.66 445.96L287.66 444.83L285.27 443.47L198.82 393.9L182.45 375.37C182.354 375.258 182.295 375.119 182.281 374.972C182.267 374.826 182.298 374.678 182.37 374.55Z" fill="#353841"/>
<path d="M308.15 456.54L289.66 446C288.36 445.33 289.08 442.16 290.58 438.88C292.58 434.48 296.52 430.19 298.26 431.06L316.81 441.68C320.49 443.81 317.11 451.81 313 455.38C311.49 456.7 309.78 457.3 308.15 456.54Z" fill="#CC2593"/>
<path opacity="0.1" d="M307 450.8C308.06 446.64 311.44 442.55 314.54 441.68C314.997 441.512 315.488 441.458 315.971 441.523C316.453 441.587 316.913 441.768 317.31 442.05C320.09 444.63 316.85 451.97 312.97 455.35C311.47 456.68 309.79 457.27 308.2 456.57C306.86 455.76 306.33 453.63 307 450.8Z" fill="#353841"/>
</svg>
