<svg width="22" height="24" viewBox="0 0 18 24" fill="none" xmlns="http://www.w3.org/2000/svg">
<path d="M3.0001 2.4V21.6H15.0001V2.4H3.0001ZM1.8001 0H16.2001C16.5184 0 16.8236 0.126428 17.0486 0.351472C17.2737 0.576515 17.4001 0.88174 17.4001 1.2V22.8C17.4001 23.1183 17.2737 23.4235 17.0486 23.6485C16.8236 23.8736 16.5184 24 16.2001 24H1.8001C1.48184 24 1.17661 23.8736 0.95157 23.6485C0.726526 23.4235 0.600098 23.1183 0.600098 22.8V1.2C0.600098 0.88174 0.726526 0.576515 0.95157 0.351472C1.17661 0.126428 1.48184 0 1.8001 0ZM9.0001 18C9.31836 18 9.62358 18.1264 9.84863 18.3515C10.0737 18.5765 10.2001 18.8817 10.2001 19.2C10.2001 19.5183 10.0737 19.8235 9.84863 20.0485C9.62358 20.2736 9.31836 20.4 9.0001 20.4C8.68184 20.4 8.37661 20.2736 8.15157 20.0485C7.92653 19.8235 7.8001 19.5183 7.8001 19.2C7.8001 18.8817 7.92653 18.5765 8.15157 18.3515C8.37661 18.1264 8.68184 18 9.0001 18Z" fill="#0D6CA2"/>
</svg>
