<svg width="22" height="24" viewBox="0 0 22 24" fill="none" xmlns="http://www.w3.org/2000/svg">
<path d="M21.8002 7.2V22.7916C21.8013 22.9492 21.7714 23.1055 21.7121 23.2515C21.6528 23.3975 21.5653 23.5304 21.4547 23.6426C21.344 23.7548 21.2123 23.8441 21.0672 23.9054C20.922 23.9668 20.7662 23.9989 20.6086 24H1.3918C1.07597 24 0.773065 23.8746 0.549631 23.6514C0.326197 23.4282 0.200513 23.1254 0.200195 22.8096V1.1904C0.200195 0.546 0.738995 0 1.4026 0H14.5966L21.8002 7.2ZM19.4002 8.4H13.4002V2.4H2.6002V21.6H19.4002V8.4ZM6.20019 6H9.80019V8.4H6.20019V6ZM6.20019 10.8H15.8002V13.2H6.20019V10.8ZM6.20019 15.6H15.8002V18H6.20019V15.6Z" fill="#FAA425"/>
</svg>
